<?xml version="1.0" standalone="no"?>
<!DOCTYPE svg PUBLIC "-//W3C//DTD SVG 1.1//EN" "http://www.w3.org/Graphics/SVG/1.1/DTD/svg11.dtd" >
<svg>
<metadata>
Created by FontForge 20090914 at Wed Mar  2 20:19:51 2022
 By www-data
Copyright (c) 2015 by Kostas Bartsokas. All rights reserved.
</metadata>
<defs>
<font id="AvertaDemoPECuttedDemo-Regular" horiz-adv-x="0" >
  <font-face 
    font-family="Averta Demo PE Cutted Demo"
    font-weight="400"
    font-stretch="normal"
    units-per-em="1000"
    panose-1="0 0 5 0 0 0 0 0 0 0"
    ascent="800"
    descent="-200"
    x-height="487"
    cap-height="710"
    bbox="-680 -256.999 1063 948"
    underline-thickness="38"
    underline-position="-45"
    unicode-range="U+0020-U+2265"
  />
<missing-glyph horiz-adv-x="446" 
 />
    <glyph glyph-name=".notdef" horiz-adv-x="446" 
 />
    <glyph glyph-name="space" unicode=" " horiz-adv-x="272" 
 />
    <glyph glyph-name="exclam" unicode="!" horiz-adv-x="242" 
d="M76 736h93l-15 -527h-63zM121 -7c-16.667 0 -30.834 5.66699 -42.501 17s-17.5 25.333 -17.5 42s5.83301 30.667 17.5 42s25.834 17 42.501 17s30.667 -5.66699 42 -17s17 -25.333 17 -42s-5.66699 -30.667 -17 -42s-25.333 -17 -42 -17z" />
    <glyph glyph-name="quotedbl" unicode="&#x22;" horiz-adv-x="338" 
d="M71 710h87l-54 -241h-66zM212 710h88l-54 -241h-66z" />
    <glyph glyph-name="numbersign" unicode="#" horiz-adv-x="630" 
d="M158 169h-118v63h127l25 161h-131v62h141l31 201h58l-31 -201h163l31 201h58l-31 -201h123l-1 -62h-132l-24 -161h134v-63h-144l-31 -204h-58l32 204h-164l-31 -204h-58zM389 232l24 161h-163l-25 -161h164z" />
    <glyph glyph-name="dollar" unicode="$" horiz-adv-x="562" 
d="M518 181c0 -51.333 -17.501 -93.6689 -52.501 -127.002s-83.167 -52 -144.5 -56v-121h-65v122c-78.667 9.33301 -146.334 42 -203.001 98l53 62c56.667 -55.333 120.667 -83 192 -83c38 0 68.833 8.83301 92.5 26.5s35.5 41.834 35.5 72.501
c0 33.333 -11.5 58.333 -34.5 75s-61.167 33.667 -114.5 51c-27.333 8.66699 -48.833 15.834 -64.5 21.501s-34.167 14 -55.5 25s-37.5 22.333 -48.5 34s-20.667 26.834 -29 45.501s-12.5 39.334 -12.5 62.001c0 49.333 16.667 90.333 50 123s79.666 50.667 138.999 54v125
h65v-129c68 -10.667 126 -35.334 174 -74.001l-50 -61c-54 39.333 -110 59 -168 59c-35.333 0 -64 -8.16699 -86 -24.5s-33 -38.833 -33 -67.5s11.333 -50.334 34 -65.001s59.334 -30.334 110.001 -47.001c30.667 -10 54.334 -18.167 71.001 -24.5
s35.834 -15.166 57.501 -26.499s37.667 -23.166 48 -35.499s19.5 -28.333 27.5 -48s12 -41.834 12 -66.501z" />
    <glyph glyph-name="percent" unicode="%" horiz-adv-x="994" 
d="M309 11l311 711l66 -28l-311 -711zM242 323c-56 0 -103.167 18.3311 -141.5 54.998s-57.5 84.334 -57.5 143.001c0 55.333 18.5 101.833 55.5 139.5s84.833 56.5 143.5 56.5c55.333 0 102.333 -18.333 141 -55s58 -83.667 58 -141
c0 -55.333 -18.5 -102.166 -55.5 -140.499s-84.833 -57.5 -143.5 -57.5zM242 386.998c38.667 0 70 12.665 94 37.998s36 57 36 95c0 38.667 -12.333 70.334 -37 95.001s-55.667 37 -93 37c-38 0 -68.833 -12.667 -92.5 -38s-35.5 -56.666 -35.5 -93.999
c0 -39.333 12.333 -71.333 37 -96s55 -37 91 -37zM748 -6.00391c-56 0 -103.167 18.333 -141.5 55s-57.5 84 -57.5 142c0 55.333 18.5 101.833 55.5 139.5s84.833 56.5 143.5 56.5c56 0 103.333 -18.167 142 -54.5s58 -83.5 58 -141.5c0 -55.333 -18.667 -102 -56 -140
s-85.333 -57 -144 -57zM749 56.9961c38.667 0 70 12.665 94 37.998s36 57 36 95c0 38.667 -12.5 70.334 -37.5 95.001s-55.833 37 -92.5 37c-38 0 -69.167 -12.667 -93.5 -38s-36.5 -56.666 -36.5 -93.999c0 -38.667 12.5 -70.5 37.5 -95.5s55.833 -37.5 92.5 -37.5z" />
    <glyph glyph-name="ampersand" unicode="&#x26;" horiz-adv-x="652" 
d="M274 -6c-64 0 -117.668 19.334 -161.001 58.001s-65 89 -65 151c0 43.333 12.333 83.666 37 120.999s57 66.666 97 87.999v2l-84 102c4.66699 58.667 26.334 106.834 65.001 144.501s87 56.5 145 56.5c52 0 95.333 -12.833 130 -38.5s60.334 -57.5 77.001 -95.5l-70 -27
c-26.667 58 -70.334 87 -131.001 87c-39.333 0 -70 -10.667 -92 -32s-35 -48.666 -39 -81.999l288 -342h3c24 43.333 36 90.666 36 141.999l79 1c0 -80.667 -20.333 -150.667 -61 -210v-2l98 -118h-97l-57 67h-2c-50 -48.667 -115.333 -73 -196 -73zM281.999 71.001
c56.667 0 103.667 18.001 141 54.001v2l-191 227c-30 -14.667 -54 -35.334 -72 -62.001s-27 -55 -27 -85c0 -39.333 13.667 -71.833 41 -97.5s63.333 -38.5 108 -38.5z" />
    <glyph glyph-name="quotesingle" unicode="'" horiz-adv-x="196" 
d="M71 710h87l-54 -241h-66z" />
    <glyph glyph-name="parenleft" unicode="(" horiz-adv-x="279" 
d="M171 -148c-74.667 132.667 -112 280.667 -112 444c0 172 38.667 320.333 116 445l62 -29c-68 -124 -102 -262.667 -102 -416c0 -143.333 33 -282 99 -416z" />
    <glyph glyph-name="parenright" unicode=")" horiz-adv-x="279" 
d="M45 -120c66 134 99 272.667 99 416c0 153.333 -34 292 -102 416l62 29c77.333 -124.667 116 -273 116 -445c0 -163.333 -37.333 -311.333 -112 -444z" />
    <glyph glyph-name="asterisk" unicode="*" horiz-adv-x="406" 
d="M180 512l-100 -63l-28 48l105 54l-106 56l29 47l100 -62l-4 118h54l-5 -118l102 62l26 -47l-105 -56l105 -54l-26 -48l-100 63l3 -119h-54z" />
    <glyph glyph-name="plus" unicode="+" horiz-adv-x="580" 
d="M252 239h-197v75h197v197h75v-197h197v-75h-197v-196h-75v196z" />
    <glyph glyph-name="comma" unicode="," horiz-adv-x="210" 
d="M63 110h88l-60 -241h-61z" />
    <glyph glyph-name="hyphen" unicode="-" horiz-adv-x="406" 
d="M55 348h296v-80h-296v80z" />
    <glyph glyph-name="period" unicode="." horiz-adv-x="236" 
d="M118 -7c-16.667 0 -30.834 5.66699 -42.501 17s-17.5 25.333 -17.5 42s5.83301 30.667 17.5 42s25.834 17 42.501 17s30.667 -5.66699 42 -17s17 -25.333 17 -42s-5.66699 -30.667 -17 -42s-25.333 -17 -42 -17z" />
    <glyph glyph-name="slash" unicode="/" horiz-adv-x="410" 
d="M-26 -83l385 853l64 -31l-384 -852z" />
    <glyph glyph-name="zero" unicode="0" horiz-adv-x="624" 
d="M312 -6c-76.667 0 -138.833 30.833 -186.5 92.5s-71.5 147.167 -71.5 256.5c0 104 23 188.333 69 253s109 97 189 97c76.667 0 138.834 -30.833 186.501 -92.5s71.5 -147.5 71.5 -257.5c0 -104 -22.833 -188.167 -68.5 -252.5s-108.834 -96.5 -189.501 -96.5zM312.001 72
c54 0 96.167 24.333 126.5 73s45.5 114.667 45.5 198c0 86 -15.667 152.833 -47 200.5s-73 71.5 -125 71.5c-54 0 -96.167 -24.5 -126.5 -73.5s-45.5 -115.167 -45.5 -198.5c0 -85.333 15.833 -151.833 47.5 -199.5s73.167 -71.5 124.5 -71.5z" />
    <glyph glyph-name="one" unicode="1" horiz-adv-x="372" 
d="M198 586l-137 -104l-41 63l192 142h70v-687h-84v586z" />
    <glyph glyph-name="two" unicode="2" horiz-adv-x="516" 
d="M37 58l235.001 240c34.667 35.333 60.667 66.833 78 94.5s26 57.167 26 88.5c0 38 -12 69.5 -36 94.5s-55 37.5 -93 37.5c-65.333 0 -114.333 -31.333 -147 -94l-62 43c43.333 86.667 114.666 130 213.999 130c58 0 107.5 -18.333 148.5 -55s61.5 -85.667 61.5 -147
c0 -38.667 -9.16699 -76 -27.5 -112s-48.5 -75.333 -90.5 -118l-179 -180l1 -3h304v-77h-432z" />
    <glyph glyph-name="three" unicode="3" horiz-adv-x="533" 
d="M261 -6c-56.667 0 -105.667 12.499 -147 37.499s-70.666 57.833 -87.999 98.5l73 33c26.667 -60.667 78.667 -91 156 -91c40.667 0 74.5 11.5 101.5 34.5s40.5 52.833 40.5 89.5c0 35.333 -13 64.833 -39 88.5s-63.333 35.5 -112 35.5h-57v72h67
c41.333 0 72.333 10.667 93 32s31 47.333 31 78c0 33.333 -12.167 60.5 -36.5 81.5s-54.833 31.5 -91.5 31.5c-58.667 0 -103.667 -23 -135 -69l-68 38c18.667 33.333 45.667 59.833 81 79.5s76.666 29.5 123.999 29.5c60.667 0 111 -16.167 151 -48.5
s60 -76.166 60 -131.499c0 -32.667 -8.83301 -63 -26.5 -91s-42.5 -49 -74.5 -63v-3c37.333 -14 66.5 -36 87.5 -66s31.5 -65.333 31.5 -106c0 -56.667 -21 -102.5 -63 -137.5s-95 -52.5 -159 -52.5z" />
    <glyph glyph-name="four" unicode="4" horiz-adv-x="563" 
d="M348 121h-319v60l332 506h71v-490h100v-76h-100v-121h-84v121zM351 195v349l-224 -349h224z" />
    <glyph glyph-name="five" unicode="5" horiz-adv-x="552" 
d="M283 436c63.333 0 116.166 -19.832 158.499 -59.499s63.5 -92.834 63.5 -159.501c0 -66 -22.333 -119.667 -67 -161s-102 -62 -172 -62c-48 0 -92.167 10 -132.5 30s-72.5 48 -96.5 84l63 47c16 -25.333 37.833 -45.5 65.5 -60.5s58.834 -22.5 93.501 -22.5
c47.333 0 85.833 13.667 115.5 41s44.5 62.333 44.5 105c0 44.667 -15.5 80 -46.5 106s-68.5 39 -112.5 39c-48 0 -88.333 -12.667 -121 -38l-49 15l20 347h363v-78h-284l-11 -193c36.667 13.333 71.667 20 105 20z" />
    <glyph glyph-name="six" unicode="6" horiz-adv-x="580" 
d="M318 433c63.333 0 114.834 -19.499 154.501 -58.499s59.5 -92.167 59.5 -159.5c0 -63.333 -22.5 -116 -67.5 -158s-101.833 -63 -170.5 -63c-69.333 0 -126.833 24.833 -172.5 74.5s-68.5 114.5 -68.5 194.5c0 116.667 34.167 215.667 102.5 297
s150.5 130.666 246.5 147.999l25 -71c-67.333 -17.333 -125.833 -48 -175.5 -92s-83.834 -101.667 -102.501 -173c46 40.667 102.333 61 169 61zM299.001 72.001c44 0 79.8311 13.999 107.498 41.999s41.5 62 41.5 102c0 42 -13.667 75.833 -41 101.5
s-63.333 38.5 -108 38.5c-35.333 0 -67.166 -9.16699 -95.499 -27.5s-51.166 -41.166 -68.499 -68.499v-6c0 -53.333 15.833 -97 47.5 -131s70.5 -51 116.5 -51z" />
    <glyph glyph-name="seven" unicode="7" horiz-adv-x="490" 
d="M451 687v-59l-272 -640l-84 17l262 605h-332v77h426z" />
    <glyph glyph-name="eight" unicode="8" horiz-adv-x="572" 
d="M285 -6c-70.667 0 -128.499 18.334 -173.499 55.001s-67.5 83.334 -67.5 140.001c0 44.667 12.167 83 36.5 115s55.833 54.333 94.5 67v2c-26 10 -48.667 28 -68 54s-29 56.333 -29 91c0 54 19.5 96.667 58.5 128s88.5 47 148.5 47c62 0 112.167 -16 150.5 -48
s57.5 -74.333 57.5 -127c0 -34.667 -9.83301 -65.334 -29.5 -92.001s-42.5 -44.334 -68.5 -53.001v-2c39.333 -12 71.166 -34 95.499 -66s36.5 -70.667 36.5 -116c0 -58 -23 -105 -69 -141s-103.667 -54 -173 -54zM285.001 408.001c38 0 68.667 9.33301 92 28
s35 43.667 35 75s-12 57 -36 77s-54.333 30 -91 30c-37.333 0 -67.666 -10.333 -90.999 -31s-35 -46 -35 -76c0 -31.333 11.667 -56.333 35 -75s53.666 -28 90.999 -28zM285.001 70.001c46 0 83.501 12.5 112.501 37.5s43.5 55.167 43.5 90.5
c0 39.333 -14.333 71.166 -43 95.499s-66.334 36.5 -113.001 36.5s-84.167 -12.167 -112.5 -36.5s-42.5 -56.166 -42.5 -95.499c0 -36.667 14.833 -67.167 44.5 -91.5s66.5 -36.5 110.5 -36.5z" />
    <glyph glyph-name="nine" unicode="9" horiz-adv-x="578" 
d="M286 693c68.667 0 125.999 -25 171.999 -75s68.667 -115 68 -195c0 -118 -35.667 -217.5 -107 -298.5s-155 -130.5 -251 -148.5l-25 71c68.667 17.333 128.834 48.333 180.501 93s87.167 103 106.5 175c-47.333 -42 -105.333 -63 -174 -63
c-61.333 0 -111.833 19.667 -151.5 59s-59.5 91.666 -59.5 156.999c0 64.667 22.833 118.334 68.5 161.001s103.167 64 172.5 64zM274.999 330c34 0 66.167 8.49805 96.5 25.498s54.5 39.833 72.5 68.5v6c0 55.333 -14.833 100 -44.5 134s-67.167 51 -112.5 51
c-46.667 0 -84.5 -14.167 -113.5 -42.5s-43.5 -63.166 -43.5 -104.499s13.167 -74.666 39.5 -99.999s61.5 -38 105.5 -38z" />
    <glyph glyph-name="colon" unicode=":" horiz-adv-x="233" 
d="M114 375c-16.667 0 -30.834 5.66699 -42.501 17s-17.5 25.333 -17.5 42s5.83301 30.667 17.5 42s25.834 17 42.501 17s30.667 -5.66699 42 -17s17 -25.333 17 -42s-5.66699 -30.667 -17 -42s-25.333 -17 -42 -17zM114 -7c-16.667 0 -30.834 5.66699 -42.501 17
s-17.5 25.333 -17.5 42s5.83301 30.667 17.5 42s25.834 17 42.501 17s30.667 -5.66699 42 -17s17 -25.333 17 -42s-5.66699 -30.667 -17 -42s-25.333 -17 -42 -17z" />
    <glyph glyph-name="semicolon" unicode=";" horiz-adv-x="222" 
d="M114 375c-16.667 0 -30.834 5.66699 -42.501 17s-17.5 25.333 -17.5 42s5.83301 30.667 17.5 42s25.834 17 42.501 17s30.667 -5.66699 42 -17s17 -25.333 17 -42s-5.66699 -30.667 -17 -42s-25.333 -17 -42 -17zM70 110h88l-60 -241h-61z" />
    <glyph glyph-name="less" unicode="&#x3c;" horiz-adv-x="571" 
d="M58 247v60l449 207v-82l-338 -154l338 -154v-81z" />
    <glyph glyph-name="equal" unicode="=" horiz-adv-x="579" 
d="M62 427h469v-75h-469v75zM62 201h469v-75h-469v75z" />
    <glyph glyph-name="greater" unicode="&#x3e;" horiz-adv-x="570" 
d="M67 124l338 154l-338 154v82l449 -207v-60l-449 -204v81z" />
    <glyph glyph-name="question" unicode="?" horiz-adv-x="447" 
d="M157 261c0 8.66699 0.665039 17 1.99805 25s4.16602 16.167 8.49902 24.5s7.66602 15.166 9.99902 20.499s7.5 12.666 15.5 21.999l16 18.5c2.66699 3 9.33398 10 20.001 21s16.667 17.5 18 19.5c14.667 16.667 26.334 30.667 35.001 42s16.834 26 24.501 44
s11.5 36 11.5 54c0 34 -10.667 60.833 -32 80.5s-48 29.5 -80 29.5c-24 0 -47.333 -6.16699 -70 -18.5s-41 -29.166 -55 -50.499l-61 57c47.333 62 111.333 93 192 93c56 0 102.833 -17 140.5 -51s56.5 -79.333 56.5 -136c0 -36 -8 -68 -24 -96s-38 -56 -66 -84l-25 -24
c-12.667 -12 -21.167 -20.5 -25.5 -25.5s-10.166 -12.167 -17.499 -21.5s-12.5 -17.666 -15.5 -24.999s-4.5 -15 -4.5 -23l-2 -50h-72v54zM194.998 -7c-16.667 0 -30.834 5.66699 -42.501 17s-17.5 25.333 -17.5 42s5.83301 30.667 17.5 42s25.834 17 42.501 17
s30.667 -5.66699 42 -17s17 -25.333 17 -42s-5.66699 -30.667 -17 -42s-25.333 -17 -42 -17z" />
    <glyph glyph-name="at" unicode="@" horiz-adv-x="899" 
d="M417 -140c-107.333 0 -195.832 34.666 -265.499 103.999s-104.5 159.666 -104.5 270.999c0 36.667 4.66699 73.667 14 111s25 74.833 47 112.5s49.167 70.834 81.5 99.501s73.833 52.167 124.5 70.5s107 27.5 169 27.5c110 0 199 -33.5 267 -100.5s102 -153.5 102 -259.5
c0 -25.333 -3.5 -51.666 -10.5 -78.999s-17.833 -54.666 -32.5 -81.999s-36 -49.666 -64 -66.999s-60.667 -26 -98 -26c-44 0 -71.667 17.667 -83 53c-7.33301 10.667 -12 24.667 -14 42h-3c-14.667 -26.667 -35 -47.334 -61 -62.001s-55 -22 -87 -22
c-50 0 -91.167 17.5 -123.5 52.5s-48.5 80.833 -48.5 137.5c0 24 3.83301 48.5 11.5 73.5s19 49.5 34 73.5s36 43.5 63 58.5s57.5 22.5 91.5 22.5c62.667 0 107.667 -28.667 135 -86h2l8 80h83l-27 -270c-0.666992 -8 -1 -17.667 -1 -29c0 -22.667 3.5 -38 10.5 -46
s17.833 -12 32.5 -12c36 0 64.5 20.667 85.5 62s31.5 83 31.5 125c0 87.333 -28.333 159.333 -85 216s-130 85 -220 85c-61.333 0 -116.333 -10.833 -165 -32.5s-87.5 -50.167 -116.5 -85.5s-51 -73.833 -66 -115.5s-22.5 -84.5 -22.5 -128.5
c0 -86.667 28 -160.334 84 -221.001s129.667 -91 221 -91c76.667 0 145.667 17.333 207 52l29 -47c-62.667 -44.667 -141.334 -67 -236.001 -67zM422.001 126.999c42 0 75.333 15.499 100 46.499s37 65.167 37 102.5c0 34.667 -10.167 63.334 -30.5 86.001
s-46.5 34 -78.5 34c-42.667 0 -76.667 -14.333 -102 -43s-38 -62.667 -38 -102c0 -36 10.5 -65.667 31.5 -89s47.833 -35 80.5 -35z" />
    <glyph glyph-name="A" unicode="A" horiz-adv-x="676" 
d="M294 710h87l270 -710h-91l-64 173h-317l-63 -173h-91zM469 249l-131 356h-2l-129 -356h262z" />
    <glyph glyph-name="B" unicode="B" horiz-adv-x="635" 
d="M88 710l232 0.000976562c72 0 128.167 -14.167 168.5 -42.5s60.5 -71.833 60.5 -130.5c0 -36 -9.66699 -68.833 -29 -98.5s-47.333 -50.834 -84 -63.501v-2c44 -8.66699 79.667 -28.5 107 -59.5s41 -71.167 41 -120.5c0 -58.667 -20 -105.5 -60 -140.5
s-99 -52.5 -177 -52.5h-259v710zM321 404.001c40.667 0 74 9.33301 100 28s39 48 39 88c0 74.667 -49.667 112 -149 112l-136 -1v-227h146zM339 79.001c48 0 85.667 10.167 113 30.5s41 50.5 41 90.5c0 40.667 -14.333 72.167 -43 94.5s-70 33.5 -124 33.5h-151v-249h164z
" />
    <glyph glyph-name="C" unicode="C" horiz-adv-x="724" 
d="M411 -5c-100.667 0 -184.834 31.666 -252.501 94.999s-101.5 151 -101.5 263c0 104.667 31.333 191.5 94 260.5s149 103.5 259 103.5c110.667 0 203 -45.333 277 -136l-65 -54c-57.333 71.333 -128 107 -212 107c-79.333 0 -142.833 -26.167 -190.5 -78.5
s-71.5 -119.833 -71.5 -202.5c0 -83.333 24.667 -150.166 74 -200.499s112.333 -75.5 189 -75.5c84.667 0 155.334 35.667 212.001 107l65 -55c-72 -89.333 -164.333 -134 -277 -134z" />
    <glyph glyph-name="D" unicode="D" horiz-adv-x="726" 
d="M88 710h212.001c111.333 0 200.666 -32.833 267.999 -98.5s101 -151.5 101 -257.5s-33 -191.5 -99 -256.5s-155 -97.5 -267 -97.5h-215v710zM298.001 79c85.333 0 153.5 25.5 204.5 76.5s76.5 117.167 76.5 198.5s-25.667 147.833 -77 199.5s-118.333 77.5 -201 77.5
h-126v-552h123z" />
    <glyph glyph-name="E" unicode="E" horiz-adv-x="593" 
d="M88 710h435v-79h-348v-238h285v-79h-285v-235h369v-79h-456v710z" />
    <glyph glyph-name="F" unicode="F" horiz-adv-x="579" 
d="M88 710h453v-79h-366v-250h310v-79h-310v-302h-87v710z" />
    <glyph glyph-name="G" unicode="G" horiz-adv-x="759" 
d="M412 -5c-103.333 0 -188.334 32.665 -255.001 97.998s-100 152.333 -100 261c0 106.667 32.167 193.834 96.5 261.501s149.5 101.5 255.5 101.5c108.667 0 198.667 -37 270 -111l-61 -54c-56.667 54.667 -126.667 82 -210 82c-75.333 0 -137.5 -25.667 -186.5 -77
s-73.5 -119 -73.5 -203c0 -81.333 24.333 -148.166 73 -200.499s112.334 -78.5 191.001 -78.5c74 0 137 19.667 189 59v153h-206v79h293v-281c-70.667 -60 -162.667 -90 -276 -90z" />
    <glyph glyph-name="H" unicode="H" horiz-adv-x="721" 
d="M88 710h87v-333h371v333h87v-710h-87v298h-371v-298h-87v710z" />
    <glyph glyph-name="I" unicode="I" horiz-adv-x="273" 
d="M93 710h87v-710h-87v710z" />
    <glyph glyph-name="J" unicode="J" horiz-adv-x="493" 
d="M217 -5c-33.333 0 -67.168 7.83301 -101.501 23.5s-63.166 38.167 -86.499 67.5l50 64c42 -48 86.667 -72 134 -72c77.333 0 116 51.667 116 155v477h88v-479c0 -157.333 -66.667 -236 -200 -236z" />
    <glyph glyph-name="K" unicode="K" horiz-adv-x="646" 
d="M88 710h87v-389h2l322 389h112l-275 -324l282 -386h-109l-231 318l-103 -121v-197h-87v710z" />
    <glyph glyph-name="L" unicode="L" horiz-adv-x="557" 
d="M88 710h87v-631h351v-79h-438v710z" />
    <glyph glyph-name="M" unicode="M" horiz-adv-x="875" 
d="M88 710h88l261 -459h2l261 459h87v-710h-87v541h-2l-231 -398h-59l-231 398h-1v-541h-88v710z" />
    <glyph glyph-name="N" unicode="N" horiz-adv-x="751" 
d="M88 710h86l401 -565h1v565h87v-710h-89l-397 559h-2v-559h-87v710z" />
    <glyph glyph-name="O" unicode="O" horiz-adv-x="825" 
d="M414 -6c-104 0 -189.499 33.833 -256.499 101.5s-100.5 154.167 -100.5 259.5s33.667 192 101 260s152.666 102 255.999 102c101.333 0 185.666 -33.667 252.999 -101s101 -154.333 101 -261s-33.667 -193.5 -101 -260.5s-151.666 -100.5 -252.999 -100.5zM414.001 76
c74.667 0 137.167 26.168 187.5 78.501s75.5 119.166 75.5 200.499s-25.167 148.333 -75.5 201s-112.833 79 -187.5 79c-76.667 0 -140.167 -26.5 -190.5 -79.5s-75.5 -119.833 -75.5 -200.5c0 -80 25.167 -146.5 75.5 -199.5s113.833 -79.5 190.5 -79.5z" />
    <glyph glyph-name="P" unicode="P" horiz-adv-x="613" 
d="M88 710l248 0.000976562c79.333 0 138.333 -20 177 -60s58 -93.333 58 -160c0 -72.667 -22.5 -127.334 -67.5 -164.001s-105.833 -55 -182.5 -55h-146v-271h-87v710zM313 350.001c56.667 0 98.833 12.833 126.5 38.5s41.5 60.167 41.5 103.5c0 44.667 -13.667 79 -41 103
s-65 36 -113 36h-152v-281h138z" />
    <glyph glyph-name="Q" unicode="Q" horiz-adv-x="842" 
d="M735 -15l-95 86c-64 -51.333 -139.667 -77 -227 -77c-104.667 0 -190.167 34.167 -256.5 102.5s-99.5 154.5 -99.5 258.5s33.167 190.333 99.5 259s151.833 103 256.5 103c101.333 0 185.833 -33.667 253.5 -101s101.5 -154.333 101.5 -261
c0 -88.667 -24.333 -164.667 -73 -228l90 -80zM148 355c0 -80 25.168 -146.5 75.501 -199.5s113.5 -79.5 189.5 -79.5c62 0 116 18.333 162 55l-82 75l49 58l86 -76c32.667 47.333 49 103 49 167c0 80.667 -24.833 147.5 -74.5 200.5s-112.834 79.5 -189.501 79.5
c-76 0 -139.167 -26.667 -189.5 -80s-75.5 -120 -75.5 -200z" />
    <glyph glyph-name="R" unicode="R" horiz-adv-x="642" 
d="M88 710h252c78.667 0 137.5 -20 176.5 -60s58.5 -93.333 58.5 -160c0 -116.667 -59 -187 -177 -211l196 -279h-104l-188 271h-127v-271h-87v710zM316 350c56.667 0 99 12.833 127 38.5s42 60.167 42 103.5c0 44.667 -13.833 79 -41.5 103s-66.167 36 -115.5 36h-153v-281
h141z" />
    <glyph glyph-name="S" unicode="S" horiz-adv-x="580" 
d="M293 -6c-98.667 0 -182.336 36.668 -251.003 110.001l56 67c24.667 -30.667 54.5 -54.334 89.5 -71.001s70.5 -25 106.5 -25c44 0 79.333 9.66699 106 29s40 46 40 80c0 18.667 -3.16699 34.5 -9.5 47.5s-17.166 24.667 -32.499 35s-30.166 18.666 -44.499 24.999
s-34.833 14.5 -61.5 24.5c-4.66699 2 -8.33398 3.33301 -11.001 4c-26 9.33301 -47.167 17.5 -63.5 24.5s-35 16.833 -56 29.5s-37.333 25.667 -49 39s-21.834 30 -30.501 50s-13 42 -13 66c0 52.667 20.833 97.167 62.5 133.5s93.167 54.5 154.5 54.5
c80.667 0 155.334 -27.667 224.001 -83l-53 -69c-58 48 -115 72 -171 72c-35.333 0 -65.166 -9.16699 -89.499 -27.5s-36.833 -43.833 -37.5 -76.5c0 -16.667 3.16699 -31 9.5 -43s17.833 -23.167 34.5 -33.5s31.834 -18.666 45.501 -24.999s34.5 -14.833 62.5 -25.5
c72 -28.667 119 -50 141 -64c52.667 -34.667 79 -84 79 -148c0 -62 -23.167 -110.833 -69.5 -146.5s-102.5 -53.5 -168.5 -53.5z" />
    <glyph glyph-name="T" unicode="T" horiz-adv-x="573" 
d="M242 631h-212v79h514v-79h-215v-631h-87v631z" />
    <glyph glyph-name="U" unicode="U" horiz-adv-x="706" 
d="M353 -6c-82.667 0 -149.166 26.168 -199.499 78.501s-75.5 124.5 -75.5 216.5v421h87v-415c0 -66 17 -119 51 -159s79.667 -60 137 -60c56 0 101.5 19.667 136.5 59s52.5 92.666 52.5 159.999v415h87v-421c0 -90.667 -24.833 -162.5 -74.5 -215.5
s-116.834 -79.5 -201.501 -79.5z" />
    <glyph glyph-name="V" unicode="V" horiz-adv-x="670" 
d="M30 710h94l213 -584h1l213 584h93l-268 -710h-78z" />
    <glyph glyph-name="W" unicode="W" horiz-adv-x="1020" 
d="M33 710h93l175 -569h2l160 569h95l159 -568h2l176 568h92l-227 -710h-84l-164 583h-2l-167 -583h-84z" />
    <glyph glyph-name="X" unicode="X" horiz-adv-x="663" 
d="M274 355l-238 355h101l195 -287h1l194 287h101l-239 -355l242 -355h-103l-196 286h-2l-196 -286h-101z" />
    <glyph glyph-name="Y" unicode="Y" horiz-adv-x="601" 
d="M256 317l-241 393h100l184 -305h2l183 305h102l-243 -393v-317h-87v317z" />
    <glyph glyph-name="Z" unicode="Z" horiz-adv-x="613" 
d="M57 69l378 561l-1 1h-358v79h473v-69l-381 -560l1 -2h384v-79h-496v69z" />
    <glyph glyph-name="bracketleft" unicode="[" horiz-adv-x="307" 
d="M67 729h195v-63h-123v-747h123v-64h-195v874z" />
    <glyph glyph-name="backslash" unicode="\" horiz-adv-x="416" 
d="M-9 739l64 31l385 -853l-65 -30z" />
    <glyph glyph-name="bracketright" unicode="]" horiz-adv-x="307" 
d="M45 -145v64h123v747h-123v63h195v-874h-195z" />
    <glyph glyph-name="underscore" unicode="_" horiz-adv-x="523" 
d="M-4 -27h531v-58h-531v58z" />
    <glyph glyph-name="grave" unicode="`" horiz-adv-x="505" 
d="M135 680l92 -1l111 -137h-82z" />
    <glyph glyph-name="a" unicode="a" horiz-adv-x="604" 
d="M281 -6c-68 0 -124.501 22.8311 -169.501 68.498s-67.5 104.834 -67.5 177.501s22.333 133 67 181s101.334 72 170.001 72c36 0 69 -8.16699 99 -24.5s53.667 -39.166 71 -68.499l2 1v86h81v-487h-78v88h-1c-38 -62.667 -96 -94 -174 -94zM292.999 67.998
c46 0 84.667 16 116 48s47 73.333 47 124s-15.333 93.167 -46 127.5s-69.667 51.5 -117 51.5s-87 -16.667 -119 -50s-48 -76.333 -48 -129c0 -49.333 15.5 -90.333 46.5 -123s71.167 -49 120.5 -49z" />
    <glyph glyph-name="b" unicode="b" horiz-adv-x="614" 
d="M331 -6c-78.667 0 -137.335 31.334 -176.002 94.001h-2v-88h-77v736h81v-334h1c38.667 60.667 96.334 91 173.001 91c68.667 0 125.334 -24 170.001 -72s67 -108.333 67 -181s-22.5 -131.834 -67.5 -177.501s-101.5 -68.5 -169.5 -68.5zM319.999 68.001
c48.667 0 88.5 16.333 119.5 49s46.5 73.667 46.5 123c0 52.667 -16 95.667 -48 129s-71.667 50 -119 50c-48.667 0 -88.5 -17.167 -119.5 -51.5s-46.5 -76.833 -46.5 -127.5s16 -92 48 -124s71.667 -48 119 -48z" />
    <glyph glyph-name="c" unicode="c" horiz-adv-x="521" 
d="M288 -6c-71.333 0 -129.667 23 -175 69s-68 106 -68 180c0 73.333 22.833 133.333 68.5 180s104.834 70 177.501 70c37.333 0 73.5 -7.5 108.5 -22.5s64.167 -36.5 87.5 -64.5l-55 -49c-35.333 41.333 -81 62 -137 62c-50 0 -90.333 -16.333 -121 -49s-46 -75 -46 -127
s15.333 -94.167 46 -126.5s70.667 -48.5 120 -48.5c59.333 0 105.666 20.667 138.999 62l56 -51c-47.333 -56.667 -114.333 -85 -201 -85z" />
    <glyph glyph-name="d" unicode="d" horiz-adv-x="613" 
d="M283 -6c-68.667 0 -125.667 22.832 -171 68.499s-68 104.834 -68 177.501c0 72 22.667 132.167 68 180.5s102 72.5 170 72.5c77.333 0 135.333 -31 174 -93h1v336h81v-736h-78v90h-1c-38 -64 -96.667 -96 -176 -96zM294 67.999c46.667 0 85.999 16 117.999 48
s48 73.333 48 124s-15.5 93.167 -46.5 127.5s-70.5 51.5 -118.5 51.5c-47.333 0 -87.166 -16.667 -119.499 -50s-48.5 -76.333 -48.5 -129c0 -49.333 15.5 -90.333 46.5 -123s71.167 -49 120.5 -49z" />
    <glyph glyph-name="e" unicode="e" horiz-adv-x="552" 
d="M509 252c0 -4.66699 -0.332031 -11 -0.999023 -19s-1 -12.667 -1 -14h-380c5.33301 -46 23 -82.667 53 -110s68 -41 114 -41c58.667 0 105.667 21.667 141 65l57 -48c-47.333 -60.667 -114.333 -91 -201 -91c-72.667 0 -131.834 23 -177.501 69s-68.5 106 -68.5 180
c0 73.333 22.5 133.333 67.5 180s102.5 70 172.5 70c66 0 119.833 -22.667 161.5 -68s62.5 -103 62.5 -173zM284.001 419c-39.333 0 -73.1689 -12 -101.502 -36s-46.166 -56.667 -53.499 -98h299c-6 40.667 -21.667 73.167 -47 97.5s-57.666 36.5 -96.999 36.5z" />
    <glyph glyph-name="f" unicode="f" horiz-adv-x="332" 
d="M96 417h-59.001v70h59v99c0 51.333 11.833 90.333 35.5 117s57.5 40 101.5 40c41.333 0 79 -10.667 113 -32l-18 -69c-33.333 17.333 -61.666 26 -84.999 26c-44 0 -66 -30 -66 -90v-91h138v-70h-138v-417h-81v417z" />
    <glyph glyph-name="g" unicode="g" horiz-adv-x="600" 
d="M291 -204c-73.333 0 -139.334 17.667 -198.001 53l20 72c59.333 -34 117.666 -51 174.999 -51c52.667 0 93 13.5 121 40.5s42 62.167 42 105.5v78h-2c-39.333 -56.667 -95.666 -85 -168.999 -85c-67.333 0 -123.5 22.333 -168.5 67s-67.5 102.667 -67.5 174
c0 70 21.833 128 65.5 174s99.5 69 167.5 69c72.667 0 129.667 -28 171 -84h2v78h81v-451c0 -74 -19.667 -132.5 -59 -175.5s-99.666 -64.5 -180.999 -64.5zM289.999 84c48.667 0 88.001 16.001 118.001 48.001s45 72.667 45 122c0 48 -15.5 87.333 -46.5 118
s-69.5 46 -115.5 46c-48.667 0 -88.334 -15.667 -119.001 -47s-46 -71 -46 -119c0 -50.667 15.5 -91.334 46.5 -122.001s70.167 -46 117.5 -46z" />
    <glyph glyph-name="h" unicode="h" horiz-adv-x="581" 
d="M76 736h80.999v-334h1c40 60.667 100 91 180 91c54.667 0 97.834 -16.667 129.501 -50s47.5 -83.666 47.5 -150.999v-292h-81v269c0 100 -40 150 -120 150c-48.667 0 -87 -15.333 -115 -46s-42 -73.334 -42 -128.001v-245h-81v736z" />
    <glyph glyph-name="i" unicode="i" horiz-adv-x="245" 
d="M123 576c-16.667 0 -30.667 5.66699 -42 17s-17 25 -17 41s5.66699 29.667 17 41s25.333 17 42 17s30.667 -5.66699 42 -17s17 -25 17 -41s-5.66699 -29.667 -17 -41s-25.333 -17 -42 -17zM82 487h81v-487h-81v487z" />
    <glyph glyph-name="j" unicode="j" horiz-adv-x="224" 
d="M114 576c-16.667 0 -30.667 5.66699 -42 17s-17 25 -17 41s5.66699 29.667 17 41s25.333 17 42 17s30.667 -5.66699 42 -17s17 -25 17 -41s-5.66699 -29.667 -17 -41s-25.333 -17 -42 -17zM32 -204c-30.667 0 -58.666 5.33203 -83.999 15.999l13 72
c16 -10 34.333 -15 55 -15c38.667 0 58 26.667 58 80v538h81v-538c0 -47.333 -10.833 -84.666 -32.5 -111.999s-51.834 -41 -90.501 -41z" />
    <glyph glyph-name="k" unicode="k" horiz-adv-x="517" 
d="M76 736h81v-515l1 -1l239 267h98l-182 -201l184 -286h-93l-147 229l-100 -108v-121h-81v736z" />
    <glyph glyph-name="l" unicode="l" horiz-adv-x="245" 
d="M82 736h81v-736h-81v736z" />
    <glyph glyph-name="m" unicode="m" horiz-adv-x="885" 
d="M76 487l80.998 -0.00292969v-88h1c18.667 29.333 42.334 52.333 71.001 69s59.334 25 92.001 25c74.667 0 125 -34.667 151 -104h1c18.667 32.667 43.667 58.167 75 76.5s66 27.5 104 27.5c54 0 95.5 -18.167 124.5 -54.5s43.5 -89.166 43.5 -158.499v-280h-81v258
c0 107.333 -37 161 -111 161c-39.333 0 -72 -16.167 -98 -48.5s-39 -75.166 -39 -128.499v-242h-81v258c0 52 -9.66699 91.833 -29 119.5s-47.333 41.5 -84 41.5c-40.667 0 -74.167 -16.167 -100.5 -48.5s-39.5 -75.166 -39.5 -128.499v-242h-81v487z" />
    <glyph glyph-name="n" unicode="n" horiz-adv-x="576" 
d="M76 487l81 -0.000976562v-88h1c40.667 62.667 99.667 94 177 94c54 0 96.667 -17.167 128 -51.5s47 -85.166 47 -152.499v-289h-81v266c0 102 -40 153 -120 153c-46.667 0 -83.667 -15.667 -111 -47s-41 -74.333 -41 -129v-243h-81v487z" />
    <glyph glyph-name="o" unicode="o" horiz-adv-x="593" 
d="M297 -6c-74.667 0 -135.334 23.667 -182.001 71s-70 106.666 -70 177.999s23.333 130.833 70 178.5s107.334 71.5 182.001 71.5c72.667 0 132.667 -23.333 180 -70s71 -106.667 71 -180s-23.667 -133.166 -71 -179.499s-107.333 -69.5 -180 -69.5zM297 68
c47.333 0 87.166 16.333 119.499 49s48.5 74.667 48.5 126s-16.167 93.5 -48.5 126.5s-72.166 49.5 -119.499 49.5c-50 0 -90.667 -17 -122 -51s-47 -75.667 -47 -125s15.833 -90.833 47.5 -124.5s72.167 -50.5 121.5 -50.5z" />
    <glyph glyph-name="p" unicode="p" horiz-adv-x="614" 
d="M76 487l81 0.000976562v-86h1c39.333 61.333 97 92 173 92c68.667 0 125.334 -24 170.001 -72s67 -108.333 67 -181s-22.5 -131.834 -67.5 -177.501s-101.5 -68.5 -169.5 -68.5c-76.667 0 -134.334 30 -173.001 90h-1v-282h-81v685zM320 68.001
c48.667 0 88.5 16.333 119.5 49s46.5 73.667 46.5 123c0 52.667 -16 95.667 -48 129s-71.667 50 -119 50c-48.667 0 -88.5 -17.167 -119.5 -51.5s-46.5 -76.833 -46.5 -127.5s16 -92 48 -124s71.667 -48 119 -48z" />
    <glyph glyph-name="q" unicode="q" horiz-adv-x="611" 
d="M458 84l-1.00098 -0.000976562c-38.667 -60 -96.667 -90 -174 -90c-68 0 -124.5 22.833 -169.5 68.5s-67.5 104.834 -67.5 177.501s22.333 133 67 181s101.334 72 170.001 72c77.333 0 135.333 -31 174 -93h1v87h81v-685h-81v282zM294.999 67.999
c46.667 0 85.833 16 117.5 48s47.5 73.333 47.5 124s-15.5 93.167 -46.5 127.5s-70.5 51.5 -118.5 51.5c-47.333 0 -87 -16.5 -119 -49.5s-48 -76.167 -48 -129.5c0 -49.333 15.5 -90.333 46.5 -123s71.167 -49 120.5 -49z" />
    <glyph glyph-name="r" unicode="r" horiz-adv-x="353" 
d="M76 487h80.999v-89h2c37.333 63.333 90 95 158 95c8.66699 0 15.334 -0.333008 20.001 -1v-90c-16 1.33301 -26.667 2 -32 2c-45.333 0 -81.333 -15.667 -108 -47s-40 -72 -40 -122v-235h-81v487z" />
    <glyph glyph-name="s" unicode="s" horiz-adv-x="437" 
d="M223 -6c-74 0 -137.333 23.0039 -190 69.0039l41 62c40.667 -39.333 90.334 -59 149.001 -59c28.667 0 51.334 6.16699 68.001 18.5s25 28.166 25 47.499c0 22 -15 40 -45 54c-8 3.33301 -31.667 12.333 -71 27c-23.333 8 -42.333 15.667 -57 23
s-29.5 16.666 -44.5 27.999s-26.167 25.166 -33.5 41.499s-11 35.166 -11 56.499c0 37.333 15.167 68.5 45.5 93.5s68.5 37.5 114.5 37.5c62.667 0 118.667 -20 168 -60l-42 -64c-37.333 34.667 -80.333 52 -129 52c-20 0 -37.5 -5.33301 -52.5 -16s-22.5 -25 -22.5 -43
c0 -17.333 7.66699 -31.5 23 -42.5s38.333 -22.167 69 -33.5c63.333 -24.667 102.666 -41.667 117.999 -51c35.333 -23.333 52.666 -57.333 51.999 -102c0 -40 -15.167 -73.167 -45.5 -99.5s-73.5 -39.5 -129.5 -39.5z" />
    <glyph glyph-name="t" unicode="t" horiz-adv-x="361" 
d="M213 -6c-84 0 -126.001 50.334 -126.001 151.001v272h-63v70h63v166l81 9v-175h161v-70h-161v-260c0 -30.667 4.33301 -52.834 13 -66.501s24 -20.5 46 -20.5c24.667 0 52.334 8.33301 83.001 25l21 -71c-34 -20 -73.333 -30 -118 -30z" />
    <glyph glyph-name="u" unicode="u" horiz-adv-x="562" 
d="M248 -6c-58 0 -103 16.834 -135 50.501s-48 84.5 -48 152.5v290h81v-267c0 -53.333 9.83301 -92 29.5 -116s49.5 -36 89.5 -36c40.667 0 75 16.5 103 49.5s42 77.5 42 133.5v236h81v-487h-81v84h-1c-18 -28.667 -41.167 -50.834 -69.5 -66.501s-58.833 -23.5 -91.5 -23.5
z" />
    <glyph glyph-name="v" unicode="v" horiz-adv-x="520" 
d="M23 487h88l149 -384h1l149 384h87l-198 -487h-78z" />
    <glyph glyph-name="w" unicode="w" horiz-adv-x="764" 
d="M27 487h83l123 -366h2l112 366h70l114 -366h2l122 366h83l-168 -487h-76l-112 357h-1l-112 -357h-74z" />
    <glyph glyph-name="x" unicode="x" horiz-adv-x="506" 
d="M206 247l-177 240h96l126 -178h2l128 178h95l-176 -241l178 -246h-92l-132 177h-1l-133 -177h-91z" />
    <glyph glyph-name="y" unicode="y" horiz-adv-x="525" 
d="M229 19l-207 468h88l158 -370h2l147 370h85l-276 -685h-84z" />
    <glyph glyph-name="z" unicode="z" horiz-adv-x="471" 
d="M36 59l283 355l-1 3h-267v70h379v-58l-284 -358l1 -1h283v-70h-394v59z" />
    <glyph glyph-name="braceleft" unicode="{" horiz-adv-x="333" 
d="M232 -144c-30.667 0 -56.168 10.1709 -76.501 30.5039s-30.5 47.166 -30.5 80.499v214c0 12 -0.666992 21.167 -2 27.5s-4.33301 13.666 -9 21.999s-12.667 14.5 -24 18.5s-26.333 6.33301 -45 7v64c18.667 1.33301 33.667 4.33301 45 9s19.333 11.167 24 19.5
s7.66699 15.666 9 21.999s2 15.166 2 26.499v221c0 31.333 9.66699 57.666 29 78.999s45.333 32 78 32h53v-57h-25c-20.667 0 -36.667 -6.66699 -48 -20s-17 -29.333 -17 -48v-215c0 -29.333 -4.16699 -51.666 -12.5 -66.999s-23.166 -26 -44.499 -32v-2
c22 -6 37 -15.833 45 -29.5s12 -37.167 12 -70.5v-196c0 -27.333 5 -47.333 15 -60s26.667 -19 50 -19h25v-57h-53z" />
    <glyph glyph-name="braceright" unicode="}" horiz-adv-x="333" 
d="M48 -144l-0.000976562 56.9961h25c23.333 0 40 6.33301 50 19s15 32.667 15 60v196c0 33.333 4 56.833 12 70.5s23 23.5 45 29.5v2c-21.333 6 -36.166 16.667 -44.499 32s-12.5 37.666 -12.5 66.999v215c0 18.667 -5.66699 34.667 -17 48s-27.333 20 -48 20h-25v57h53
c32.667 0 58.667 -10.667 78 -32s29 -47.666 29 -78.999v-221c0 -11.333 0.666992 -20.166 2 -26.499s4.33301 -13.666 9 -21.999s12.667 -14.833 24 -19.5s26.333 -7.66699 45 -9v-64c-18.667 -0.666992 -33.667 -3 -45 -7s-19.333 -10.167 -24 -18.5
s-7.66699 -15.666 -9 -21.999s-2 -15.5 -2 -27.5v-214c0 -33.333 -10.167 -60.166 -30.5 -80.499s-45.833 -30.5 -76.5 -30.5h-53z" />
    <glyph glyph-name="exclamdown" unicode="&#xa1;" horiz-adv-x="242" 
d="M121 493c16.667 0 30.667 -5.66699 42 -17s17 -25.333 17 -42s-5.66699 -30.667 -17 -42s-25.333 -17 -42 -17s-30.834 5.66699 -42.501 17s-17.5 25.333 -17.5 42s5.83301 30.667 17.5 42s25.834 17 42.501 17zM154 277l15 -527h-93l15 527h63z" />
    <glyph glyph-name="cent" unicode="&#xa2;" horiz-adv-x="541" 
d="M505 130c-42 -45.333 -99.334 -72 -172.001 -80v-103h-61v102c-66.667 6 -120.5 31.667 -161.5 77s-61.5 102.333 -61.5 171c0 68 20.5 124.667 61.5 170s94.833 71.333 161.5 78v106h61v-106c71.333 -6.66699 128 -35 170 -85l-56 -48
c-37.333 40.667 -84.666 61 -141.999 61c-51.333 0 -93 -16.333 -125 -49s-48 -74.667 -48 -126c0 -52 16 -94.333 48 -127s73.667 -49 125 -49c58.667 0 106.667 19.667 144 59z" />
    <glyph glyph-name="sterling" unicode="&#xa3;" horiz-adv-x="560" 
d="M45 79l79.001 0.000976562v255h-63v62h63v68c0 77.333 18.667 134.666 56 171.999s84.666 56 141.999 56c79.333 0 141.333 -32.333 186 -97l-46 -59c-32.667 50 -76 75 -130 75c-81.333 0 -122 -52 -122 -156v-59h168v-62h-167v-255h323v-79h-489v79z" />
    <glyph glyph-name="currency" unicode="&#xa4;" horiz-adv-x="502" 
d="M433 386c0 -40 -12 -76.333 -36 -109l77 -77l-39 -40l-78 78c-32 -23.333 -68.333 -35 -109 -35s-76.667 12 -108 36l-78 -78l-39 40l78 78c-23.333 32 -35 67.667 -35 107c0 40 11.667 76 35 108l-78 79l39 39l78 -78c34 24 70.333 36 109 36
c39.333 0 75.333 -12 108 -36l78 79l40 -40l-78 -78c24 -34 36 -70.333 36 -109zM249 264c34 0 63 12.168 87 36.501s36 53.166 36 86.499c0 34 -12 63.167 -36 87.5s-53 36.5 -87 36.5c-33.333 -0.666992 -62.166 -13 -86.499 -37s-36.5 -52.667 -36.5 -86
c0 -34 12.167 -63.167 36.5 -87.5s53.166 -36.5 86.499 -36.5z" />
    <glyph glyph-name="section" unicode="&#xa7;" horiz-adv-x="535" 
d="M398 129c44 -28 65.9971 -67.665 65.9971 -118.998c0 -48.667 -17.667 -88 -53 -118s-82.666 -45 -141.999 -45c-84.667 0 -155.667 30.667 -213 92l50 60c22 -24.667 47.333 -43.334 76 -56.001s57 -19 85 -19c30.667 0 56.334 7.66699 77.001 23s31 36 31 62
c0 24.667 -9.16699 43.5 -27.5 56.5s-50.166 27.833 -95.499 44.5c-33.333 12 -59 22.167 -77 30.5s-37.833 19.333 -59.5 33s-37.167 29.167 -46.5 46.5s-14 37.333 -14 60c0 62 28.667 106 86 132c-41.333 29.333 -62 68 -62 116c0 45.333 16.667 83 50 113
s77.333 45 132 45c32.667 0 66.5 -6.5 101.5 -19.5s65.5 -30.167 91.5 -51.5l-49 -59c-46 34.667 -92.667 52 -140 52c-27.333 0 -50.5 -7 -69.5 -21s-28.5 -33 -28.5 -57c0 -13.333 2.5 -24.833 7.5 -34.5s13.667 -18.334 26 -26.001s24 -14 35 -19
s27.167 -11.5 48.5 -19.5c70.667 -28 115 -47.667 133 -59c42.667 -27.333 64 -66 64 -116c0 -56 -27.667 -98.333 -83 -127zM137.997 294.002c0 -24.667 10.332 -44.333 30.999 -59s56.334 -31.667 107.001 -51l49 -19c22.667 5.33301 40.5 15.333 53.5 30s19.5 32 19.5 52
c0 26 -9.5 45.5 -28.5 58.5s-55.167 29.5 -108.5 49.5l-46 18c-23.333 -4 -42 -13.167 -56 -27.5s-21 -31.5 -21 -51.5z" />
    <glyph glyph-name="dieresis" unicode="&#xa8;" horiz-adv-x="509" 
d="M164 561c-16.667 0 -30.5 5.66504 -41.5 16.998s-16.5 25 -16.5 41c0 15.333 5.5 28.5 16.5 39.5s24.833 16.5 41.5 16.5c16 0 29.667 -5.66699 41 -17s17 -24.666 17 -39.999s-5.66699 -28.666 -17 -39.999s-25 -17 -41 -17zM345 560.998
c-16 0 -29.667 5.66504 -41 16.998s-17 25 -17 41c0 15.333 5.66699 28.5 17 39.5s25 16.5 41 16.5s29.667 -5.66699 41 -17s17 -24.666 17 -39.999s-5.66699 -28.666 -17 -39.999s-25 -17 -41 -17z" />
    <glyph glyph-name="copyright" unicode="&#xa9;" horiz-adv-x="698" 
d="M349 12c-84.667 0 -156.501 30.168 -215.501 90.501s-88.5 132.166 -88.5 215.499s29.667 155.166 89 215.499s131.333 90.5 216 90.5s156.334 -30 215.001 -90s88 -132 88 -216c0 -83.333 -29.5 -155.166 -88.5 -215.499s-130.833 -90.5 -215.5 -90.5zM348.999 69.001
c68.667 0 126.832 24.499 174.499 73.499s71.5 107.5 71.5 175.5c0 68.667 -23.667 127.334 -71 176.001s-105.333 73 -174 73c-69.333 0 -127.833 -24.5 -175.5 -73.5s-71.5 -107.833 -71.5 -176.5c0 -68 23.833 -126.333 71.5 -175s105.834 -73 174.501 -73zM355.997 153
c-46.667 0 -85.333 14.333 -116 43s-46 68.667 -46 120c0 47.333 14.333 86.5 43 117.5s68.334 46.5 119.001 46.5c51.333 0 94 -20.667 128 -62l-39 -33c-23.333 30 -53 45 -89 45c-32.667 0 -58.834 -10.5 -78.501 -31.5s-29.5 -48.5 -29.5 -82.5c0 -34.667 10 -62 30 -82
s46 -30 78 -30c37.333 0 67 14.333 89 43l39 -33c-33.333 -40.667 -76 -61 -128 -61z" />
    <glyph glyph-name="ordfeminine" unicode="&#xaa;" horiz-adv-x="417" 
d="M185 390c-42.667 0 -77.501 13.832 -104.501 41.499s-40.5 63.834 -40.5 108.501c0 43.333 13.167 79.333 39.5 108s60.5 43 102.5 43c44 0 80.667 -17.667 110 -53h1v49h59v-292h-59v44h-2c-25.333 -32.667 -60.666 -49 -105.999 -49zM197.999 446.999
c26.667 0 49 8.50098 67 25.501s27 39.5 27 67.5c0 26.667 -8.83301 49.167 -26.5 67.5s-40.167 27.5 -67.5 27.5s-50.333 -9 -69 -27s-28 -40.667 -28 -68c0 -26.667 9.16699 -48.834 27.5 -66.501s41.5 -26.5 69.5 -26.5z" />
    <glyph glyph-name="guillemotleft" unicode="&#xab;" horiz-adv-x="471" 
d="M164 26l-124 219l125 221h80l-124 -221l124 -219h-81zM341 26l-125 219l126 221h81l-126 -221l125 -219h-81z" />
    <glyph glyph-name="registered" unicode="&#xae;" horiz-adv-x="698" 
d="M350 624c84.667 0 156.333 -29.999 215 -89.999s88 -132 88 -216c0 -83.333 -29.5 -155.166 -88.5 -215.499s-130.833 -90.5 -215.5 -90.5s-156.5 30.167 -215.5 90.5s-88.5 132.166 -88.5 215.499s29.667 155.166 89 215.499s131.333 90.5 216 90.5zM348.999 69.001
c68.667 0 126.832 24.499 174.499 73.499s71.5 107.5 71.5 175.5c0 68.667 -23.667 127.334 -71 176.001s-105.333 73 -174 73c-69.333 0 -127.833 -24.5 -175.5 -73.5s-71.5 -107.833 -71.5 -176.5c0 -68 23.833 -126.333 71.5 -175s105.834 -73 174.501 -73zM468.997 380
c0 -52 -23.667 -84.332 -71 -96.999l86 -125h-61l-81 120h-47v-120h-51v324h117c36 0 63 -9.33301 81 -28s27 -43.334 27 -74.001zM294.997 325.001h54c22.667 0 39.5 5.16699 50.5 15.5s16.5 23.833 16.5 40.5c0 16 -5.5 28.833 -16.5 38.5s-26.5 14.5 -46.5 14.5h-58v-109
z" />
    <glyph glyph-name="macron" unicode="&#xaf;" horiz-adv-x="457" 
d="M85 649h288v-69h-288v69z" />
    <glyph glyph-name="degree" unicode="&#xb0;" horiz-adv-x="390" 
d="M195 445c-38 0 -70.6689 13.3311 -98.002 39.998s-41 58.334 -41 95.001c0 37.333 14 69.5 42 96.5s60.333 40.5 97 40.5s68.834 -13.667 96.501 -41s41.5 -59.666 41.5 -96.999c0 -36.667 -13.667 -68.167 -41 -94.5s-59.666 -39.5 -96.999 -39.5zM194.998 500.998
c22 0 40.9971 7.66699 56.9971 23s24 34 24 56s-8.16699 41 -24.5 57s-35.166 24 -56.499 24s-40.166 -8 -56.499 -24s-24.5 -35 -24.5 -57s7.83301 -40.667 23.5 -56s34.834 -23 57.501 -23z" />
    <glyph glyph-name="plusminus" unicode="&#xb1;" horiz-adv-x="586" 
d="M255 356h-197v75h197v197h75v-197h197v-75h-197v-196h-75v196zM58 75h469v-75h-469v75z" />
    <glyph glyph-name="acute" unicode="&#xb4;" horiz-adv-x="505" 
d="M282 682l91 1l-124 -142h-85z" />
    <glyph glyph-name="paragraph" unicode="&#xb6;" horiz-adv-x="468" 
d="M324 596l-62 0.000976562v-596h-54v351c-48.667 2 -88 16 -118 42s-45 61.667 -45 107c0 47.333 15.333 84.666 46 111.999s73 41 127 41h159v-803h-53v746z" />
    <glyph glyph-name="periodcentered" unicode="&#xb7;" horiz-adv-x="232" 
d="M117 184c-16.667 0 -30.834 5.66699 -42.501 17s-17.5 25.333 -17.5 42s5.83301 30.667 17.5 42s25.834 17 42.501 17s30.667 -5.66699 42 -17s17 -25.333 17 -42s-5.66699 -30.667 -17 -42s-25.333 -17 -42 -17z" />
    <glyph glyph-name="cedilla" unicode="&#xb8;" horiz-adv-x="385" 
d="M167 -188c-17.333 0 -36 2 -56 6v44c14 -4.66699 30 -7 48 -7c15.333 0 28.5 3.16699 39.5 9.5s16.5 15.5 16.5 27.5s-7.16699 22 -21.5 30s-34.833 12 -61.5 12l1 30l19 42h51l-17 -37v-2c26.667 -1.33301 48 -8.83301 64 -22.5s24 -32.5 24 -56.5
c0 -22.667 -9 -41 -27 -55s-44.667 -21 -80 -21z" />
    <glyph glyph-name="ordmasculine" unicode="&#xba;" horiz-adv-x="397" 
d="M195 390c-46 0 -83.333 14.166 -112 42.499s-43 64.5 -43 108.5c0 42.667 14.5 78.334 43.5 107.001s66.167 43 111.5 43c44.667 0 81.667 -14 111 -42s44 -64 44 -108c0 -44.667 -14.667 -81 -44 -109s-66.333 -42 -111 -42zM195 445.999c26 0 47.667 8.83301 65 26.5
s26 40.5 26 68.5c0 27.333 -8.66699 50 -26 68s-39 27 -65 27c-27.333 0 -49.333 -9 -66 -27s-25 -40.667 -25 -68s8.33301 -50 25 -68s38.667 -27 66 -27z" />
    <glyph glyph-name="guillemotright" unicode="&#xbb;" horiz-adv-x="471" 
d="M174 245l-126 221h81l126 -221l-125 -219h-81zM350 245l-124 221h80l125 -221l-124 -219h-81z" />
    <glyph glyph-name="questiondown" unicode="&#xbf;" horiz-adv-x="421" 
d="M252 493c16.667 0 30.834 -5.66699 42.501 -17s17.5 -25.333 17.5 -42s-5.83301 -30.667 -17.5 -42s-25.834 -17 -42.501 -17s-30.667 5.66699 -42 17s-17 25.333 -17 42s5.66699 30.667 17 42s25.333 17 42 17zM290 225c0 -8.66699 -0.665039 -17 -1.99805 -25
s-4.16602 -16.167 -8.49902 -24.5s-7.66602 -15.166 -9.99902 -20.499s-7.5 -12.666 -15.5 -21.999l-16 -18.5c-2.66699 -3 -9.33398 -10 -20.001 -21s-16.667 -17.5 -18 -19.5c-14.667 -16.667 -26.334 -30.667 -35.001 -42s-16.834 -26 -24.501 -44s-11.5 -36 -11.5 -54
c0 -34 10.667 -60.833 32 -80.5s48 -29.5 80 -29.5c24 0 47.333 6.16699 70 18.5s41 29.166 55 50.499l61 -57c-47.333 -62 -111.333 -93 -192 -93c-56 0 -102.833 17 -140.5 51s-56.5 79.333 -56.5 136c0 36 8 68 24 96s38 56 66 84l25 24c12.667 12 21.167 20.5 25.5 25.5
s10.166 12.167 17.499 21.5s12.5 17.666 15.5 24.999s4.5 15 4.5 23l2 50h72v-54z" />
    <glyph glyph-name="Agrave" unicode="&#xc0;" horiz-adv-x="676" 
d="M182 911h92l112 -129h-82zM294 710h87l270 -710h-91l-64 173h-317l-63 -173h-91zM469 249l-131 356h-2l-129 -356h262z" />
    <glyph glyph-name="Aacute" unicode="&#xc1;" horiz-adv-x="676" 
d="M408 911h93l-122 -129h-83zM294 710h87l270 -710h-91l-64 173h-317l-63 -173h-91zM469 249l-131 356h-2l-129 -356h262z" />
    <glyph glyph-name="Acircumflex" unicode="&#xc2;" horiz-adv-x="676" 
d="M296 906h85l113 -124h-81l-74 78h-2l-74 -78h-83zM294 710h87l270 -710h-91l-64 173h-317l-63 -173h-91zM469 249l-131 356h-2l-129 -356h262z" />
    <glyph glyph-name="Atilde" unicode="&#xc3;" horiz-adv-x="676" 
d="M416 782c-23.333 0 -51.6689 11.001 -85.002 33.001c-27.333 16.667 -48.333 25 -63 25c-23.333 0 -42.666 -18.333 -57.999 -55l-52 22c21.333 62.667 56 94 104 94c24 0 52.333 -10 85 -30c2.66699 -1.33301 6.83398 -3.83301 12.501 -7.5s10 -6.33398 13 -8.00098
s7 -3.66699 12 -6s9.5 -4 13.5 -5s8.33301 -1.5 13 -1.5c22.667 0 40.667 18.333 54 55l52 -17c-20 -66 -53.667 -99 -101 -99zM293.997 710.001h87l270 -710h-91l-64 173h-317l-63 -173h-91zM468.997 249.001l-131 356h-2l-129 -356h262z" />
    <glyph glyph-name="Adieresis" unicode="&#xc4;" horiz-adv-x="676" 
d="M248 793c-16.667 0 -30.5 5.66504 -41.5 16.998s-16.5 25 -16.5 41c0 15.333 5.5 28.5 16.5 39.5s24.833 16.5 41.5 16.5c16 0 29.667 -5.66699 41 -17s17 -24.666 17 -39.999s-5.66699 -28.666 -17 -39.999s-25 -17 -41 -17zM429 792.998
c-16 0 -29.667 5.66504 -41 16.998s-17 25 -17 41c0 15.333 5.66699 28.5 17 39.5s25 16.5 41 16.5s29.667 -5.66699 41 -17s17 -24.666 17 -39.999s-5.66699 -28.666 -17 -39.999s-25 -17 -41 -17zM294 709.996h87l270 -710h-91l-64 173h-317l-63 -173h-91zM469 248.996
l-131 356h-2l-129 -356h262z" />
    <glyph glyph-name="Aring" unicode="&#xc5;" horiz-adv-x="676" 
d="M337 760c-26 0 -48.333 9.16699 -67 27.5s-28 40.5 -28 66.5s9.16699 48.167 27.5 66.5s40.833 27.5 67.5 27.5c27.333 0 50.333 -9 69 -27s28 -40.333 28 -67c0 -25.333 -9.33301 -47.333 -28 -66s-41.667 -28 -69 -28zM337 813c12.667 0 23.167 4.16797 31.5 12.501
s12.5 18.166 12.5 29.499s-4.16699 21.166 -12.5 29.499s-18.833 12.5 -31.5 12.5c-11.333 0 -21.166 -4.16699 -29.499 -12.5s-12.5 -18.166 -12.5 -29.499c0 -12 4.16699 -22 12.5 -30s18.166 -12 29.499 -12zM294 710.001h87l270 -710h-91l-64 173h-317l-63 -173h-91z
M469 249.001l-131 356h-2l-129 -356h262z" />
    <glyph glyph-name="AE" unicode="&#xc6;" horiz-adv-x="928" 
d="M383 710h486v-79h-349v-238h290v-79h-290v-235h369v-79h-455v173h-243l-92 -173h-90zM434 249v384h-2l-203 -384h205z" />
    <glyph glyph-name="Ccedilla" unicode="&#xc7;" horiz-adv-x="724" 
d="M400 -31l-0.000976562 -2.00098c26.667 -1.33301 48 -8.83301 64 -22.5s24 -32.5 24 -56.5c0 -22.667 -9 -41 -27 -55s-44.667 -21 -80 -21c-17.333 0 -36 2 -56 6v44c14 -4.66699 30 -7 48 -7c15.333 0 28.5 3.16699 39.5 9.5s16.5 15.5 16.5 27.5s-7.16699 22 -21.5 30
s-34.833 12 -61.5 12l1 30l15 34c-88.667 10 -161.667 46.167 -219 108.5s-86 144.5 -86 246.5c0 104.667 31.333 191.5 94 260.5s149 103.5 259 103.5c110.667 0 203 -45.333 277 -136l-65 -54c-57.333 71.333 -128 107 -212 107c-79.333 0 -142.833 -26.167 -190.5 -78.5
s-71.5 -119.833 -71.5 -202.5c0 -83.333 24.667 -150.166 74 -200.499s112.333 -75.5 189 -75.5c84.667 0 155.334 35.667 212.001 107l65 -55c-72 -89.333 -164 -134 -276 -134z" />
    <glyph glyph-name="Egrave" unicode="&#xc8;" horiz-adv-x="593" 
d="M199 911h92l112 -129h-82zM88 710h435v-79h-348v-238h285v-79h-285v-235h369v-79h-456v710z" />
    <glyph glyph-name="Eacute" unicode="&#xc9;" horiz-adv-x="593" 
d="M330 911h93l-122 -129h-83zM88 710h435v-79h-348v-238h285v-79h-285v-235h369v-79h-456v710z" />
    <glyph glyph-name="Ecircumflex" unicode="&#xca;" horiz-adv-x="593" 
d="M266 906h85l113 -124h-81l-74 78h-2l-74 -78h-83zM88 710h435v-79h-348v-238h285v-79h-285v-235h369v-79h-456v710z" />
    <glyph glyph-name="Edieresis" unicode="&#xcb;" horiz-adv-x="593" 
d="M218 793c-16.667 0 -30.5 5.66504 -41.5 16.998s-16.5 25 -16.5 41c0 15.333 5.5 28.5 16.5 39.5s24.833 16.5 41.5 16.5c16 0 29.667 -5.66699 41 -17s17 -24.666 17 -39.999s-5.66699 -28.666 -17 -39.999s-25 -17 -41 -17zM399 792.998
c-16 0 -29.667 5.66504 -41 16.998s-17 25 -17 41c0 15.333 5.66699 28.5 17 39.5s25 16.5 41 16.5s29.667 -5.66699 41 -17s17 -24.666 17 -39.999s-5.66699 -28.666 -17 -39.999s-25 -17 -41 -17zM88 709.996h435v-79h-348v-238h285v-79h-285v-235h369v-79h-456v710z" />
    <glyph glyph-name="Igrave" unicode="&#xcc;" horiz-adv-x="273" 
d="M-25 911h92l112 -129h-82zM93 710h87v-710h-87v710z" />
    <glyph glyph-name="Iacute" unicode="&#xcd;" horiz-adv-x="273" 
d="M207 911h93l-122 -129h-83zM93 710h87v-710h-87v710z" />
    <glyph glyph-name="Icircumflex" unicode="&#xce;" horiz-adv-x="273" 
d="M94 906h85l113 -124h-81l-74 78h-2l-74 -78h-83zM93 710h87v-710h-87v710z" />
    <glyph glyph-name="Idieresis" unicode="&#xcf;" horiz-adv-x="273" 
d="M46 793c-16.667 0 -30.5 5.66504 -41.5 16.998s-16.5 25 -16.5 41c0 15.333 5.5 28.5 16.5 39.5s24.833 16.5 41.5 16.5c16 0 29.667 -5.66699 41 -17s17 -24.666 17 -39.999s-5.66699 -28.666 -17 -39.999s-25 -17 -41 -17zM227 792.998
c-16 0 -29.667 5.66504 -41 16.998s-17 25 -17 41c0 15.333 5.66699 28.5 17 39.5s25 16.5 41 16.5s29.667 -5.66699 41 -17s17 -24.666 17 -39.999s-5.66699 -28.666 -17 -39.999s-25 -17 -41 -17zM93 709.996h87v-710h-87v710z" />
    <glyph glyph-name="Eth" unicode="&#xd0;" horiz-adv-x="726" 
d="M300 710c111.333 0 200.667 -32.833 268 -98.5s101 -151.5 101 -257.5s-33 -191.5 -99 -256.5s-155 -97.5 -267 -97.5h-215v316h-68v77h68v317h212zM298.001 79c85.333 0 153.5 25.5 204.5 76.5s76.5 117.167 76.5 198.5s-25.667 147.833 -77 199.5
s-118.333 77.5 -201 77.5h-126v-238h190v-77h-190v-237h123z" />
    <glyph glyph-name="Ntilde" unicode="&#xd1;" horiz-adv-x="751" 
d="M453 782c-23.333 0 -51.6689 11.001 -85.002 33.001c-27.333 16.667 -48.333 25 -63 25c-23.333 0 -42.666 -18.333 -57.999 -55l-52 22c21.333 62.667 56 94 104 94c24 0 52.333 -10 85 -30c2.66699 -1.33301 6.83398 -3.83301 12.501 -7.5s10 -6.33398 13 -8.00098
s7 -3.66699 12 -6s9.5 -4 13.5 -5s8.33301 -1.5 13 -1.5c22.667 0 40.667 18.333 54 55l52 -17c-20 -66 -53.667 -99 -101 -99zM87.9971 710.001h86l401 -565h1v565h87v-710h-89l-397 559h-2v-559h-87v710z" />
    <glyph glyph-name="Ograve" unicode="&#xd2;" horiz-adv-x="825" 
d="M262 911h92l112 -129h-82zM414 -6c-104 0 -189.499 33.833 -256.499 101.5s-100.5 154.167 -100.5 259.5s33.667 192 101 260s152.666 102 255.999 102c101.333 0 185.666 -33.667 252.999 -101s101 -154.333 101 -261s-33.667 -193.5 -101 -260.5
s-151.666 -100.5 -252.999 -100.5zM414.001 76c74.667 0 137.167 26.168 187.5 78.501s75.5 119.166 75.5 200.499s-25.167 148.333 -75.5 201s-112.833 79 -187.5 79c-76.667 0 -140.167 -26.5 -190.5 -79.5s-75.5 -119.833 -75.5 -200.5c0 -80 25.167 -146.5 75.5 -199.5
s113.833 -79.5 190.5 -79.5z" />
    <glyph glyph-name="Oacute" unicode="&#xd3;" horiz-adv-x="825" 
d="M474 911h93l-122 -129h-83zM414 -6c-104 0 -189.499 33.833 -256.499 101.5s-100.5 154.167 -100.5 259.5s33.667 192 101 260s152.666 102 255.999 102c101.333 0 185.666 -33.667 252.999 -101s101 -154.333 101 -261s-33.667 -193.5 -101 -260.5
s-151.666 -100.5 -252.999 -100.5zM414.001 76c74.667 0 137.167 26.168 187.5 78.501s75.5 119.166 75.5 200.499s-25.167 148.333 -75.5 201s-112.833 79 -187.5 79c-76.667 0 -140.167 -26.5 -190.5 -79.5s-75.5 -119.833 -75.5 -200.5c0 -80 25.167 -146.5 75.5 -199.5
s113.833 -79.5 190.5 -79.5z" />
    <glyph glyph-name="Ocircumflex" unicode="&#xd4;" horiz-adv-x="825" 
d="M372 906h85l113 -124h-81l-74 78h-2l-74 -78h-83zM414 -6c-104 0 -189.499 33.833 -256.499 101.5s-100.5 154.167 -100.5 259.5s33.667 192 101 260s152.666 102 255.999 102c101.333 0 185.666 -33.667 252.999 -101s101 -154.333 101 -261s-33.667 -193.5 -101 -260.5
s-151.666 -100.5 -252.999 -100.5zM414.001 76c74.667 0 137.167 26.168 187.5 78.501s75.5 119.166 75.5 200.499s-25.167 148.333 -75.5 201s-112.833 79 -187.5 79c-76.667 0 -140.167 -26.5 -190.5 -79.5s-75.5 -119.833 -75.5 -200.5c0 -80 25.167 -146.5 75.5 -199.5
s113.833 -79.5 190.5 -79.5z" />
    <glyph glyph-name="Otilde" unicode="&#xd5;" horiz-adv-x="825" 
d="M492 782c-23.333 0 -51.6689 11.001 -85.002 33.001c-27.333 16.667 -48.333 25 -63 25c-23.333 0 -42.666 -18.333 -57.999 -55l-52 22c21.333 62.667 56 94 104 94c24 0 52.333 -10 85 -30c2.66699 -1.33301 6.83398 -3.83301 12.501 -7.5s10 -6.33398 13 -8.00098
s7 -3.66699 12 -6s9.5 -4 13.5 -5s8.33301 -1.5 13 -1.5c22.667 0 40.667 18.333 54 55l52 -17c-20 -66 -53.667 -99 -101 -99zM413.997 -5.99902c-104 0 -189.499 33.833 -256.499 101.5s-100.5 154.167 -100.5 259.5s33.667 192 101 260s152.666 102 255.999 102
c101.333 0 185.666 -33.667 252.999 -101s101 -154.333 101 -261s-33.667 -193.5 -101 -260.5s-151.666 -100.5 -252.999 -100.5zM413.998 76.001c74.667 0 137.167 26.168 187.5 78.501s75.5 119.166 75.5 200.499s-25.167 148.333 -75.5 201s-112.833 79 -187.5 79
c-76.667 0 -140.167 -26.5 -190.5 -79.5s-75.5 -119.833 -75.5 -200.5c0 -80 25.167 -146.5 75.5 -199.5s113.833 -79.5 190.5 -79.5z" />
    <glyph glyph-name="Odieresis" unicode="&#xd6;" horiz-adv-x="825" 
d="M324 793c-16.667 0 -30.5 5.66504 -41.5 16.998s-16.5 25 -16.5 41c0 15.333 5.5 28.5 16.5 39.5s24.833 16.5 41.5 16.5c16 0 29.667 -5.66699 41 -17s17 -24.666 17 -39.999s-5.66699 -28.666 -17 -39.999s-25 -17 -41 -17zM505 792.998
c-16 0 -29.667 5.66504 -41 16.998s-17 25 -17 41c0 15.333 5.66699 28.5 17 39.5s25 16.5 41 16.5s29.667 -5.66699 41 -17s17 -24.666 17 -39.999s-5.66699 -28.666 -17 -39.999s-25 -17 -41 -17zM414 -6.00391c-104 0 -189.499 33.833 -256.499 101.5
s-100.5 154.167 -100.5 259.5s33.667 192 101 260s152.666 102 255.999 102c101.333 0 185.666 -33.667 252.999 -101s101 -154.333 101 -261s-33.667 -193.5 -101 -260.5s-151.666 -100.5 -252.999 -100.5zM414.001 75.9961c74.667 0 137.167 26.168 187.5 78.501
s75.5 119.166 75.5 200.499s-25.167 148.333 -75.5 201s-112.833 79 -187.5 79c-76.667 0 -140.167 -26.5 -190.5 -79.5s-75.5 -119.833 -75.5 -200.5c0 -80 25.167 -146.5 75.5 -199.5s113.833 -79.5 190.5 -79.5z" />
    <glyph glyph-name="multiply" unicode="&#xd7;" horiz-adv-x="508" 
d="M53 128l149 149l-149 148l52 53l148 -149l149 149l53 -52l-149 -150l148 -148l-52 -51l-148 148l-148 -148z" />
    <glyph glyph-name="Oslash" unicode="&#xd8;" horiz-adv-x="825" 
d="M688 593c53.333 -65.333 80 -144.667 80 -238c0 -106.667 -33.667 -193.5 -101 -260.5s-151.666 -100.5 -252.999 -100.5c-83.333 0 -156 22.667 -218 68l-81 -88l-51 47l81 88c-58.667 67.333 -88 149.333 -88 246c0 105.333 33.667 192 101 260
s152.666 102 255.999 102c88 0 163 -25.333 225 -76l82 88l51 -45zM148 354.999c0 -68.667 19.666 -128.667 58.999 -180l373 402c-47.333 38.667 -102.666 58 -165.999 58c-76.667 0 -140.167 -26.5 -190.5 -79.5s-75.5 -119.833 -75.5 -200.5zM676.999 354.999
c0 65.333 -17.001 122.334 -51.001 171.001l-370 -400c44.667 -33.333 97.334 -50 158.001 -50c74.667 0 137.167 26.167 187.5 78.5s75.5 119.166 75.5 200.499z" />
    <glyph glyph-name="Ugrave" unicode="&#xd9;" horiz-adv-x="706" 
d="M209 911h92l112 -129h-82zM353 -6c-82.667 0 -149.166 26.168 -199.499 78.501s-75.5 124.5 -75.5 216.5v421h87v-415c0 -66 17 -119 51 -159s79.667 -60 137 -60c56 0 101.5 19.667 136.5 59s52.5 92.666 52.5 159.999v415h87v-421
c0 -90.667 -24.833 -162.5 -74.5 -215.5s-116.834 -79.5 -201.501 -79.5z" />
    <glyph glyph-name="Uacute" unicode="&#xda;" horiz-adv-x="706" 
d="M398 911h93l-122 -129h-83zM353 -6c-82.667 0 -149.166 26.168 -199.499 78.501s-75.5 124.5 -75.5 216.5v421h87v-415c0 -66 17 -119 51 -159s79.667 -60 137 -60c56 0 101.5 19.667 136.5 59s52.5 92.666 52.5 159.999v415h87v-421
c0 -90.667 -24.833 -162.5 -74.5 -215.5s-116.834 -79.5 -201.501 -79.5z" />
    <glyph glyph-name="Ucircumflex" unicode="&#xdb;" horiz-adv-x="706" 
d="M311 906h85l113 -124h-81l-74 78h-2l-74 -78h-83zM353 -6c-82.667 0 -149.166 26.168 -199.499 78.501s-75.5 124.5 -75.5 216.5v421h87v-415c0 -66 17 -119 51 -159s79.667 -60 137 -60c56 0 101.5 19.667 136.5 59s52.5 92.666 52.5 159.999v415h87v-421
c0 -90.667 -24.833 -162.5 -74.5 -215.5s-116.834 -79.5 -201.501 -79.5z" />
    <glyph glyph-name="Udieresis" unicode="&#xdc;" horiz-adv-x="706" 
d="M263 793c-16.667 0 -30.5 5.66504 -41.5 16.998s-16.5 25 -16.5 41c0 15.333 5.5 28.5 16.5 39.5s24.833 16.5 41.5 16.5c16 0 29.667 -5.66699 41 -17s17 -24.666 17 -39.999s-5.66699 -28.666 -17 -39.999s-25 -17 -41 -17zM444 792.998
c-16 0 -29.667 5.66504 -41 16.998s-17 25 -17 41c0 15.333 5.66699 28.5 17 39.5s25 16.5 41 16.5s29.667 -5.66699 41 -17s17 -24.666 17 -39.999s-5.66699 -28.666 -17 -39.999s-25 -17 -41 -17zM353 -6.00391c-82.667 0 -149.166 26.168 -199.499 78.501
s-75.5 124.5 -75.5 216.5v421h87v-415c0 -66 17 -119 51 -159s79.667 -60 137 -60c56 0 101.5 19.667 136.5 59s52.5 92.666 52.5 159.999v415h87v-421c0 -90.667 -24.833 -162.5 -74.5 -215.5s-116.834 -79.5 -201.501 -79.5z" />
    <glyph glyph-name="Yacute" unicode="&#xdd;" horiz-adv-x="601" 
d="M361 911h93l-122 -129h-83zM256 317l-241 393h100l184 -305h2l183 305h102l-243 -393v-317h-87v317z" />
    <glyph glyph-name="Thorn" unicode="&#xde;" horiz-adv-x="632" 
d="M88 710h87.001v-140h181c79.333 0 138.166 -20 176.499 -60s57.5 -93.333 57.5 -160c0 -72 -22.333 -126.167 -67 -162.5s-105.667 -54.5 -183 -54.5h-165v-133h-87v710zM334.001 211c55.333 0 96.833 12.832 124.5 38.499s41.5 59.834 41.5 102.501
c0 44.667 -13.5 79 -40.5 103s-64.833 36 -113.5 36h-171v-280h159z" />
    <glyph glyph-name="germandbls" unicode="&#xdf;" horiz-adv-x="621" 
d="M252 67l90.002 0.00292969c45.333 0 83.166 14.333 113.499 43s45.5 66 45.5 112c0 44 -15.5 81.833 -46.5 113.5s-72.5 47.5 -124.5 47.5h-54v70h50c27.333 0 50.5 4 69.5 12s32.5 18.333 40.5 31s13.667 24.167 17 34.5s5 20.5 5 30.5c0 31.333 -12 57.166 -36 77.499
s-58.667 30.5 -104 30.5c-107.333 0 -161 -58.333 -161 -175v-494h-81v492c0 84 20.833 146.833 62.5 188.5s100.834 62.5 177.501 62.5c69.333 0 123.666 -16.167 162.999 -48.5s59 -74.5 59 -126.5c0 -26.667 -6.83301 -52.834 -20.5 -78.501
s-36.834 -45.834 -69.501 -60.501v-2c42 -16.667 75.167 -44 99.5 -82s36.5 -79.667 36.5 -125c0 -68 -20.833 -122.667 -62.5 -164s-95.5 -62 -161.5 -62h-108v73z" />
    <glyph glyph-name="agrave" unicode="&#xe0;" horiz-adv-x="604" 
d="M159 696l92 -1l111 -137h-82zM281 -6c-68 0 -124.501 22.8311 -169.501 68.498s-67.5 104.834 -67.5 177.501s22.333 133 67 181s101.334 72 170.001 72c36 0 69 -8.16699 99 -24.5s53.667 -39.166 71 -68.499l2 1v86h81v-487h-78v88h-1c-38 -62.667 -96 -94 -174 -94z
M292.999 67.998c46 0 84.667 16 116 48s47 73.333 47 124s-15.333 93.167 -46 127.5s-69.667 51.5 -117 51.5s-87 -16.667 -119 -50s-48 -76.333 -48 -129c0 -49.333 15.5 -90.333 46.5 -123s71.167 -49 120.5 -49z" />
    <glyph glyph-name="aacute" unicode="&#xe1;" horiz-adv-x="604" 
d="M371 698l91 1l-124 -142h-85zM281 -6c-68 0 -124.501 22.8311 -169.501 68.498s-67.5 104.834 -67.5 177.501s22.333 133 67 181s101.334 72 170.001 72c36 0 69 -8.16699 99 -24.5s53.667 -39.166 71 -68.499l2 1v86h81v-487h-78v88h-1c-38 -62.667 -96 -94 -174 -94z
M292.999 67.998c46 0 84.667 16 116 48s47 73.333 47 124s-15.333 93.167 -46 127.5s-69.667 51.5 -117 51.5s-87 -16.667 -119 -50s-48 -76.333 -48 -129c0 -49.333 15.5 -90.333 46.5 -123s71.167 -49 120.5 -49z" />
    <glyph glyph-name="acircumflex" unicode="&#xe2;" horiz-adv-x="604" 
d="M258 696h85l111 -140h-81l-72 89h-2l-73 -89h-83zM281 -6c-68 0 -124.501 22.8311 -169.501 68.498s-67.5 104.834 -67.5 177.501s22.333 133 67 181s101.334 72 170.001 72c36 0 69 -8.16699 99 -24.5s53.667 -39.166 71 -68.499l2 1v86h81v-487h-78v88h-1
c-38 -62.667 -96 -94 -174 -94zM292.999 67.998c46 0 84.667 16 116 48s47 73.333 47 124s-15.333 93.167 -46 127.5s-69.667 51.5 -117 51.5s-87 -16.667 -119 -50s-48 -76.333 -48 -129c0 -49.333 15.5 -90.333 46.5 -123s71.167 -49 120.5 -49z" />
    <glyph glyph-name="atilde" unicode="&#xe3;" horiz-adv-x="604" 
d="M377 562c-23.333 0 -52.667 11.999 -88 35.999c-24.667 16 -44 24 -58 24c-26 0 -46 -18.667 -60 -56l-52 23c20.667 65.333 55.334 98 104.001 98c25.333 0 52.333 -9.66699 81 -29l12 -8c6 -4 10.5 -6.83301 13.5 -8.5s6.83301 -3.66699 11.5 -6s9.16699 -4 13.5 -5
s8.83301 -1.5 13.5 -1.5c25.333 0 44.666 18.333 57.999 55l51 -17c-8.66699 -33.333 -22 -59.166 -40 -77.499s-38 -27.5 -60 -27.5zM280.999 -6.00098c-68 0 -124.501 22.8311 -169.501 68.498s-67.5 104.834 -67.5 177.501s22.333 133 67 181s101.334 72 170.001 72
c36 0 69 -8.16699 99 -24.5s53.667 -39.166 71 -68.499l2 1v86h81v-487h-78v88h-1c-38 -62.667 -96 -94 -174 -94zM292.998 67.9971c46 0 84.667 16 116 48s47 73.333 47 124s-15.333 93.167 -46 127.5s-69.667 51.5 -117 51.5s-87 -16.667 -119 -50s-48 -76.333 -48 -129
c0 -49.333 15.5 -90.333 46.5 -123s71.167 -49 120.5 -49z" />
    <glyph glyph-name="adieresis" unicode="&#xe4;" horiz-adv-x="604" 
d="M208 577c-16.667 0 -30.5 5.66504 -41.5 16.998s-16.5 25 -16.5 41c0 15.333 5.5 28.5 16.5 39.5s24.833 16.5 41.5 16.5c16 0 29.667 -5.66699 41 -17s17 -24.666 17 -39.999s-5.66699 -28.666 -17 -39.999s-25 -17 -41 -17zM389 576.998
c-16 0 -29.667 5.66504 -41 16.998s-17 25 -17 41c0 15.333 5.66699 28.5 17 39.5s25 16.5 41 16.5s29.667 -5.66699 41 -17s17 -24.666 17 -39.999s-5.66699 -28.666 -17 -39.999s-25 -17 -41 -17zM281 -6.00391c-68 0 -124.501 22.8311 -169.501 68.498
s-67.5 104.834 -67.5 177.501s22.333 133 67 181s101.334 72 170.001 72c36 0 69 -8.16699 99 -24.5s53.667 -39.166 71 -68.499l2 1v86h81v-487h-78v88h-1c-38 -62.667 -96 -94 -174 -94zM292.999 67.9941c46 0 84.667 16 116 48s47 73.333 47 124
s-15.333 93.167 -46 127.5s-69.667 51.5 -117 51.5s-87 -16.667 -119 -50s-48 -76.333 -48 -129c0 -49.333 15.5 -90.333 46.5 -123s71.167 -49 120.5 -49z" />
    <glyph glyph-name="aring" unicode="&#xe5;" horiz-adv-x="604" 
d="M298 545c-26 0 -48.333 9.16699 -67 27.5s-28 40.5 -28 66.5s9.16699 48.167 27.5 66.5s40.833 27.5 67.5 27.5c27.333 0 50.333 -9 69 -27s28 -40.333 28 -67c0 -25.333 -9.33301 -47.333 -28 -66s-41.667 -28 -69 -28zM298 598c12.667 0 23.167 4.16797 31.5 12.501
s12.5 18.166 12.5 29.499s-4.16699 21.166 -12.5 29.499s-18.833 12.5 -31.5 12.5c-11.333 0 -21.166 -4.16699 -29.499 -12.5s-12.5 -18.166 -12.5 -29.499c0 -12 4.16699 -22 12.5 -30s18.166 -12 29.499 -12zM281 -5.99902c-68 0 -124.501 22.8311 -169.501 68.498
s-67.5 104.834 -67.5 177.501s22.333 133 67 181s101.334 72 170.001 72c36 0 69 -8.16699 99 -24.5s53.667 -39.166 71 -68.499l2 1v86h81v-487h-78v88h-1c-38 -62.667 -96 -94 -174 -94zM292.999 67.999c46 0 84.667 16 116 48s47 73.333 47 124s-15.333 93.167 -46 127.5
s-69.667 51.5 -117 51.5s-87 -16.667 -119 -50s-48 -76.333 -48 -129c0 -49.333 15.5 -90.333 46.5 -123s71.167 -49 120.5 -49z" />
    <glyph glyph-name="ae" unicode="&#xe6;" horiz-adv-x="790" 
d="M754 252c0 -18 -0.333008 -29.333 -1 -34h-340c5.33301 -46.667 21 -83.334 47 -110.001s60 -40 102 -40c29.333 0 53 5.33301 71 16s35 27 51 49l56 -48c-23.333 -30.667 -48.5 -53.5 -75.5 -68.5s-63.167 -22.5 -108.5 -22.5c-77.333 0 -135.333 33 -174 99h-2
c-14 -29.333 -36.667 -53.166 -68 -71.499s-68.333 -27.5 -111 -27.5c-55.333 0 -97.333 14 -126 42s-43 63.333 -43 106c0 44.667 15.833 80 47.5 106s77.834 39 138.501 39h116v12c0 44.667 -7.5 76 -22.5 94s-39.833 27 -74.5 27c-48 0 -94.333 -12.333 -139 -37l-31 66
c19.333 11.333 45.166 21.5 77.499 30.5s64.833 13.5 97.5 13.5c73.333 0 122 -31.333 146 -94h2c18 30 41.667 53.167 71 69.5s60.333 24.5 93 24.5c59.333 0 107.5 -22.667 144.5 -68s55.5 -103 55.5 -173zM673 285c-4 40 -16.334 72.333 -37.001 97s-49 37 -85 37
c-35.333 0 -65.166 -12.333 -89.499 -37s-39.833 -57 -46.5 -97h258zM207.999 62c35.333 0 65.334 10.8311 90.001 32.498s37 50.834 37 87.501v39h-110c-75.333 0 -113 -26 -113 -78c0 -23.333 8.16699 -42.666 24.5 -57.999s40.166 -23 71.499 -23z" />
    <glyph glyph-name="ccedilla" unicode="&#xe7;" horiz-adv-x="521" 
d="M286 -31l0.000976562 -2c26.667 -1.33301 48 -8.83301 64 -22.5s24 -32.5 24 -56.5c0 -22.667 -9 -41 -27 -55s-44.667 -21 -80 -21c-17.333 0 -36 2 -56 6v44c14 -4.66699 30 -7 48 -7c15.333 0 28.5 3.16699 39.5 9.5s16.5 15.5 16.5 27.5s-7.16699 22 -21.5 30
s-34.833 12 -61.5 12l1 30l15 33c-60.667 8.66699 -109.667 35.167 -147 79.5s-56 99.833 -56 166.5c0 73.333 22.833 133.333 68.5 180s104.834 70 177.501 70c37.333 0 73.5 -7.5 108.5 -22.5s64.167 -36.5 87.5 -64.5l-55 -49c-35.333 41.333 -81 62 -137 62
c-50 0 -90.333 -16.333 -121 -49s-46 -75 -46 -127s15.333 -94.167 46 -126.5s70.667 -48.5 120 -48.5c59.333 0 105.666 20.667 138.999 62l56 -51c-46.667 -54.667 -110.334 -83 -191.001 -85z" />
    <glyph glyph-name="egrave" unicode="&#xe8;" horiz-adv-x="551" 
d="M270 558l-121 138l92 -1l111 -137h-82zM509 252c0 -4.66699 -0.332031 -11 -0.999023 -19s-1 -12.667 -1 -14h-380c5.33301 -46 23 -82.667 53 -110s68 -41 114 -41c58.667 0 105.667 21.667 141 65l57 -48c-47.333 -60.667 -114.333 -91 -201 -91
c-72.667 0 -131.834 23 -177.501 69s-68.5 106 -68.5 180c0 73.333 22.5 133.333 67.5 180s102.5 70 172.5 70c66 0 119.833 -22.667 161.5 -68s62.5 -103 62.5 -173zM284.001 419c-39.333 0 -73.1689 -12 -101.502 -36s-46.166 -56.667 -53.499 -98h299
c-6 40.667 -21.667 73.167 -47 97.5s-57.666 36.5 -96.999 36.5z" />
    <glyph glyph-name="eacute" unicode="&#xe9;" horiz-adv-x="551" 
d="M319 557h-85l118 141l91 1zM509 252c0 -4.66699 -0.332031 -11 -0.999023 -19s-1 -12.667 -1 -14h-380c5.33301 -46 23 -82.667 53 -110s68 -41 114 -41c58.667 0 105.667 21.667 141 65l57 -48c-47.333 -60.667 -114.333 -91 -201 -91
c-72.667 0 -131.834 23 -177.501 69s-68.5 106 -68.5 180c0 73.333 22.5 133.333 67.5 180s102.5 70 172.5 70c66 0 119.833 -22.667 161.5 -68s62.5 -103 62.5 -173zM284.001 419c-39.333 0 -73.1689 -12 -101.502 -36s-46.166 -56.667 -53.499 -98h299
c-6 40.667 -21.667 73.167 -47 97.5s-57.666 36.5 -96.999 36.5z" />
    <glyph glyph-name="ecircumflex" unicode="&#xea;" horiz-adv-x="552" 
d="M214 556h-83l115 140h85l111 -140h-81l-72 89h-2zM509 252c0 -4.66699 -0.332031 -11 -0.999023 -19s-1 -12.667 -1 -14h-380c5.33301 -46 23 -82.667 53 -110s68 -41 114 -41c58.667 0 105.667 21.667 141 65l57 -48c-47.333 -60.667 -114.333 -91 -201 -91
c-72.667 0 -131.834 23 -177.501 69s-68.5 106 -68.5 180c0 73.333 22.5 133.333 67.5 180s102.5 70 172.5 70c66 0 119.833 -22.667 161.5 -68s62.5 -103 62.5 -173zM284.001 419c-39.333 0 -73.1689 -12 -101.502 -36s-46.166 -56.667 -53.499 -98h299
c-6 40.667 -21.667 73.167 -47 97.5s-57.666 36.5 -96.999 36.5z" />
    <glyph glyph-name="edieresis" unicode="&#xeb;" horiz-adv-x="552" 
d="M196 577c-16.667 0 -30.5 5.66504 -41.5 16.998s-16.5 25 -16.5 41c0 15.333 5.5 28.5 16.5 39.5s24.833 16.5 41.5 16.5c16 0 29.667 -5.66699 41 -17s17 -24.666 17 -39.999s-5.66699 -28.666 -17 -39.999s-25 -17 -41 -17zM377 576.998
c-16 0 -29.667 5.66504 -41 16.998s-17 25 -17 41c0 15.333 5.66699 28.5 17 39.5s25 16.5 41 16.5s29.667 -5.66699 41 -17s17 -24.666 17 -39.999s-5.66699 -28.666 -17 -39.999s-25 -17 -41 -17zM509 251.996c0 -4.66699 -0.332031 -11 -0.999023 -19s-1 -12.667 -1 -14
h-380c5.33301 -46 23 -82.667 53 -110s68 -41 114 -41c58.667 0 105.667 21.667 141 65l57 -48c-47.333 -60.667 -114.333 -91 -201 -91c-72.667 0 -131.834 23 -177.501 69s-68.5 106 -68.5 180c0 73.333 22.5 133.333 67.5 180s102.5 70 172.5 70
c66 0 119.833 -22.667 161.5 -68s62.5 -103 62.5 -173zM284.001 418.996c-39.333 0 -73.1689 -12 -101.502 -36s-46.166 -56.667 -53.499 -98h299c-6 40.667 -21.667 73.167 -47 97.5s-57.666 36.5 -96.999 36.5z" />
    <glyph glyph-name="igrave" unicode="&#xec;" horiz-adv-x="246" 
d="M-11 699l91 -1l83 -141h-84zM82 487h81v-487h-81v487z" />
    <glyph glyph-name="iacute" unicode="&#xed;" horiz-adv-x="245" 
d="M204 698l91 1l-124 -142h-85zM82 487h81v-487h-81v487z" />
    <glyph glyph-name="icircumflex" unicode="&#xee;" horiz-adv-x="245" 
d="M82 696h85l111 -140h-81l-72 89h-2l-73 -89h-83zM82 487h81v-487h-81v487z" />
    <glyph glyph-name="idieresis" unicode="&#xef;" horiz-adv-x="245" 
d="M32 577c-16.667 0 -30.5 5.66504 -41.5 16.998s-16.5 25 -16.5 41c0 15.333 5.5 28.5 16.5 39.5s24.833 16.5 41.5 16.5c16 0 29.667 -5.66699 41 -17s17 -24.666 17 -39.999s-5.66699 -28.666 -17 -39.999s-25 -17 -41 -17zM213 576.998
c-16 0 -29.667 5.66504 -41 16.998s-17 25 -17 41c0 15.333 5.66699 28.5 17 39.5s25 16.5 41 16.5s29.667 -5.66699 41 -17s17 -24.666 17 -39.999s-5.66699 -28.666 -17 -39.999s-25 -17 -41 -17zM82 486.996h81v-487h-81v487z" />
    <glyph glyph-name="eth" unicode="&#xf0;" horiz-adv-x="588" 
d="M434 564c72.667 -90 109 -190.667 109 -302c0 -84 -22.833 -149.667 -68.5 -197s-106.5 -71 -182.5 -71c-70 0 -128.667 22.667 -176 68s-71 103 -71 173c0 71.333 21.833 130.166 65.5 176.499s97.167 69.5 160.5 69.5c70 0 126 -23.333 168 -70l1 2
c-16 38.667 -37.667 74.334 -65 107.001c-13.333 16.667 -32.333 36 -57 58l-51 -60l-54 40l51 60c-34 23.333 -74.667 44 -122 62l32 60c46.667 -15.333 92.334 -37.333 137.001 -66l67 80l55 -38l-69 -82c23.333 -18.667 46.666 -42 69.999 -70zM292 68
c49.333 0 89.666 16.502 120.999 49.502s47 74.833 47 125.5c0 47.333 -16 86.666 -48 117.999s-71.667 47 -119 47c-48 0 -87.667 -16.333 -119 -49s-47 -72.334 -47 -119.001c0 -50 15.833 -91.167 47.5 -123.5s70.834 -48.5 117.501 -48.5z" />
    <glyph glyph-name="ntilde" unicode="&#xf1;" horiz-adv-x="576" 
d="M369 562c-23.333 0 -52.667 11.999 -88 35.999c-24.667 16 -44 24 -58 24c-26 0 -46 -18.667 -60 -56l-52 23c20.667 65.333 55.334 98 104.001 98c25.333 0 52.333 -9.66699 81 -29l12 -8c6 -4 10.5 -6.83301 13.5 -8.5s6.83301 -3.66699 11.5 -6s9.16699 -4 13.5 -5
s8.83301 -1.5 13.5 -1.5c25.333 0 44.666 18.333 57.999 55l51 -17c-8.66699 -33.333 -22 -59.166 -40 -77.499s-38 -27.5 -60 -27.5zM75.999 486.999l81 -0.000976562v-88h1c40.667 62.667 99.667 94 177 94c54 0 96.667 -17.167 128 -51.5s47 -85.166 47 -152.499v-289
h-81v266c0 102 -40 153 -120 153c-46.667 0 -83.667 -15.667 -111 -47s-41 -74.333 -41 -129v-243h-81v487z" />
    <glyph glyph-name="ograve" unicode="&#xf2;" horiz-adv-x="593" 
d="M152 696l92 -1l111 -137h-82zM297 -6c-74.667 0 -135.334 23.667 -182.001 71s-70 106.666 -70 177.999s23.333 130.833 70 178.5s107.334 71.5 182.001 71.5c72.667 0 132.667 -23.333 180 -70s71 -106.667 71 -180s-23.667 -133.166 -71 -179.499
s-107.333 -69.5 -180 -69.5zM297 68c47.333 0 87.166 16.333 119.499 49s48.5 74.667 48.5 126s-16.167 93.5 -48.5 126.5s-72.166 49.5 -119.499 49.5c-50 0 -90.667 -17 -122 -51s-47 -75.667 -47 -125s15.833 -90.833 47.5 -124.5s72.167 -50.5 121.5 -50.5z" />
    <glyph glyph-name="oacute" unicode="&#xf3;" horiz-adv-x="593" 
d="M370 698l91 1l-124 -142h-85zM297 -6c-74.667 0 -135.334 23.667 -182.001 71s-70 106.666 -70 177.999s23.333 130.833 70 178.5s107.334 71.5 182.001 71.5c72.667 0 132.667 -23.333 180 -70s71 -106.667 71 -180s-23.667 -133.166 -71 -179.499
s-107.333 -69.5 -180 -69.5zM297 68c47.333 0 87.166 16.333 119.499 49s48.5 74.667 48.5 126s-16.167 93.5 -48.5 126.5s-72.166 49.5 -119.499 49.5c-50 0 -90.667 -17 -122 -51s-47 -75.667 -47 -125s15.833 -90.833 47.5 -124.5s72.167 -50.5 121.5 -50.5z" />
    <glyph glyph-name="ocircumflex" unicode="&#xf4;" horiz-adv-x="593" 
d="M256 696h85l111 -140h-81l-72 89h-2l-73 -89h-83zM297 -6c-74.667 0 -135.334 23.667 -182.001 71s-70 106.666 -70 177.999s23.333 130.833 70 178.5s107.334 71.5 182.001 71.5c72.667 0 132.667 -23.333 180 -70s71 -106.667 71 -180s-23.667 -133.166 -71 -179.499
s-107.333 -69.5 -180 -69.5zM297 68c47.333 0 87.166 16.333 119.499 49s48.5 74.667 48.5 126s-16.167 93.5 -48.5 126.5s-72.166 49.5 -119.499 49.5c-50 0 -90.667 -17 -122 -51s-47 -75.667 -47 -125s15.833 -90.833 47.5 -124.5s72.167 -50.5 121.5 -50.5z" />
    <glyph glyph-name="otilde" unicode="&#xf5;" horiz-adv-x="593" 
d="M375 562c-23.333 0 -52.667 11.999 -88 35.999c-24.667 16 -44 24 -58 24c-26 0 -46 -18.667 -60 -56l-52 23c20.667 65.333 55.334 98 104.001 98c25.333 0 52.333 -9.66699 81 -29l12 -8c6 -4 10.5 -6.83301 13.5 -8.5s6.83301 -3.66699 11.5 -6s9.16699 -4 13.5 -5
s8.83301 -1.5 13.5 -1.5c25.333 0 44.666 18.333 57.999 55l51 -17c-8.66699 -33.333 -22 -59.166 -40 -77.499s-38 -27.5 -60 -27.5zM296.999 -6.00098c-74.667 0 -135.334 23.667 -182.001 71s-70 106.666 -70 177.999s23.333 130.833 70 178.5s107.334 71.5 182.001 71.5
c72.667 0 132.667 -23.333 180 -70s71 -106.667 71 -180s-23.667 -133.166 -71 -179.499s-107.333 -69.5 -180 -69.5zM296.999 67.999c47.333 0 87.166 16.333 119.499 49s48.5 74.667 48.5 126s-16.167 93.5 -48.5 126.5s-72.166 49.5 -119.499 49.5
c-50 0 -90.667 -17 -122 -51s-47 -75.667 -47 -125s15.833 -90.833 47.5 -124.5s72.167 -50.5 121.5 -50.5z" />
    <glyph glyph-name="odieresis" unicode="&#xf6;" horiz-adv-x="593" 
d="M206 577c-16.667 0 -30.5 5.66504 -41.5 16.998s-16.5 25 -16.5 41c0 15.333 5.5 28.5 16.5 39.5s24.833 16.5 41.5 16.5c16 0 29.667 -5.66699 41 -17s17 -24.666 17 -39.999s-5.66699 -28.666 -17 -39.999s-25 -17 -41 -17zM387 576.998
c-16 0 -29.667 5.66504 -41 16.998s-17 25 -17 41c0 15.333 5.66699 28.5 17 39.5s25 16.5 41 16.5s29.667 -5.66699 41 -17s17 -24.666 17 -39.999s-5.66699 -28.666 -17 -39.999s-25 -17 -41 -17zM297 -6.00391c-74.667 0 -135.334 23.667 -182.001 71
s-70 106.666 -70 177.999s23.333 130.833 70 178.5s107.334 71.5 182.001 71.5c72.667 0 132.667 -23.333 180 -70s71 -106.667 71 -180s-23.667 -133.166 -71 -179.499s-107.333 -69.5 -180 -69.5zM297 67.9961c47.333 0 87.166 16.333 119.499 49s48.5 74.667 48.5 126
s-16.167 93.5 -48.5 126.5s-72.166 49.5 -119.499 49.5c-50 0 -90.667 -17 -122 -51s-47 -75.667 -47 -125s15.833 -90.833 47.5 -124.5s72.167 -50.5 121.5 -50.5z" />
    <glyph glyph-name="divide" unicode="&#xf7;" horiz-adv-x="578" 
d="M290 412c-16.667 0 -30.667 5.66699 -42 17s-17 25 -17 41s5.66699 29.667 17 41s25.333 17 42 17s30.667 -5.66699 42 -17s17 -25 17 -41s-5.66699 -29.667 -17 -41s-25.333 -17 -42 -17zM61 314h469v-75h-469v75zM290 18c-16.667 0 -30.667 5.66699 -42 17
s-17 25 -17 41s5.66699 29.667 17 41s25.333 17 42 17s30.667 -5.66699 42 -17s17 -25 17 -41s-5.66699 -29.667 -17 -41s-25.333 -17 -42 -17z" />
    <glyph glyph-name="oslash" unicode="&#xf8;" horiz-adv-x="593" 
d="M496 401c34.667 -43.333 51.999 -96.001 51.999 -158.001c0 -73.333 -23.667 -133.166 -71 -179.499s-107.333 -69.5 -180 -69.5c-54.667 0 -103 13.667 -145 41l-54 -57l-45 42l52 56c-40 46 -60 101.667 -60 167c0 71.333 23.333 130.833 70 178.5
s107.334 71.5 182.001 71.5c59.333 0 111 -16.333 155 -49l59 63l45 -42zM127.999 242.999c0 -40.667 11 -76.667 33 -108l237 251c-29.333 22 -63 33 -101 33c-50 0 -90.667 -17 -122 -51s-47 -75.667 -47 -125zM464.999 242.999c0 36.667 -8.66504 69.333 -25.998 98
l-233 -248c27.333 -16.667 57.666 -25 90.999 -25c47.333 0 87.166 16.333 119.499 49s48.5 74.667 48.5 126z" />
    <glyph glyph-name="ugrave" unicode="&#xf9;" horiz-adv-x="562" 
d="M143 696l92 -1l111 -137h-82zM248 -6c-58 0 -103 16.834 -135 50.501s-48 84.5 -48 152.5v290h81v-267c0 -53.333 9.83301 -92 29.5 -116s49.5 -36 89.5 -36c40.667 0 75 16.5 103 49.5s42 77.5 42 133.5v236h81v-487h-81v84h-1
c-18 -28.667 -41.167 -50.834 -69.5 -66.501s-58.833 -23.5 -91.5 -23.5z" />
    <glyph glyph-name="uacute" unicode="&#xfa;" horiz-adv-x="562" 
d="M351 698l91 1l-124 -142h-85zM248 -6c-58 0 -103 16.834 -135 50.501s-48 84.5 -48 152.5v290h81v-267c0 -53.333 9.83301 -92 29.5 -116s49.5 -36 89.5 -36c40.667 0 75 16.5 103 49.5s42 77.5 42 133.5v236h81v-487h-81v84h-1
c-18 -28.667 -41.167 -50.834 -69.5 -66.501s-58.833 -23.5 -91.5 -23.5z" />
    <glyph glyph-name="ucircumflex" unicode="&#xfb;" horiz-adv-x="562" 
d="M238 696h85l111 -140h-81l-72 89h-2l-73 -89h-83zM248 -6c-58 0 -103 16.834 -135 50.501s-48 84.5 -48 152.5v290h81v-267c0 -53.333 9.83301 -92 29.5 -116s49.5 -36 89.5 -36c40.667 0 75 16.5 103 49.5s42 77.5 42 133.5v236h81v-487h-81v84h-1
c-18 -28.667 -41.167 -50.834 -69.5 -66.501s-58.833 -23.5 -91.5 -23.5z" />
    <glyph glyph-name="udieresis" unicode="&#xfc;" horiz-adv-x="562" 
d="M188 577c-16.667 0 -30.5 5.66504 -41.5 16.998s-16.5 25 -16.5 41c0 15.333 5.5 28.5 16.5 39.5s24.833 16.5 41.5 16.5c16 0 29.667 -5.66699 41 -17s17 -24.666 17 -39.999s-5.66699 -28.666 -17 -39.999s-25 -17 -41 -17zM369 576.998
c-16 0 -29.667 5.66504 -41 16.998s-17 25 -17 41c0 15.333 5.66699 28.5 17 39.5s25 16.5 41 16.5s29.667 -5.66699 41 -17s17 -24.666 17 -39.999s-5.66699 -28.666 -17 -39.999s-25 -17 -41 -17zM248 -6.00391c-58 0 -103 16.834 -135 50.501s-48 84.5 -48 152.5v290h81
v-267c0 -53.333 9.83301 -92 29.5 -116s49.5 -36 89.5 -36c40.667 0 75 16.5 103 49.5s42 77.5 42 133.5v236h81v-487h-81v84h-1c-18 -28.667 -41.167 -50.834 -69.5 -66.501s-58.833 -23.5 -91.5 -23.5z" />
    <glyph glyph-name="yacute" unicode="&#xfd;" horiz-adv-x="525" 
d="M322 698l91 1l-124 -142h-85zM229 19l-207 468h88l158 -370h2l147 370h85l-276 -685h-84z" />
    <glyph glyph-name="thorn" unicode="&#xfe;" horiz-adv-x="614" 
d="M76 736l80.998 0.000976562v-334h1c38.667 60.667 96.334 91 173.001 91c68.667 0 125.334 -24 170.001 -72s67 -108.333 67 -181s-22.5 -131.834 -67.5 -177.501s-101.5 -68.5 -169.5 -68.5c-78 0 -135.667 30 -173 90l-1 -1v-281h-81v934zM319.998 68.001
c48.667 0 88.5 16.333 119.5 49s46.5 73.667 46.5 123c0 52.667 -16 95.667 -48 129s-71.667 50 -119 50c-48.667 0 -88.5 -17.167 -119.5 -51.5s-46.5 -76.833 -46.5 -127.5s16 -92 48 -124s71.667 -48 119 -48z" />
    <glyph glyph-name="ydieresis" unicode="&#xff;" horiz-adv-x="525" 
d="M173 577c-16.667 0 -30.5 5.66504 -41.5 16.998s-16.5 25 -16.5 41c0 15.333 5.5 28.5 16.5 39.5s24.833 16.5 41.5 16.5c16 0 29.667 -5.66699 41 -17s17 -24.666 17 -39.999s-5.66699 -28.666 -17 -39.999s-25 -17 -41 -17zM354 576.998
c-16 0 -29.667 5.66504 -41 16.998s-17 25 -17 41c0 15.333 5.66699 28.5 17 39.5s25 16.5 41 16.5s29.667 -5.66699 41 -17s17 -24.666 17 -39.999s-5.66699 -28.666 -17 -39.999s-25 -17 -41 -17zM229 18.9961l-207 468h88l158 -370h2l147 370h85l-276 -685h-84z" />
    <glyph glyph-name="Amacron" unicode="&#x100;" horiz-adv-x="676" 
d="M194 876h288v-67h-288v67zM294 710h87l270 -710h-91l-64 173h-317l-63 -173h-91zM469 249l-131 356h-2l-129 -356h262z" />
    <glyph glyph-name="amacron" unicode="&#x101;" horiz-adv-x="604" 
d="M155 665h288v-69h-288v69zM281 -6c-68 0 -124.501 22.8311 -169.501 68.498s-67.5 104.834 -67.5 177.501s22.333 133 67 181s101.334 72 170.001 72c36 0 69 -8.16699 99 -24.5s53.667 -39.166 71 -68.499l2 1v86h81v-487h-78v88h-1c-38 -62.667 -96 -94 -174 -94z
M292.999 67.998c46 0 84.667 16 116 48s47 73.333 47 124s-15.333 93.167 -46 127.5s-69.667 51.5 -117 51.5s-87 -16.667 -119 -50s-48 -76.333 -48 -129c0 -49.333 15.5 -90.333 46.5 -123s71.167 -49 120.5 -49z" />
    <glyph glyph-name="Abreve" unicode="&#x102;" horiz-adv-x="676" 
d="M338 776c-41.333 0 -74.833 11.833 -100.5 35.5s-40.167 55.167 -43.5 94.5h65c1.33301 -18.667 9 -34.5 23 -47.5s32.667 -19.5 56 -19.5s42 6.5 56 19.5s21.667 28.833 23 47.5h65c-3.33301 -39.333 -17.833 -70.833 -43.5 -94.5s-59.167 -35.5 -100.5 -35.5zM294 710
h87l270 -710h-91l-64 173h-317l-63 -173h-91zM469 249l-131 356h-2l-129 -356h262z" />
    <glyph glyph-name="abreve" unicode="&#x103;" horiz-adv-x="604" 
d="M299 552c-42 0 -75.8311 12.5 -101.498 37.5s-39.834 59.833 -42.501 104.5h65c1.33301 -22 9 -40.5 23 -55.5s32.667 -22.5 56 -22.5s42 7.5 56 22.5s21.667 33.5 23 55.5h65c-2.66699 -44.667 -16.834 -79.5 -42.501 -104.5s-59.5 -37.5 -101.5 -37.5zM281.002 -6
c-68 0 -124.501 22.8311 -169.501 68.498s-67.5 104.834 -67.5 177.501s22.333 133 67 181s101.334 72 170.001 72c36 0 69 -8.16699 99 -24.5s53.667 -39.166 71 -68.499l2 1v86h81v-487h-78v88h-1c-38 -62.667 -96 -94 -174 -94zM293.001 67.998c46 0 84.667 16 116 48
s47 73.333 47 124s-15.333 93.167 -46 127.5s-69.667 51.5 -117 51.5s-87 -16.667 -119 -50s-48 -76.333 -48 -129c0 -49.333 15.5 -90.333 46.5 -123s71.167 -49 120.5 -49z" />
    <glyph glyph-name="Aogonek" unicode="&#x104;" horiz-adv-x="676" 
d="M658 -173c-19.333 -8.66699 -42.332 -13 -68.999 -13c-30.667 0 -54.834 7.5 -72.501 22.5s-26.5 35.5 -26.5 61.5c0 17.333 6 35.5 18 54.5s29 35.833 51 50.5l-63 170h-317l-63 -173h-91l269 710h87l270 -710h-16c-24 -8 -43.167 -20 -57.5 -36
s-21.5 -32.333 -21.5 -49c0 -30 16.333 -45 49 -45c18 0 33.667 3 47 9zM469.001 249l-131 356h-2l-129 -356h262z" />
    <glyph glyph-name="aogonek" unicode="&#x105;" horiz-adv-x="604" 
d="M550 -173c-19.333 -8.66699 -42.333 -13.002 -69 -13.002c-30.667 0 -54.834 7.5 -72.501 22.5s-26.5 35.5 -26.5 61.5c0 18 6.5 37 19.5 57s31.167 37.333 54.5 52v81h-1c-38 -62.667 -96 -94 -174 -94c-68 0 -124.5 22.833 -169.5 68.5s-67.5 104.834 -67.5 177.501
s22.333 133 67 181s101.334 72 170.001 72c36 0 69 -8.16699 99 -24.5s53.667 -39.166 71 -68.499l2 1v86h81v-487h-7c-24 -8 -43.167 -20 -57.5 -36s-21.5 -32.333 -21.5 -49c0 -30 16.333 -45 49 -45c18 0 33.667 3 47 9zM293 67.998c46 0 84.667 16 116 48
s47 73.333 47 124s-15.333 93.167 -46 127.5s-69.667 51.5 -117 51.5s-87 -16.667 -119 -50s-48 -76.333 -48 -129c0 -49.333 15.5 -90.333 46.5 -123s71.167 -49 120.5 -49z" />
    <glyph glyph-name="Cacute" unicode="&#x106;" horiz-adv-x="724" 
d="M460 911h93l-122 -129h-83zM411 -5c-100.667 0 -184.834 31.666 -252.501 94.999s-101.5 151 -101.5 263c0 104.667 31.333 191.5 94 260.5s149 103.5 259 103.5c110.667 0 203 -45.333 277 -136l-65 -54c-57.333 71.333 -128 107 -212 107
c-79.333 0 -142.833 -26.167 -190.5 -78.5s-71.5 -119.833 -71.5 -202.5c0 -83.333 24.667 -150.166 74 -200.499s112.333 -75.5 189 -75.5c84.667 0 155.334 35.667 212.001 107l65 -55c-72 -89.333 -164.333 -134 -277 -134z" />
    <glyph glyph-name="cacute" unicode="&#x107;" horiz-adv-x="521" 
d="M356 698l91 1l-124 -142h-85zM288 -6c-71.333 0 -129.667 23 -175 69s-68 106 -68 180c0 73.333 22.833 133.333 68.5 180s104.834 70 177.501 70c37.333 0 73.5 -7.5 108.5 -22.5s64.167 -36.5 87.5 -64.5l-55 -49c-35.333 41.333 -81 62 -137 62
c-50 0 -90.333 -16.333 -121 -49s-46 -75 -46 -127s15.333 -94.167 46 -126.5s70.667 -48.5 120 -48.5c59.333 0 105.666 20.667 138.999 62l56 -51c-47.333 -56.667 -114.333 -85 -201 -85z" />
    <glyph glyph-name="Ccircumflex" unicode="&#x108;" horiz-adv-x="724" 
d="M368 906h85l113 -124h-81l-74 78h-2l-74 -78h-83zM411 -5c-100.667 0 -184.834 31.666 -252.501 94.999s-101.5 151 -101.5 263c0 104.667 31.333 191.5 94 260.5s149 103.5 259 103.5c110.667 0 203 -45.333 277 -136l-65 -54c-57.333 71.333 -128 107 -212 107
c-79.333 0 -142.833 -26.167 -190.5 -78.5s-71.5 -119.833 -71.5 -202.5c0 -83.333 24.667 -150.166 74 -200.499s112.333 -75.5 189 -75.5c84.667 0 155.334 35.667 212.001 107l65 -55c-72 -89.333 -164.333 -134 -277 -134z" />
    <glyph glyph-name="ccircumflex" unicode="&#x109;" horiz-adv-x="521" 
d="M249 696h85l111 -140h-81l-72 89h-2l-73 -89h-83zM288 -6c-71.333 0 -129.667 23 -175 69s-68 106 -68 180c0 73.333 22.833 133.333 68.5 180s104.834 70 177.501 70c37.333 0 73.5 -7.5 108.5 -22.5s64.167 -36.5 87.5 -64.5l-55 -49c-35.333 41.333 -81 62 -137 62
c-50 0 -90.333 -16.333 -121 -49s-46 -75 -46 -127s15.333 -94.167 46 -126.5s70.667 -48.5 120 -48.5c59.333 0 105.666 20.667 138.999 62l56 -51c-47.333 -56.667 -114.333 -85 -201 -85z" />
    <glyph glyph-name="Cdotaccent" unicode="&#x10a;" horiz-adv-x="724" 
d="M410 792c-16.667 0 -30.667 5.66699 -42 17s-17 25 -17 41s5.66699 29.667 17 41s25.333 17 42 17s30.667 -5.66699 42 -17s17 -25 17 -41s-5.66699 -29.667 -17 -41s-25.333 -17 -42 -17zM411 -5c-100.667 0 -184.834 31.666 -252.501 94.999s-101.5 151 -101.5 263
c0 104.667 31.333 191.5 94 260.5s149 103.5 259 103.5c110.667 0 203 -45.333 277 -136l-65 -54c-57.333 71.333 -128 107 -212 107c-79.333 0 -142.833 -26.167 -190.5 -78.5s-71.5 -119.833 -71.5 -202.5c0 -83.333 24.667 -150.166 74 -200.499s112.333 -75.5 189 -75.5
c84.667 0 155.334 35.667 212.001 107l65 -55c-72 -89.333 -164.333 -134 -277 -134z" />
    <glyph glyph-name="cdotaccent" unicode="&#x10b;" horiz-adv-x="521" 
d="M290 576c-16.667 0 -30.667 5.66699 -42 17s-17 25 -17 41s5.66699 29.667 17 41s25.333 17 42 17s30.667 -5.66699 42 -17s17 -25 17 -41s-5.66699 -29.667 -17 -41s-25.333 -17 -42 -17zM288 -6c-71.333 0 -129.667 23 -175 69s-68 106 -68 180
c0 73.333 22.833 133.333 68.5 180s104.834 70 177.501 70c37.333 0 73.5 -7.5 108.5 -22.5s64.167 -36.5 87.5 -64.5l-55 -49c-35.333 41.333 -81 62 -137 62c-50 0 -90.333 -16.333 -121 -49s-46 -75 -46 -127s15.333 -94.167 46 -126.5s70.667 -48.5 120 -48.5
c59.333 0 105.666 20.667 138.999 62l56 -51c-47.333 -56.667 -114.333 -85 -201 -85z" />
    <glyph glyph-name="Ccaron" unicode="&#x10c;" horiz-adv-x="724" 
d="M252 906h82l73 -78h2l75 78h82l-116 -124h-85zM411 -5c-100.667 0 -184.834 31.666 -252.501 94.999s-101.5 151 -101.5 263c0 104.667 31.333 191.5 94 260.5s149 103.5 259 103.5c110.667 0 203 -45.333 277 -136l-65 -54c-57.333 71.333 -128 107 -212 107
c-79.333 0 -142.833 -26.167 -190.5 -78.5s-71.5 -119.833 -71.5 -202.5c0 -83.333 24.667 -150.166 74 -200.499s112.333 -75.5 189 -75.5c84.667 0 155.334 35.667 212.001 107l65 -55c-72 -89.333 -164.333 -134 -277 -134z" />
    <glyph glyph-name="ccaron" unicode="&#x10d;" horiz-adv-x="521" 
d="M134 694h82l72 -88h2l72 88h83l-115 -139h-85zM288 -6c-71.333 0 -129.667 23 -175 69s-68 106 -68 180c0 73.333 22.833 133.333 68.5 180s104.834 70 177.501 70c37.333 0 73.5 -7.5 108.5 -22.5s64.167 -36.5 87.5 -64.5l-55 -49c-35.333 41.333 -81 62 -137 62
c-50 0 -90.333 -16.333 -121 -49s-46 -75 -46 -127s15.333 -94.167 46 -126.5s70.667 -48.5 120 -48.5c59.333 0 105.666 20.667 138.999 62l56 -51c-47.333 -56.667 -114.333 -85 -201 -85z" />
    <glyph glyph-name="Dcaron" unicode="&#x10e;" horiz-adv-x="726" 
d="M190 906h82l73 -78h2l75 78h82l-116 -124h-85zM88 710h212.001c111.333 0 200.666 -32.833 267.999 -98.5s101 -151.5 101 -257.5s-33 -191.5 -99 -256.5s-155 -97.5 -267 -97.5h-215v710zM298.001 79c85.333 0 153.5 25.5 204.5 76.5s76.5 117.167 76.5 198.5
s-25.667 147.833 -77 199.5s-118.333 77.5 -201 77.5h-126v-552h123z" />
    <glyph glyph-name="dcaron" unicode="&#x10f;" horiz-adv-x="686" 
d="M641 772h80l-49 -184h-60zM283 -6c-68.667 0 -125.667 22.832 -171 68.499s-68 104.834 -68 177.501c0 72 22.667 132.167 68 180.5s102 72.5 170 72.5c77.333 0 135.333 -31 174 -93h1v336h81v-736h-78v90h-1c-38 -64 -96.667 -96 -176 -96zM294 67.999
c46.667 0 85.999 16 117.999 48s48 73.333 48 124s-15.5 93.167 -46.5 127.5s-70.5 51.5 -118.5 51.5c-47.333 0 -87.166 -16.667 -119.499 -50s-48.5 -76.333 -48.5 -129c0 -49.333 15.5 -90.333 46.5 -123s71.167 -49 120.5 -49z" />
    <glyph glyph-name="Dcroat" unicode="&#x110;" horiz-adv-x="726" 
d="M300 710c111.333 0 200.667 -32.833 268 -98.5s101 -151.5 101 -257.5s-33 -191.5 -99 -256.5s-155 -97.5 -267 -97.5h-215v316h-68v77h68v317h212zM298.001 79c85.333 0 153.5 25.5 204.5 76.5s76.5 117.167 76.5 198.5s-25.667 147.833 -77 199.5
s-118.333 77.5 -201 77.5h-126v-238h190v-77h-190v-237h123z" />
    <glyph glyph-name="dcroat" unicode="&#x111;" horiz-adv-x="605" 
d="M600 570l-62 -0.000976562v-570h-78v90h-1c-38 -64 -96.667 -96 -176 -96c-68.667 0 -125.667 22.833 -171 68.5s-68 104.834 -68 177.501c0 72 22.667 132.167 68 180.5s102 72.5 170 72.5c77.333 0 135.333 -31 174 -93h1v170h-205v58h205v108h81v-108h62v-58z
M294 67.999c46.667 0 85.999 16 117.999 48s48 73.333 48 124s-15.5 93.167 -46.5 127.5s-70.5 51.5 -118.5 51.5c-47.333 0 -87.166 -16.667 -119.499 -50s-48.5 -76.333 -48.5 -129c0 -49.333 15.5 -90.333 46.5 -123s71.167 -49 120.5 -49z" />
    <glyph glyph-name="Emacron" unicode="&#x112;" horiz-adv-x="593" 
d="M164 876h288v-67h-288v67zM88 710h435v-79h-348v-238h285v-79h-285v-235h369v-79h-456v710z" />
    <glyph glyph-name="emacron" unicode="&#x113;" horiz-adv-x="552" 
d="M431 596h-288v69h288v-69zM509 252c0 -4.66699 -0.332031 -11 -0.999023 -19s-1 -12.667 -1 -14h-380c5.33301 -46 23 -82.667 53 -110s68 -41 114 -41c58.667 0 105.667 21.667 141 65l57 -48c-47.333 -60.667 -114.333 -91 -201 -91c-72.667 0 -131.834 23 -177.501 69
s-68.5 106 -68.5 180c0 73.333 22.5 133.333 67.5 180s102.5 70 172.5 70c66 0 119.833 -22.667 161.5 -68s62.5 -103 62.5 -173zM284.001 419c-39.333 0 -73.1689 -12 -101.502 -36s-46.166 -56.667 -53.499 -98h299c-6 40.667 -21.667 73.167 -47 97.5
s-57.666 36.5 -96.999 36.5z" />
    <glyph glyph-name="Ebreve" unicode="&#x114;" horiz-adv-x="593" 
d="M308 776c-41.333 0 -74.833 11.833 -100.5 35.5s-40.167 55.167 -43.5 94.5h65c1.33301 -18.667 9 -34.5 23 -47.5s32.667 -19.5 56 -19.5s42 6.5 56 19.5s21.667 28.833 23 47.5h65c-3.33301 -39.333 -17.833 -70.833 -43.5 -94.5s-59.167 -35.5 -100.5 -35.5zM88 710
h435v-79h-348v-238h285v-79h-285v-235h369v-79h-456v710z" />
    <glyph glyph-name="ebreve" unicode="&#x115;" horiz-adv-x="552" 
d="M287 552c-42 0 -75.8311 12.5 -101.498 37.5s-39.834 59.833 -42.501 104.5h65c1.33301 -22 9 -40.5 23 -55.5s32.667 -22.5 56 -22.5s42 7.5 56 22.5s21.667 33.5 23 55.5h65c-2.66699 -44.667 -16.834 -79.5 -42.501 -104.5s-59.5 -37.5 -101.5 -37.5zM509.002 252
c0 -4.66699 -0.332031 -11 -0.999023 -19s-1 -12.667 -1 -14h-380c5.33301 -46 23 -82.667 53 -110s68 -41 114 -41c58.667 0 105.667 21.667 141 65l57 -48c-47.333 -60.667 -114.333 -91 -201 -91c-72.667 0 -131.834 23 -177.501 69s-68.5 106 -68.5 180
c0 73.333 22.5 133.333 67.5 180s102.5 70 172.5 70c66 0 119.833 -22.667 161.5 -68s62.5 -103 62.5 -173zM284.003 419c-39.333 0 -73.1689 -12 -101.502 -36s-46.166 -56.667 -53.499 -98h299c-6 40.667 -21.667 73.167 -47 97.5s-57.666 36.5 -96.999 36.5z" />
    <glyph glyph-name="Edotaccent" unicode="&#x116;" horiz-adv-x="593" 
d="M308 792c-16.667 0 -30.667 5.66699 -42 17s-17 25 -17 41s5.66699 29.667 17 41s25.333 17 42 17s30.667 -5.66699 42 -17s17 -25 17 -41s-5.66699 -29.667 -17 -41s-25.333 -17 -42 -17zM88 710h435v-79h-348v-238h285v-79h-285v-235h369v-79h-456v710z" />
    <glyph glyph-name="edotaccent" unicode="&#x117;" horiz-adv-x="552" 
d="M287 576c-16.667 0 -30.667 5.66699 -42 17s-17 25 -17 41s5.66699 29.667 17 41s25.333 17 42 17s30.667 -5.66699 42 -17s17 -25 17 -41s-5.66699 -29.667 -17 -41s-25.333 -17 -42 -17zM509 252c0 -4.66699 -0.332031 -11 -0.999023 -19s-1 -12.667 -1 -14h-380
c5.33301 -46 23 -82.667 53 -110s68 -41 114 -41c58.667 0 105.667 21.667 141 65l57 -48c-47.333 -60.667 -114.333 -91 -201 -91c-72.667 0 -131.834 23 -177.501 69s-68.5 106 -68.5 180c0 73.333 22.5 133.333 67.5 180s102.5 70 172.5 70
c66 0 119.833 -22.667 161.5 -68s62.5 -103 62.5 -173zM284.001 419c-39.333 0 -73.1689 -12 -101.502 -36s-46.166 -56.667 -53.499 -98h299c-6 40.667 -21.667 73.167 -47 97.5s-57.666 36.5 -96.999 36.5z" />
    <glyph glyph-name="Eogonek" unicode="&#x118;" horiz-adv-x="593" 
d="M558 -173c-19.333 -8.66699 -42.332 -13 -68.999 -13c-30.667 0 -54.834 7.5 -72.501 22.5s-26.5 35.5 -26.5 61.5c0 37.333 21.333 71.333 64 102h-366v710h435v-79h-348v-238h285v-79h-285v-235h369v-79h-9c-24 -8 -43.167 -20 -57.5 -36s-21.5 -32.333 -21.5 -49
c0 -30 16.333 -45 49 -45c18 0 33.667 3 47 9z" />
    <glyph glyph-name="eogonek" unicode="&#x119;" horiz-adv-x="551" 
d="M509 252c0 -4.66699 -0.333008 -11 -1 -19s-1 -12.667 -1 -14h-380c5.33301 -46 23 -82.667 53 -110s68 -41 114 -41c58.667 0 105.667 21.667 141 65l57 -48c-36.667 -46.667 -84 -75.334 -142 -86.001c-49.333 -23.333 -74 -50 -74 -80c0 -28.667 16.667 -43 50 -43
c18.667 0 34.334 3 47.001 9l6 -55c-19.333 -8.66699 -42.333 -13 -69 -13c-32.667 0 -58.334 7.66699 -77.001 23s-28 36 -28 62c0 32.667 17.333 63.334 52 92.001v2c-63.333 7.33301 -114.5 33.333 -153.5 78s-58.5 101 -58.5 169c0 73.333 22.5 133.333 67.5 180
s102.5 70 172.5 70c66 0 119.833 -22.667 161.5 -68s62.5 -103 62.5 -173zM284 419c-39.333 0 -73.1689 -12 -101.502 -36s-46.166 -56.667 -53.499 -98h299c-6 40.667 -21.667 73.167 -47 97.5s-57.666 36.5 -96.999 36.5z" />
    <glyph glyph-name="Ecaron" unicode="&#x11a;" horiz-adv-x="593" 
d="M150 906h82l73 -78h2l75 78h82l-116 -124h-85zM88 710h435v-79h-348v-238h285v-79h-285v-235h369v-79h-456v710z" />
    <glyph glyph-name="ecaron" unicode="&#x11b;" horiz-adv-x="552" 
d="M242 555l-111 139h82l72 -88h2l72 88h83l-115 -139h-85zM509 252c0 -4.66699 -0.332031 -11 -0.999023 -19s-1 -12.667 -1 -14h-380c5.33301 -46 23 -82.667 53 -110s68 -41 114 -41c58.667 0 105.667 21.667 141 65l57 -48c-47.333 -60.667 -114.333 -91 -201 -91
c-72.667 0 -131.834 23 -177.501 69s-68.5 106 -68.5 180c0 73.333 22.5 133.333 67.5 180s102.5 70 172.5 70c66 0 119.833 -22.667 161.5 -68s62.5 -103 62.5 -173zM284.001 419c-39.333 0 -73.1689 -12 -101.502 -36s-46.166 -56.667 -53.499 -98h299
c-6 40.667 -21.667 73.167 -47 97.5s-57.666 36.5 -96.999 36.5z" />
    <glyph glyph-name="Gcircumflex" unicode="&#x11c;" horiz-adv-x="759" 
d="M363 906h85l113 -124h-81l-74 78h-2l-74 -78h-83zM412 -5c-103.333 0 -188.334 32.665 -255.001 97.998s-100 152.333 -100 261c0 106.667 32.167 193.834 96.5 261.501s149.5 101.5 255.5 101.5c108.667 0 198.667 -37 270 -111l-61 -54
c-56.667 54.667 -126.667 82 -210 82c-75.333 0 -137.5 -25.667 -186.5 -77s-73.5 -119 -73.5 -203c0 -81.333 24.333 -148.166 73 -200.499s112.334 -78.5 191.001 -78.5c74 0 137 19.667 189 59v153h-206v79h293v-281c-70.667 -60 -162.667 -90 -276 -90z" />
    <glyph glyph-name="gcircumflex" unicode="&#x11d;" horiz-adv-x="600" 
d="M248 696h85l111 -140h-81l-72 89h-2l-73 -89h-83zM291 -204c-73.333 0 -139.334 17.667 -198.001 53l20 72c59.333 -34 117.666 -51 174.999 -51c52.667 0 93 13.5 121 40.5s42 62.167 42 105.5v78h-2c-39.333 -56.667 -95.666 -85 -168.999 -85
c-67.333 0 -123.5 22.333 -168.5 67s-67.5 102.667 -67.5 174c0 70 21.833 128 65.5 174s99.5 69 167.5 69c72.667 0 129.667 -28 171 -84h2v78h81v-451c0 -74 -19.667 -132.5 -59 -175.5s-99.666 -64.5 -180.999 -64.5zM289.999 84c48.667 0 88.001 16.001 118.001 48.001
s45 72.667 45 122c0 48 -15.5 87.333 -46.5 118s-69.5 46 -115.5 46c-48.667 0 -88.334 -15.667 -119.001 -47s-46 -71 -46 -119c0 -50.667 15.5 -91.334 46.5 -122.001s70.167 -46 117.5 -46z" />
    <glyph glyph-name="Gbreve" unicode="&#x11e;" horiz-adv-x="759" 
d="M405 776c-41.333 0 -74.833 11.833 -100.5 35.5s-40.167 55.167 -43.5 94.5h65c1.33301 -18.667 9 -34.5 23 -47.5s32.667 -19.5 56 -19.5s42 6.5 56 19.5s21.667 28.833 23 47.5h65c-3.33301 -39.333 -17.833 -70.833 -43.5 -94.5s-59.167 -35.5 -100.5 -35.5zM412 -5
c-103.333 0 -188.334 32.665 -255.001 97.998s-100 152.333 -100 261c0 106.667 32.167 193.834 96.5 261.501s149.5 101.5 255.5 101.5c108.667 0 198.667 -37 270 -111l-61 -54c-56.667 54.667 -126.667 82 -210 82c-75.333 0 -137.5 -25.667 -186.5 -77
s-73.5 -119 -73.5 -203c0 -81.333 24.333 -148.166 73 -200.499s112.334 -78.5 191.001 -78.5c74 0 137 19.667 189 59v153h-206v79h293v-281c-70.667 -60 -162.667 -90 -276 -90z" />
    <glyph glyph-name="gbreve" unicode="&#x11f;" horiz-adv-x="600" 
d="M289 552c-42 0 -75.8311 12.5 -101.498 37.5s-39.834 59.833 -42.501 104.5h65c1.33301 -22 9 -40.5 23 -55.5s32.667 -22.5 56 -22.5s42 7.5 56 22.5s21.667 33.5 23 55.5h65c-2.66699 -44.667 -16.834 -79.5 -42.501 -104.5s-59.5 -37.5 -101.5 -37.5zM291.002 -204
c-73.333 0 -139.334 17.667 -198.001 53l20 72c59.333 -34 117.666 -51 174.999 -51c52.667 0 93 13.5 121 40.5s42 62.167 42 105.5v78h-2c-39.333 -56.667 -95.666 -85 -168.999 -85c-67.333 0 -123.5 22.333 -168.5 67s-67.5 102.667 -67.5 174c0 70 21.833 128 65.5 174
s99.5 69 167.5 69c72.667 0 129.667 -28 171 -84h2v78h81v-451c0 -74 -19.667 -132.5 -59 -175.5s-99.666 -64.5 -180.999 -64.5zM290.001 84c48.667 0 88.001 16.001 118.001 48.001s45 72.667 45 122c0 48 -15.5 87.333 -46.5 118s-69.5 46 -115.5 46
c-48.667 0 -88.334 -15.667 -119.001 -47s-46 -71 -46 -119c0 -50.667 15.5 -91.334 46.5 -122.001s70.167 -46 117.5 -46z" />
    <glyph glyph-name="Gdotaccent" unicode="&#x120;" horiz-adv-x="759" 
d="M405 792c-16.667 0 -30.667 5.66699 -42 17s-17 25 -17 41s5.66699 29.667 17 41s25.333 17 42 17s30.667 -5.66699 42 -17s17 -25 17 -41s-5.66699 -29.667 -17 -41s-25.333 -17 -42 -17zM412 -5c-103.333 0 -188.334 32.665 -255.001 97.998s-100 152.333 -100 261
c0 106.667 32.167 193.834 96.5 261.501s149.5 101.5 255.5 101.5c108.667 0 198.667 -37 270 -111l-61 -54c-56.667 54.667 -126.667 82 -210 82c-75.333 0 -137.5 -25.667 -186.5 -77s-73.5 -119 -73.5 -203c0 -81.333 24.333 -148.166 73 -200.499
s112.334 -78.5 191.001 -78.5c74 0 137 19.667 189 59v153h-206v79h293v-281c-70.667 -60 -162.667 -90 -276 -90z" />
    <glyph glyph-name="gdotaccent" unicode="&#x121;" horiz-adv-x="600" 
d="M289 576c-16.667 0 -30.667 5.66699 -42 17s-17 25 -17 41s5.66699 29.667 17 41s25.333 17 42 17s30.667 -5.66699 42 -17s17 -25 17 -41s-5.66699 -29.667 -17 -41s-25.333 -17 -42 -17zM291 -204c-73.333 0 -139.334 17.667 -198.001 53l20 72
c59.333 -34 117.666 -51 174.999 -51c52.667 0 93 13.5 121 40.5s42 62.167 42 105.5v78h-2c-39.333 -56.667 -95.666 -85 -168.999 -85c-67.333 0 -123.5 22.333 -168.5 67s-67.5 102.667 -67.5 174c0 70 21.833 128 65.5 174s99.5 69 167.5 69
c72.667 0 129.667 -28 171 -84h2v78h81v-451c0 -74 -19.667 -132.5 -59 -175.5s-99.666 -64.5 -180.999 -64.5zM289.999 84c48.667 0 88.001 16.001 118.001 48.001s45 72.667 45 122c0 48 -15.5 87.333 -46.5 118s-69.5 46 -115.5 46
c-48.667 0 -88.334 -15.667 -119.001 -47s-46 -71 -46 -119c0 -50.667 15.5 -91.334 46.5 -122.001s70.167 -46 117.5 -46z" />
    <glyph glyph-name="Gcommaaccent" unicode="&#x122;" horiz-adv-x="759" 
d="M412 -5c-103.333 0 -188.334 32.665 -255.001 97.998s-100 152.333 -100 261c0 106.667 32.167 193.834 96.5 261.501s149.5 101.5 255.5 101.5c108.667 0 198.667 -37 270 -111l-61 -54c-56.667 54.667 -126.667 82 -210 82c-75.333 0 -137.5 -25.667 -186.5 -77
s-73.5 -119 -73.5 -203c0 -81.333 24.333 -148.166 73 -200.499s112.334 -78.5 191.001 -78.5c74 0 137 19.667 189 59v153h-206v79h293v-281c-70.667 -60 -162.667 -90 -276 -90zM312.999 -163.002c22 4.66699 37.333 12.167 46 22.5s13 24.166 13 41.499
c0 11.333 -1.66699 26.333 -5 45h74c2.66699 -13.333 4 -29.666 4 -48.999c0 -32 -10.167 -57.333 -30.5 -76s-47.5 -29.667 -81.5 -33z" />
    <glyph glyph-name="gcommaaccent" unicode="&#x123;" horiz-adv-x="600" 
d="M387 666c-22 -4.66699 -37.333 -12.167 -46 -22.5s-13 -24.166 -13 -41.499c0 -11.333 1.66699 -26.333 5 -45h-74c-2.66699 13.333 -4 29.666 -4 48.999c0 32 10.167 57.333 30.5 76s47.5 29.667 81.5 33zM291 -204c-73.333 0 -139.334 17.667 -198.001 53l20 72
c59.333 -34 117.666 -51 174.999 -51c52.667 0 93 13.5 121 40.5s42 62.167 42 105.5v78h-2c-39.333 -56.667 -95.666 -85 -168.999 -85c-67.333 0 -123.5 22.333 -168.5 67s-67.5 102.667 -67.5 174c0 70 21.833 128 65.5 174s99.5 69 167.5 69
c72.667 0 129.667 -28 171 -84h2v78h81v-451c0 -74 -19.667 -132.5 -59 -175.5s-99.666 -64.5 -180.999 -64.5zM289.999 84c48.667 0 88.001 16.001 118.001 48.001s45 72.667 45 122c0 48 -15.5 87.333 -46.5 118s-69.5 46 -115.5 46
c-48.667 0 -88.334 -15.667 -119.001 -47s-46 -71 -46 -119c0 -50.667 15.5 -91.334 46.5 -122.001s70.167 -46 117.5 -46z" />
    <glyph glyph-name="Hcircumflex" unicode="&#x124;" horiz-adv-x="721" 
d="M320 906h85l113 -124h-81l-74 78h-2l-74 -78h-83zM88 710h87v-333h371v333h87v-710h-87v298h-371v-298h-87v710z" />
    <glyph glyph-name="hcircumflex" unicode="&#x125;" horiz-adv-x="581" 
d="M191 917h85l113 -124h-81l-74 78h-2l-74 -78h-83zM76 736h80.999v-334h1c40 60.667 100 91 180 91c54.667 0 97.834 -16.667 129.501 -50s47.5 -83.666 47.5 -150.999v-292h-81v269c0 100 -40 150 -120 150c-48.667 0 -87 -15.333 -115 -46s-42 -73.334 -42 -128.001
v-245h-81v736z" />
    <glyph glyph-name="Hbar" unicode="&#x126;" horiz-adv-x="722" 
d="M694 525h-60v-525h-87v298h-371v-298h-87v525h-63v61h63v124h87v-124h371v124h87v-124h60v-61zM547 525h-371v-148h371v148z" />
    <glyph glyph-name="hbar" unicode="&#x127;" horiz-adv-x="581" 
d="M338 493c54.667 0 97.833 -16.667 129.5 -50s47.5 -83.666 47.5 -150.999v-292h-81v269c0 100 -40 150 -120 150c-48.667 0 -87 -15.333 -115 -46s-42 -73.334 -42 -128.001v-245h-81v570h-71v58h71v108h81v-108h189v-58h-189v-168h1c40 60.667 100 91 180 91z" />
    <glyph glyph-name="Itilde" unicode="&#x128;" horiz-adv-x="273" 
d="M214 782c-23.333 0 -51.6689 11.001 -85.002 33.001c-27.333 16.667 -48.333 25 -63 25c-23.333 0 -42.666 -18.333 -57.999 -55l-52 22c21.333 62.667 56 94 104 94c24 0 52.333 -10 85 -30c2.66699 -1.33301 6.83398 -3.83301 12.501 -7.5s10 -6.33398 13 -8.00098
s7 -3.66699 12 -6s9.5 -4 13.5 -5s8.33301 -1.5 13 -1.5c22.667 0 40.667 18.333 54 55l52 -17c-20 -66 -53.667 -99 -101 -99zM92.9971 710.001h87v-710h-87v710z" />
    <glyph glyph-name="itilde" unicode="&#x129;" horiz-adv-x="245" 
d="M201 562c-23.333 0 -52.667 11.999 -88 35.999c-24.667 16 -44 24 -58 24c-26 0 -46 -18.667 -60 -56l-52 23c20.667 65.333 55.334 98 104.001 98c25.333 0 52.333 -9.66699 81 -29l12 -8c6 -4 10.5 -6.83301 13.5 -8.5s6.83301 -3.66699 11.5 -6s9.16699 -4 13.5 -5
s8.83301 -1.5 13.5 -1.5c25.333 0 44.666 18.333 57.999 55l51 -17c-8.66699 -33.333 -22 -59.166 -40 -77.499s-38 -27.5 -60 -27.5zM81.999 486.999h81v-487h-81v487z" />
    <glyph glyph-name="Imacron" unicode="&#x12a;" horiz-adv-x="273" 
d="M-8 876h288v-67h-288v67zM93 710h87v-710h-87v710z" />
    <glyph glyph-name="imacron" unicode="&#x12b;" horiz-adv-x="245" 
d="M-21 665h288v-69h-288v69zM82 487h81v-487h-81v487z" />
    <glyph glyph-name="Ibreve" unicode="&#x12c;" horiz-adv-x="273" 
d="M136 776c-41.333 0 -74.833 11.833 -100.5 35.5s-40.167 55.167 -43.5 94.5h65c1.33301 -18.667 9 -34.5 23 -47.5s32.667 -19.5 56 -19.5s42 6.5 56 19.5s21.667 28.833 23 47.5h65c-3.33301 -39.333 -17.833 -70.833 -43.5 -94.5s-59.167 -35.5 -100.5 -35.5zM93 710
h87v-710h-87v710z" />
    <glyph glyph-name="ibreve" unicode="&#x12d;" horiz-adv-x="245" 
d="M123 554c-36 0 -66.3301 12.333 -90.9971 37s-38.334 59 -41.001 103h65c1.33301 -24.667 7.66602 -44.334 18.999 -59.001s27.333 -22 48 -22c20 0 35.667 7.33301 47 22s17.666 34.334 18.999 59.001h65c-2.66699 -42.667 -15.667 -76.667 -39 -102s-54 -38 -92 -38z
M82.0029 487h81v-487h-81v487z" />
    <glyph glyph-name="Iogonek" unicode="&#x12e;" horiz-adv-x="273" 
d="M190 -173c-19.333 -8.66699 -42.332 -13 -68.999 -13c-30.667 0 -54.834 7.5 -72.501 22.5s-26.5 35.5 -26.5 61.5c0 18 6.16699 36.667 18.5 56s29.833 36.333 52.5 51v705h87v-710h-13c-24 -8 -43.167 -20 -57.5 -36s-21.5 -32.333 -21.5 -49c0 -30 16.333 -45 49 -45
c18 0 33.667 3 47 9z" />
    <glyph glyph-name="iogonek" unicode="&#x12f;" horiz-adv-x="245" 
d="M123 576c-16.667 0 -30.667 5.66699 -42 17s-17 25 -17 41s5.66699 29.667 17 41s25.333 17 42 17s30.667 -5.66699 42 -17s17 -25 17 -41s-5.66699 -29.667 -17 -41s-25.333 -17 -42 -17zM126 -130c18.667 0 34.334 3 47.001 9l6 -52
c-19.333 -8.66699 -42.333 -13 -69 -13c-30.667 0 -54.834 7.5 -72.501 22.5s-26.5 35.5 -26.5 61.5c0 18 6.16699 36.667 18.5 56s29.833 36.333 52.5 51v482h81v-487h-7c-24 -8 -43.167 -20 -57.5 -36s-21.5 -32.333 -21.5 -49c0 -30 16.333 -45 49 -45z" />
    <glyph glyph-name="Idotaccent" unicode="&#x130;" horiz-adv-x="273" 
d="M136 792c-16.667 0 -30.667 5.66699 -42 17s-17 25 -17 41s5.66699 29.667 17 41s25.333 17 42 17s30.667 -5.66699 42 -17s17 -25 17 -41s-5.66699 -29.667 -17 -41s-25.333 -17 -42 -17zM93 710h87v-710h-87v710z" />
    <glyph glyph-name="dotlessi" unicode="&#x131;" horiz-adv-x="245" 
d="M82 487h81v-487h-81v487z" />
    <glyph glyph-name="IJ" unicode="&#x132;" horiz-adv-x="766" 
d="M93 710h87v-710h-87v710zM490 -5c-33.333 0 -67.168 7.83301 -101.501 23.5s-63.166 38.167 -86.499 67.5l50 64c42 -48 86.667 -72 134 -72c77.333 0 116 51.667 116 155v477h88v-479c0 -157.333 -66.667 -236 -200 -236z" />
    <glyph glyph-name="ij" unicode="&#x133;" horiz-adv-x="469" 
d="M123 576c-16.667 0 -30.667 5.66699 -42 17s-17 25 -17 41s5.66699 29.667 17 41s25.333 17 42 17s30.667 -5.66699 42 -17s17 -25 17 -41s-5.66699 -29.667 -17 -41s-25.333 -17 -42 -17zM359 576c-16.667 0 -30.667 5.66699 -42 17s-17 25 -17 41s5.66699 29.667 17 41
s25.333 17 42 17s30.667 -5.66699 42 -17s17 -25 17 -41s-5.66699 -29.667 -17 -41s-25.333 -17 -42 -17zM82 487h81v-487h-81v487zM277 -204c-30.667 0 -58.666 5.33203 -83.999 15.999l13 72c16 -10 34.333 -15 55 -15c38.667 0 58 26.667 58 80v538h81v-538
c0 -47.333 -10.833 -84.666 -32.5 -111.999s-51.834 -41 -90.501 -41z" />
    <glyph glyph-name="Jcircumflex" unicode="&#x134;" horiz-adv-x="493" 
d="M331 906h85l113 -124h-81l-74 78h-2l-74 -78h-83zM217 -5c-33.333 0 -67.168 7.83301 -101.501 23.5s-63.166 38.167 -86.499 67.5l50 64c42 -48 86.667 -72 134 -72c77.333 0 116 51.667 116 155v477h88v-479c0 -157.333 -66.667 -236 -200 -236z" />
    <glyph glyph-name="jcircumflex" unicode="&#x135;" horiz-adv-x="224" 
d="M73 696h85l111 -140h-81l-72 89h-2l-73 -89h-83zM32 -204c-30.667 0 -58.666 5.33203 -83.999 15.999l13 72c16 -10 34.333 -15 55 -15c38.667 0 58 26.667 58 80v538h81v-538c0 -47.333 -10.833 -84.666 -32.5 -111.999s-51.834 -41 -90.501 -41z" />
    <glyph glyph-name="Kcommaaccent" unicode="&#x136;" horiz-adv-x="646" 
d="M88 710h87v-389h2l322 389h112l-275 -324l282 -386h-109l-231 318l-103 -121v-197h-87v710zM237 -163c22 4.66699 37.333 12.167 46 22.5s13 24.166 13 41.499c0 11.333 -1.66699 26.333 -5 45h74c2.66699 -13.333 4 -29.666 4 -48.999c0 -32 -10.167 -57.333 -30.5 -76
s-47.5 -29.667 -81.5 -33z" />
    <glyph glyph-name="kcommaaccent" unicode="&#x137;" horiz-adv-x="517" 
d="M76 736h81v-515l1 -1l239 267h98l-182 -201l184 -286h-93l-147 229l-100 -108v-121h-81v736zM180 -163c22 4.66699 37.333 12.167 46 22.5s13 24.166 13 41.499c0 11.333 -1.66699 26.333 -5 45h74c2.66699 -13.333 4 -29.666 4 -48.999c0 -32 -10.167 -57.333 -30.5 -76
s-47.5 -29.667 -81.5 -33z" />
    <glyph glyph-name="Lacute" unicode="&#x139;" horiz-adv-x="557" 
d="M303 911h93l-122 -129h-83zM88 710h87v-631h351v-79h-438v710z" />
    <glyph glyph-name="lacute" unicode="&#x13a;" horiz-adv-x="245" 
d="M192 924h93l-122 -129h-83zM82 736h81v-736h-81v736z" />
    <glyph glyph-name="Lcommaaccent" unicode="&#x13b;" horiz-adv-x="557" 
d="M88 710h87v-631h351v-79h-438v710zM207 -163c22 4.66699 37.333 12.167 46 22.5s13 24.166 13 41.499c0 11.333 -1.66699 26.333 -5 45h74c2.66699 -13.333 4 -29.666 4 -48.999c0 -32 -10.167 -57.333 -30.5 -76s-47.5 -29.667 -81.5 -33z" />
    <glyph glyph-name="lcommaaccent" unicode="&#x13c;" horiz-adv-x="245" 
d="M82 736h81v-736h-81v736zM30 -163c22 4.66699 37.333 12.167 46 22.5s13 24.166 13 41.499c0 11.333 -1.66699 26.333 -5 45h74c2.66699 -13.333 4 -29.666 4 -48.999c0 -32 -10.167 -57.333 -30.5 -76s-47.5 -29.667 -81.5 -33z" />
    <glyph glyph-name="Lcaron" unicode="&#x13d;" horiz-adv-x="557" 
d="M333 771h80l-49 -184h-60zM88 710h87v-631h351v-79h-438v710z" />
    <glyph glyph-name="lcaron" unicode="&#x13e;" horiz-adv-x="310" 
d="M266 772h80l-49 -184h-60zM82 736h81v-736h-81v736z" />
    <glyph glyph-name="Ldot" unicode="&#x13f;" horiz-adv-x="557" 
d="M88 710h87v-631h351v-79h-438v710zM416 280c-16.667 0 -30.834 5.66699 -42.501 17s-17.5 25.333 -17.5 42s5.83301 30.667 17.5 42s25.834 17 42.501 17s30.667 -5.66699 42 -17s17 -25.333 17 -42s-5.66699 -30.667 -17 -42s-25.333 -17 -42 -17z" />
    <glyph glyph-name="ldot" unicode="&#x140;" horiz-adv-x="370" 
d="M82 736h81v-736h-81v736zM307 196c-16.667 0 -30.834 5.66699 -42.501 17s-17.5 25.333 -17.5 42s5.83301 30.667 17.5 42s25.834 17 42.501 17s30.667 -5.66699 42 -17s17 -25.333 17 -42s-5.66699 -30.667 -17 -42s-25.333 -17 -42 -17z" />
    <glyph glyph-name="Lslash" unicode="&#x141;" horiz-adv-x="572" 
d="M540 79v-79h-438v281l-80 -34v73l80 35v355h87v-318l119 52v-74l-119 -51v-240h351z" />
    <glyph glyph-name="lslash" unicode="&#x142;" horiz-adv-x="274" 
d="M255 338l-74 -31v-307h-81v273l-80 -34v66l80 34v397h81v-363l74 31v-66z" />
    <glyph glyph-name="Nacute" unicode="&#x143;" horiz-adv-x="751" 
d="M397 911h93l-122 -129h-83zM88 710h86l401 -565h1v565h87v-710h-89l-397 559h-2v-559h-87v710z" />
    <glyph glyph-name="nacute" unicode="&#x144;" horiz-adv-x="576" 
d="M350 698l91 1l-124 -142h-85zM76 487l81 -0.000976562v-88h1c40.667 62.667 99.667 94 177 94c54 0 96.667 -17.167 128 -51.5s47 -85.166 47 -152.499v-289h-81v266c0 102 -40 153 -120 153c-46.667 0 -83.667 -15.667 -111 -47s-41 -74.333 -41 -129v-243h-81v487z" />
    <glyph glyph-name="Ncommaaccent" unicode="&#x145;" horiz-adv-x="751" 
d="M88 710h86l401 -565h1v565h87v-710h-89l-397 559h-2v-559h-87v710zM282 -163c22 4.66699 37.333 12.167 46 22.5s13 24.166 13 41.499c0 11.333 -1.66699 26.333 -5 45h74c2.66699 -13.333 4 -29.666 4 -48.999c0 -32 -10.167 -57.333 -30.5 -76s-47.5 -29.667 -81.5 -33
z" />
    <glyph glyph-name="ncommaaccent" unicode="&#x146;" horiz-adv-x="576" 
d="M76 487l81 -0.000976562v-88h1c40.667 62.667 99.667 94 177 94c54 0 96.667 -17.167 128 -51.5s47 -85.166 47 -152.499v-289h-81v266c0 102 -40 153 -120 153c-46.667 0 -83.667 -15.667 -111 -47s-41 -74.333 -41 -129v-243h-81v487zM206 -163.001
c22 4.66699 37.333 12.167 46 22.5s13 24.166 13 41.499c0 11.333 -1.66699 26.333 -5 45h74c2.66699 -13.333 4 -29.666 4 -48.999c0 -32 -10.167 -57.333 -30.5 -76s-47.5 -29.667 -81.5 -33z" />
    <glyph glyph-name="Ncaron" unicode="&#x147;" horiz-adv-x="751" 
d="M217 906h82l73 -78h2l75 78h82l-116 -124h-85zM88 710h86l401 -565h1v565h87v-710h-89l-397 559h-2v-559h-87v710z" />
    <glyph glyph-name="ncaron" unicode="&#x148;" horiz-adv-x="576" 
d="M135 694h82l72 -88h2l72 88h83l-115 -139h-85zM76 487l81 -0.000976562v-88h1c40.667 62.667 99.667 94 177 94c54 0 96.667 -17.167 128 -51.5s47 -85.166 47 -152.499v-289h-81v266c0 102 -40 153 -120 153c-46.667 0 -83.667 -15.667 -111 -47s-41 -74.333 -41 -129
v-243h-81v487z" />
    <glyph glyph-name="Eng" unicode="&#x14a;" horiz-adv-x="751" 
d="M663 710v-721c0 -128.667 -60 -193 -180 -193c-28.667 0 -56 4.66699 -82 14l6 73c17.333 -8.66699 38.333 -13 63 -13c70.667 0 106 38.667 106 116v13l-399 559h-2v-558h-87v710h85l401 -566l2 1v565h87z" />
    <glyph glyph-name="eng" unicode="&#x14b;" horiz-adv-x="573" 
d="M344 -204c-24 0 -47.667 4.66602 -71 13.999l6 66c19.333 -7.33301 37.666 -11 54.999 -11c33.333 0 57 8 71 24s21 43.667 21 83v294c0 102 -39.667 153 -119 153c-45.333 0 -81.666 -15.667 -108.999 -47s-41 -74.333 -41 -129v-243h-81v487h81v-88h1
c40.667 62.667 98.667 94 174 94c54 0 96.667 -17.167 128 -51.5s47 -85.166 47 -152.499v-310c0 -62 -13.167 -108 -39.5 -138s-67.5 -45 -123.5 -45z" />
    <glyph glyph-name="Omacron" unicode="&#x14c;" horiz-adv-x="825" 
d="M270 876h288v-67h-288v67zM414 -6c-104 0 -189.499 33.833 -256.499 101.5s-100.5 154.167 -100.5 259.5s33.667 192 101 260s152.666 102 255.999 102c101.333 0 185.666 -33.667 252.999 -101s101 -154.333 101 -261s-33.667 -193.5 -101 -260.5
s-151.666 -100.5 -252.999 -100.5zM414.001 76c74.667 0 137.167 26.168 187.5 78.501s75.5 119.166 75.5 200.499s-25.167 148.333 -75.5 201s-112.833 79 -187.5 79c-76.667 0 -140.167 -26.5 -190.5 -79.5s-75.5 -119.833 -75.5 -200.5c0 -80 25.167 -146.5 75.5 -199.5
s113.833 -79.5 190.5 -79.5z" />
    <glyph glyph-name="omacron" unicode="&#x14d;" horiz-adv-x="593" 
d="M153 665h288v-69h-288v69zM297 -6c-74.667 0 -135.334 23.667 -182.001 71s-70 106.666 -70 177.999s23.333 130.833 70 178.5s107.334 71.5 182.001 71.5c72.667 0 132.667 -23.333 180 -70s71 -106.667 71 -180s-23.667 -133.166 -71 -179.499
s-107.333 -69.5 -180 -69.5zM297 68c47.333 0 87.166 16.333 119.499 49s48.5 74.667 48.5 126s-16.167 93.5 -48.5 126.5s-72.166 49.5 -119.499 49.5c-50 0 -90.667 -17 -122 -51s-47 -75.667 -47 -125s15.833 -90.833 47.5 -124.5s72.167 -50.5 121.5 -50.5z" />
    <glyph glyph-name="Obreve" unicode="&#x14e;" horiz-adv-x="825" 
d="M414 776c-41.333 0 -74.833 11.833 -100.5 35.5s-40.167 55.167 -43.5 94.5h65c1.33301 -18.667 9 -34.5 23 -47.5s32.667 -19.5 56 -19.5s42 6.5 56 19.5s21.667 28.833 23 47.5h65c-3.33301 -39.333 -17.833 -70.833 -43.5 -94.5s-59.167 -35.5 -100.5 -35.5zM414 -6
c-104 0 -189.499 33.833 -256.499 101.5s-100.5 154.167 -100.5 259.5s33.667 192 101 260s152.666 102 255.999 102c101.333 0 185.666 -33.667 252.999 -101s101 -154.333 101 -261s-33.667 -193.5 -101 -260.5s-151.666 -100.5 -252.999 -100.5zM414.001 76
c74.667 0 137.167 26.168 187.5 78.501s75.5 119.166 75.5 200.499s-25.167 148.333 -75.5 201s-112.833 79 -187.5 79c-76.667 0 -140.167 -26.5 -190.5 -79.5s-75.5 -119.833 -75.5 -200.5c0 -80 25.167 -146.5 75.5 -199.5s113.833 -79.5 190.5 -79.5z" />
    <glyph glyph-name="obreve" unicode="&#x14f;" horiz-adv-x="593" 
d="M297 552c-42 0 -75.8311 12.5 -101.498 37.5s-39.834 59.833 -42.501 104.5h65c1.33301 -22 9 -40.5 23 -55.5s32.667 -22.5 56 -22.5s42 7.5 56 22.5s21.667 33.5 23 55.5h65c-2.66699 -44.667 -16.834 -79.5 -42.501 -104.5s-59.5 -37.5 -101.5 -37.5zM297.002 -6
c-74.667 0 -135.334 23.667 -182.001 71s-70 106.666 -70 177.999s23.333 130.833 70 178.5s107.334 71.5 182.001 71.5c72.667 0 132.667 -23.333 180 -70s71 -106.667 71 -180s-23.667 -133.166 -71 -179.499s-107.333 -69.5 -180 -69.5zM297.002 68
c47.333 0 87.166 16.333 119.499 49s48.5 74.667 48.5 126s-16.167 93.5 -48.5 126.5s-72.166 49.5 -119.499 49.5c-50 0 -90.667 -17 -122 -51s-47 -75.667 -47 -125s15.833 -90.833 47.5 -124.5s72.167 -50.5 121.5 -50.5z" />
    <glyph glyph-name="Ohungarumlaut" unicode="&#x150;" horiz-adv-x="825" 
d="M408 922l85 1l-124 -142h-79zM575 922l85 1l-124 -142h-78zM414 -6c-104 0 -189.499 33.833 -256.499 101.5s-100.5 154.167 -100.5 259.5s33.667 192 101 260s152.666 102 255.999 102c101.333 0 185.666 -33.667 252.999 -101s101 -154.333 101 -261
s-33.667 -193.5 -101 -260.5s-151.666 -100.5 -252.999 -100.5zM414.001 76c74.667 0 137.167 26.168 187.5 78.501s75.5 119.166 75.5 200.499s-25.167 148.333 -75.5 201s-112.833 79 -187.5 79c-76.667 0 -140.167 -26.5 -190.5 -79.5s-75.5 -119.833 -75.5 -200.5
c0 -80 25.167 -146.5 75.5 -199.5s113.833 -79.5 190.5 -79.5z" />
    <glyph glyph-name="ohungarumlaut" unicode="&#x151;" horiz-adv-x="593" 
d="M291 698l85 1l-124 -142h-79zM458 698l85 1l-124 -142h-78zM297 -6c-74.667 0 -135.334 23.667 -182.001 71s-70 106.666 -70 177.999s23.333 130.833 70 178.5s107.334 71.5 182.001 71.5c72.667 0 132.667 -23.333 180 -70s71 -106.667 71 -180
s-23.667 -133.166 -71 -179.499s-107.333 -69.5 -180 -69.5zM297 68c47.333 0 87.166 16.333 119.499 49s48.5 74.667 48.5 126s-16.167 93.5 -48.5 126.5s-72.166 49.5 -119.499 49.5c-50 0 -90.667 -17 -122 -51s-47 -75.667 -47 -125s15.833 -90.833 47.5 -124.5
s72.167 -50.5 121.5 -50.5z" />
    <glyph glyph-name="OE" unicode="&#x152;" horiz-adv-x="954" 
d="M905 79v-79h-489c-105.333 0 -191.5 34.167 -258.5 102.5s-100.5 152.833 -100.5 253.5c0 101.333 33.5 185.833 100.5 253.5s153.167 101.167 258.5 100.5h469v-79h-350v-239h291v-79h-291v-234h370zM452 82v547h-36c-75.333 0.666992 -138.833 -25 -190.5 -77
s-77.5 -117.333 -77.5 -196s25.833 -144.167 77.5 -196.5s115.167 -78.5 190.5 -78.5z" />
    <glyph glyph-name="oe" unicode="&#x153;" horiz-adv-x="815" 
d="M785 251c0 -12.667 -0.666992 -22.999 -2 -30.999h-329c3.33301 -47.333 17.333 -84.5 42 -111.5s58 -40.5 100 -40.5c48 0 87.333 21.667 118 65l57 -48c-42.667 -60.667 -102.334 -91 -179.001 -91c-84 0 -144.667 35.667 -182 107h-2
c-14 -32.667 -36.167 -58.667 -66.5 -78s-63.166 -29 -98.499 -29c-64.667 0 -116 22.667 -154 68s-57 105.333 -57 180c0 72.667 19.5 132.667 58.5 180s89.833 71 152.5 71c39.333 0 73 -9.83301 101 -29.5s49.333 -45.834 64 -78.501h2c36 72 95.667 108 179 108
c58 0 105.167 -22.667 141.5 -68s54.5 -103.333 54.5 -174zM242 67.001c36 0 66.333 16.5 91 49.5s37 75.167 37 126.5s-11.833 93.5 -35.5 126.5s-53.167 49.5 -88.5 49.5c-38 0 -69.333 -16.667 -94 -50s-37 -75.333 -37 -126c0 -52.667 11.5 -95.167 34.5 -127.5
s53.833 -48.5 92.5 -48.5zM704 283.001c-3.33301 42 -15.334 75.167 -36.001 99.5s-47.667 36.5 -81 36.5c-38 0 -68.167 -12.167 -90.5 -36.5s-36.166 -57.5 -41.499 -99.5h249z" />
    <glyph glyph-name="Racute" unicode="&#x154;" horiz-adv-x="642" 
d="M340 911h93l-122 -129h-83zM88 710h252c78.667 0 137.5 -20 176.5 -60s58.5 -93.333 58.5 -160c0 -116.667 -59 -187 -177 -211l196 -279h-104l-188 271h-127v-271h-87v710zM316 350c56.667 0 99 12.833 127 38.5s42 60.167 42 103.5c0 44.667 -13.833 79 -41.5 103
s-66.167 36 -115.5 36h-153v-281h141z" />
    <glyph glyph-name="racute" unicode="&#x155;" horiz-adv-x="353" 
d="M241 698l91 1l-124 -142h-85zM76 487h80.999v-89h2c37.333 63.333 90 95 158 95c8.66699 0 15.334 -0.333008 20.001 -1v-90c-16 1.33301 -26.667 2 -32 2c-45.333 0 -81.333 -15.667 -108 -47s-40 -72 -40 -122v-235h-81v487z" />
    <glyph glyph-name="Rcommaaccent" unicode="&#x156;" horiz-adv-x="642" 
d="M88 710h252c78.667 0 137.5 -20 176.5 -60s58.5 -93.333 58.5 -160c0 -116.667 -59 -187 -177 -211l196 -279h-104l-188 271h-127v-271h-87v710zM316 350c56.667 0 99 12.833 127 38.5s42 60.167 42 103.5c0 44.667 -13.833 79 -41.5 103s-66.167 36 -115.5 36h-153v-281
h141zM223 -163c22 4.66699 37.333 12.167 46 22.5s13 24.166 13 41.499c0 11.333 -1.66699 26.333 -5 45h74c2.66699 -13.333 4 -29.666 4 -48.999c0 -32 -10.167 -57.333 -30.5 -76s-47.5 -29.667 -81.5 -33z" />
    <glyph glyph-name="rcommaaccent" unicode="&#x157;" horiz-adv-x="353" 
d="M76 487h80.999v-89h2c37.333 63.333 90 95 158 95c8.66699 0 15.334 -0.333008 20.001 -1v-90c-16 1.33301 -26.667 2 -32 2c-45.333 0 -81.333 -15.667 -108 -47s-40 -72 -40 -122v-235h-81v487zM24.999 -163c22 4.66699 37.333 12.167 46 22.5s13 24.166 13 41.499
c0 11.333 -1.66699 26.333 -5 45h74c2.66699 -13.333 4 -29.666 4 -48.999c0 -32 -10.167 -57.333 -30.5 -76s-47.5 -29.667 -81.5 -33z" />
    <glyph glyph-name="Rcaron" unicode="&#x158;" horiz-adv-x="642" 
d="M160 906h82l73 -78h2l75 78h82l-116 -124h-85zM88 710h252c78.667 0 137.5 -20 176.5 -60s58.5 -93.333 58.5 -160c0 -116.667 -59 -187 -177 -211l196 -279h-104l-188 271h-127v-271h-87v710zM316 350c56.667 0 99 12.833 127 38.5s42 60.167 42 103.5
c0 44.667 -13.833 79 -41.5 103s-66.167 36 -115.5 36h-153v-281h141z" />
    <glyph glyph-name="rcaron" unicode="&#x159;" horiz-adv-x="353" 
d="M56 694h82l72 -88h2l72 88h83l-115 -139h-85zM76 487h80.999v-89h2c37.333 63.333 90 95 158 95c8.66699 0 15.334 -0.333008 20.001 -1v-90c-16 1.33301 -26.667 2 -32 2c-45.333 0 -81.333 -15.667 -108 -47s-40 -72 -40 -122v-235h-81v487z" />
    <glyph glyph-name="Sacute" unicode="&#x15a;" horiz-adv-x="580" 
d="M340 911h93l-122 -129h-83zM293 -6c-98.667 0 -182.336 36.668 -251.003 110.001l56 67c24.667 -30.667 54.5 -54.334 89.5 -71.001s70.5 -25 106.5 -25c44 0 79.333 9.66699 106 29s40 46 40 80c0 18.667 -3.16699 34.5 -9.5 47.5s-17.166 24.667 -32.499 35
s-30.166 18.666 -44.499 24.999s-34.833 14.5 -61.5 24.5c-4.66699 2 -8.33398 3.33301 -11.001 4c-26 9.33301 -47.167 17.5 -63.5 24.5s-35 16.833 -56 29.5s-37.333 25.667 -49 39s-21.834 30 -30.501 50s-13 42 -13 66c0 52.667 20.833 97.167 62.5 133.5
s93.167 54.5 154.5 54.5c80.667 0 155.334 -27.667 224.001 -83l-53 -69c-58 48 -115 72 -171 72c-35.333 0 -65.166 -9.16699 -89.499 -27.5s-36.833 -43.833 -37.5 -76.5c0 -16.667 3.16699 -31 9.5 -43s17.833 -23.167 34.5 -33.5s31.834 -18.666 45.501 -24.999
s34.5 -14.833 62.5 -25.5c72 -28.667 119 -50 141 -64c52.667 -34.667 79 -84 79 -148c0 -62 -23.167 -110.833 -69.5 -146.5s-102.5 -53.5 -168.5 -53.5z" />
    <glyph glyph-name="sacute" unicode="&#x15b;" horiz-adv-x="437" 
d="M287 698l91 1l-124 -142h-85zM223 -6c-74 0 -137.333 23.0039 -190 69.0039l41 62c40.667 -39.333 90.334 -59 149.001 -59c28.667 0 51.334 6.16699 68.001 18.5s25 28.166 25 47.499c0 22 -15 40 -45 54c-8 3.33301 -31.667 12.333 -71 27
c-23.333 8 -42.333 15.667 -57 23s-29.5 16.666 -44.5 27.999s-26.167 25.166 -33.5 41.499s-11 35.166 -11 56.499c0 37.333 15.167 68.5 45.5 93.5s68.5 37.5 114.5 37.5c62.667 0 118.667 -20 168 -60l-42 -64c-37.333 34.667 -80.333 52 -129 52
c-20 0 -37.5 -5.33301 -52.5 -16s-22.5 -25 -22.5 -43c0 -17.333 7.66699 -31.5 23 -42.5s38.333 -22.167 69 -33.5c63.333 -24.667 102.666 -41.667 117.999 -51c35.333 -23.333 52.666 -57.333 51.999 -102c0 -40 -15.167 -73.167 -45.5 -99.5s-73.5 -39.5 -129.5 -39.5z
" />
    <glyph glyph-name="Scircumflex" unicode="&#x15c;" horiz-adv-x="580" 
d="M246 906h85l113 -124h-81l-74 78h-2l-74 -78h-83zM293 -6c-98.667 0 -182.336 36.668 -251.003 110.001l56 67c24.667 -30.667 54.5 -54.334 89.5 -71.001s70.5 -25 106.5 -25c44 0 79.333 9.66699 106 29s40 46 40 80c0 18.667 -3.16699 34.5 -9.5 47.5
s-17.166 24.667 -32.499 35s-30.166 18.666 -44.499 24.999s-34.833 14.5 -61.5 24.5c-4.66699 2 -8.33398 3.33301 -11.001 4c-26 9.33301 -47.167 17.5 -63.5 24.5s-35 16.833 -56 29.5s-37.333 25.667 -49 39s-21.834 30 -30.501 50s-13 42 -13 66
c0 52.667 20.833 97.167 62.5 133.5s93.167 54.5 154.5 54.5c80.667 0 155.334 -27.667 224.001 -83l-53 -69c-58 48 -115 72 -171 72c-35.333 0 -65.166 -9.16699 -89.499 -27.5s-36.833 -43.833 -37.5 -76.5c0 -16.667 3.16699 -31 9.5 -43s17.833 -23.167 34.5 -33.5
s31.834 -18.666 45.501 -24.999s34.5 -14.833 62.5 -25.5c72 -28.667 119 -50 141 -64c52.667 -34.667 79 -84 79 -148c0 -62 -23.167 -110.833 -69.5 -146.5s-102.5 -53.5 -168.5 -53.5z" />
    <glyph glyph-name="scircumflex" unicode="&#x15d;" horiz-adv-x="437" 
d="M183 696h85l111 -140h-81l-72 89h-2l-73 -89h-83zM223 -6c-74 0 -137.333 23.0039 -190 69.0039l41 62c40.667 -39.333 90.334 -59 149.001 -59c28.667 0 51.334 6.16699 68.001 18.5s25 28.166 25 47.499c0 22 -15 40 -45 54c-8 3.33301 -31.667 12.333 -71 27
c-23.333 8 -42.333 15.667 -57 23s-29.5 16.666 -44.5 27.999s-26.167 25.166 -33.5 41.499s-11 35.166 -11 56.499c0 37.333 15.167 68.5 45.5 93.5s68.5 37.5 114.5 37.5c62.667 0 118.667 -20 168 -60l-42 -64c-37.333 34.667 -80.333 52 -129 52
c-20 0 -37.5 -5.33301 -52.5 -16s-22.5 -25 -22.5 -43c0 -17.333 7.66699 -31.5 23 -42.5s38.333 -22.167 69 -33.5c63.333 -24.667 102.666 -41.667 117.999 -51c35.333 -23.333 52.666 -57.333 51.999 -102c0 -40 -15.167 -73.167 -45.5 -99.5s-73.5 -39.5 -129.5 -39.5z
" />
    <glyph glyph-name="Scedilla" unicode="&#x15e;" horiz-adv-x="580" 
d="M292 -31l-0.00195312 -1.99902c26.667 -1.33301 48 -8.83301 64 -22.5s24 -32.5 24 -56.5c0 -22.667 -9 -41 -27 -55s-44.667 -21 -80 -21c-17.333 0 -36 2 -56 6v44c14 -4.66699 30 -7 48 -7c15.333 0 28.5 3.16699 39.5 9.5s16.5 15.5 16.5 27.5s-7.16699 22 -21.5 30
s-34.833 12 -61.5 12l1 30l15 32c-82.667 10 -153.334 46 -212.001 108l56 67c24.667 -30.667 54.5 -54.334 89.5 -71.001s70.5 -25 106.5 -25c44 0 79.333 9.66699 106 29s40 46 40 80c0 18.667 -3.16699 34.5 -9.5 47.5s-17.166 24.667 -32.499 35
s-30.166 18.666 -44.499 24.999s-34.833 14.5 -61.5 24.5c-4.66699 2 -8.33398 3.33301 -11.001 4c-26 9.33301 -47.167 17.5 -63.5 24.5s-35 16.833 -56 29.5s-37.333 25.667 -49 39s-21.834 30 -30.501 50s-13 42 -13 66c0 52.667 20.833 97.167 62.5 133.5
s93.167 54.5 154.5 54.5c80.667 0 155.334 -27.667 224.001 -83l-53 -69c-58 48 -115 72 -171 72c-35.333 0 -65.166 -9.16699 -89.499 -27.5s-36.833 -43.833 -37.5 -76.5c0 -16.667 3.16699 -31 9.5 -43s17.833 -23.167 34.5 -33.5s31.834 -18.666 45.501 -24.999
s34.5 -14.833 62.5 -25.5c72 -28.667 119 -50 141 -64c52.667 -34.667 79 -84 79 -148c0 -60 -22 -107.833 -66 -143.5s-97.667 -54.5 -161 -56.5z" />
    <glyph glyph-name="scedilla" unicode="&#x15f;" horiz-adv-x="437" 
d="M228 286c63.333 -24.667 102.666 -41.6641 117.999 -50.9971c35.333 -23.333 52.666 -57.333 51.999 -102c0 -40 -15.167 -73.167 -45.5 -99.5s-73.5 -39.5 -129.5 -39.5h-3l-11 -25v-2c26.667 -1.33301 48 -8.83301 64 -22.5s24 -32.5 24 -56.5
c0 -22.667 -9 -41 -27 -55s-44.667 -21 -80 -21c-17.333 0 -36 2 -56 6v44c14 -4.66699 30 -7 48 -7c15.333 0 28.5 3.16699 39.5 9.5s16.5 15.5 16.5 27.5s-7.16699 22 -21.5 30s-34.833 12 -61.5 12l1 30l15 34c-52.667 8.66699 -98.667 30.334 -138 65.001l41 62
c40.667 -39.333 90.334 -59 149.001 -59c28.667 0 51.334 6.16699 68.001 18.5s25 28.166 25 47.499c0 22 -15 40 -45 54c-8 3.33301 -31.667 12.333 -71 27c-23.333 8 -42.333 15.667 -57 23s-29.5 16.666 -44.5 27.999s-26.167 25.166 -33.5 41.499s-11 35.166 -11 56.499
c0 37.333 15.167 68.5 45.5 93.5s68.5 37.5 114.5 37.5c62.667 0 118.667 -20 168 -60l-42 -64c-37.333 34.667 -80.333 52 -129 52c-20 0 -37.5 -5.33301 -52.5 -16s-22.5 -25 -22.5 -43c0 -17.333 7.66699 -31.5 23 -42.5s38.333 -22.167 69 -33.5z" />
    <glyph glyph-name="Scaron" unicode="&#x160;" horiz-adv-x="580" 
d="M130 906h82l73 -78h2l75 78h82l-116 -124h-85zM293 -6c-98.667 0 -182.336 36.668 -251.003 110.001l56 67c24.667 -30.667 54.5 -54.334 89.5 -71.001s70.5 -25 106.5 -25c44 0 79.333 9.66699 106 29s40 46 40 80c0 18.667 -3.16699 34.5 -9.5 47.5
s-17.166 24.667 -32.499 35s-30.166 18.666 -44.499 24.999s-34.833 14.5 -61.5 24.5c-4.66699 2 -8.33398 3.33301 -11.001 4c-26 9.33301 -47.167 17.5 -63.5 24.5s-35 16.833 -56 29.5s-37.333 25.667 -49 39s-21.834 30 -30.501 50s-13 42 -13 66
c0 52.667 20.833 97.167 62.5 133.5s93.167 54.5 154.5 54.5c80.667 0 155.334 -27.667 224.001 -83l-53 -69c-58 48 -115 72 -171 72c-35.333 0 -65.166 -9.16699 -89.499 -27.5s-36.833 -43.833 -37.5 -76.5c0 -16.667 3.16699 -31 9.5 -43s17.833 -23.167 34.5 -33.5
s31.834 -18.666 45.501 -24.999s34.5 -14.833 62.5 -25.5c72 -28.667 119 -50 141 -64c52.667 -34.667 79 -84 79 -148c0 -62 -23.167 -110.833 -69.5 -146.5s-102.5 -53.5 -168.5 -53.5z" />
    <glyph glyph-name="scaron" unicode="&#x161;" horiz-adv-x="437" 
d="M68 694h82l72 -88h2l72 88h83l-115 -139h-85zM223 -6c-74 0 -137.333 23.0039 -190 69.0039l41 62c40.667 -39.333 90.334 -59 149.001 -59c28.667 0 51.334 6.16699 68.001 18.5s25 28.166 25 47.499c0 22 -15 40 -45 54c-8 3.33301 -31.667 12.333 -71 27
c-23.333 8 -42.333 15.667 -57 23s-29.5 16.666 -44.5 27.999s-26.167 25.166 -33.5 41.499s-11 35.166 -11 56.499c0 37.333 15.167 68.5 45.5 93.5s68.5 37.5 114.5 37.5c62.667 0 118.667 -20 168 -60l-42 -64c-37.333 34.667 -80.333 52 -129 52
c-20 0 -37.5 -5.33301 -52.5 -16s-22.5 -25 -22.5 -43c0 -17.333 7.66699 -31.5 23 -42.5s38.333 -22.167 69 -33.5c63.333 -24.667 102.666 -41.667 117.999 -51c35.333 -23.333 52.666 -57.333 51.999 -102c0 -40 -15.167 -73.167 -45.5 -99.5s-73.5 -39.5 -129.5 -39.5z
" />
    <glyph glyph-name="uni0162" unicode="&#x162;" horiz-adv-x="573" 
d="M278 -31v-2c26.667 -1.33301 48 -8.83301 64 -22.5s24 -32.5 24 -56.5c0 -22.667 -9 -41 -27 -55s-44.667 -21 -80 -21c-17.333 0 -36 2 -56 6v44c14 -4.66699 30 -7 48 -7c15.333 0 28.5 3.16699 39.5 9.5s16.5 15.5 16.5 27.5s-7.16699 22 -21.5 30
s-34.833 12 -61.5 12l1 30l17 38v629h-212v79h514v-79h-215v-631h-37z" />
    <glyph glyph-name="uni0163" unicode="&#x163;" horiz-adv-x="361" 
d="M199 -33c26.667 -1.33301 47.999 -8.83301 63.999 -22.5s24 -32.5 24 -56.5c0 -22.667 -9 -41 -27 -55s-44.667 -21 -80 -21c-17.333 0 -36 2 -56 6v44c14 -4.66699 30 -7 48 -7c15.333 0 28.5 3.16699 39.5 9.5s16.5 15.5 16.5 27.5s-7.16699 22 -21.5 30
s-34.833 12 -61.5 12l1 30l17 38c-50.667 16.667 -76 64.334 -76 143.001v272h-63v70h63v166l81 9v-175h161v-70h-161v-260c0 -30.667 4.33301 -52.834 13 -66.501s24 -20.5 46 -20.5c24.667 0 52.334 8.33301 83.001 25l21 -71c-34 -20 -73.333 -30 -118 -30h-3l-11 -25v-2
z" />
    <glyph glyph-name="Tcaron" unicode="&#x164;" horiz-adv-x="573" 
d="M127 906h82l73 -78h2l75 78h82l-116 -124h-85zM242 631h-212v79h514v-79h-215v-631h-87v631z" />
    <glyph glyph-name="tcaron" unicode="&#x165;" horiz-adv-x="361" 
d="M268 772h80l-49 -184h-60zM213 -6c-84 0 -126.001 50.334 -126.001 151.001v272h-63v70h63v166l81 9v-175h161v-70h-161v-260c0 -30.667 4.33301 -52.834 13 -66.501s24 -20.5 46 -20.5c24.667 0 52.334 8.33301 83.001 25l21 -71c-34 -20 -73.333 -30 -118 -30z" />
    <glyph glyph-name="Tbar" unicode="&#x166;" horiz-adv-x="573" 
d="M329 631v-247h121v-67h-121v-317h-87v317h-117v67h117v247h-212v79h514v-79h-215z" />
    <glyph glyph-name="tbar" unicode="&#x167;" horiz-adv-x="361" 
d="M331 24c-34 -20 -73.334 -29.999 -118.001 -29.999c-84 0 -126 50.333 -126 151v98h-53v58h53v116h-63v70h63v166l81 9v-175h161v-70h-161v-116h136v-58h-136v-86c0 -30.667 4.33301 -52.834 13 -66.501s24 -20.5 46 -20.5c24.667 0 52.334 8.33301 83.001 25z" />
    <glyph glyph-name="Utilde" unicode="&#x168;" horiz-adv-x="706" 
d="M431 782c-23.333 0 -51.6689 11.001 -85.002 33.001c-27.333 16.667 -48.333 25 -63 25c-23.333 0 -42.666 -18.333 -57.999 -55l-52 22c21.333 62.667 56 94 104 94c24 0 52.333 -10 85 -30c2.66699 -1.33301 6.83398 -3.83301 12.501 -7.5s10 -6.33398 13 -8.00098
s7 -3.66699 12 -6s9.5 -4 13.5 -5s8.33301 -1.5 13 -1.5c22.667 0 40.667 18.333 54 55l52 -17c-20 -66 -53.667 -99 -101 -99zM352.997 -5.99902c-82.667 0 -149.166 26.168 -199.499 78.501s-75.5 124.5 -75.5 216.5v421h87v-415c0 -66 17 -119 51 -159
s79.667 -60 137 -60c56 0 101.5 19.667 136.5 59s52.5 92.666 52.5 159.999v415h87v-421c0 -90.667 -24.833 -162.5 -74.5 -215.5s-116.834 -79.5 -201.501 -79.5z" />
    <glyph glyph-name="utilde" unicode="&#x169;" horiz-adv-x="562" 
d="M357 562c-23.333 0 -52.667 11.999 -88 35.999c-24.667 16 -44 24 -58 24c-26 0 -46 -18.667 -60 -56l-52 23c20.667 65.333 55.334 98 104.001 98c25.333 0 52.333 -9.66699 81 -29l12 -8c6 -4 10.5 -6.83301 13.5 -8.5s6.83301 -3.66699 11.5 -6s9.16699 -4 13.5 -5
s8.83301 -1.5 13.5 -1.5c25.333 0 44.666 18.333 57.999 55l51 -17c-8.66699 -33.333 -22 -59.166 -40 -77.499s-38 -27.5 -60 -27.5zM247.999 -6.00098c-58 0 -103 16.834 -135 50.501s-48 84.5 -48 152.5v290h81v-267c0 -53.333 9.83301 -92 29.5 -116s49.5 -36 89.5 -36
c40.667 0 75 16.5 103 49.5s42 77.5 42 133.5v236h81v-487h-81v84h-1c-18 -28.667 -41.167 -50.834 -69.5 -66.501s-58.833 -23.5 -91.5 -23.5z" />
    <glyph glyph-name="Umacron" unicode="&#x16a;" horiz-adv-x="706" 
d="M209 876h288v-67h-288v67zM353 -6c-82.667 0 -149.166 26.168 -199.499 78.501s-75.5 124.5 -75.5 216.5v421h87v-415c0 -66 17 -119 51 -159s79.667 -60 137 -60c56 0 101.5 19.667 136.5 59s52.5 92.666 52.5 159.999v415h87v-421
c0 -90.667 -24.833 -162.5 -74.5 -215.5s-116.834 -79.5 -201.501 -79.5z" />
    <glyph glyph-name="umacron" unicode="&#x16b;" horiz-adv-x="562" 
d="M135 665h288v-69h-288v69zM248 -6c-58 0 -103 16.834 -135 50.501s-48 84.5 -48 152.5v290h81v-267c0 -53.333 9.83301 -92 29.5 -116s49.5 -36 89.5 -36c40.667 0 75 16.5 103 49.5s42 77.5 42 133.5v236h81v-487h-81v84h-1c-18 -28.667 -41.167 -50.834 -69.5 -66.501
s-58.833 -23.5 -91.5 -23.5z" />
    <glyph glyph-name="Ubreve" unicode="&#x16c;" horiz-adv-x="706" 
d="M353 776c-41.333 0 -74.833 11.833 -100.5 35.5s-40.167 55.167 -43.5 94.5h65c1.33301 -18.667 9 -34.5 23 -47.5s32.667 -19.5 56 -19.5s42 6.5 56 19.5s21.667 28.833 23 47.5h65c-3.33301 -39.333 -17.833 -70.833 -43.5 -94.5s-59.167 -35.5 -100.5 -35.5zM353 -6
c-82.667 0 -149.166 26.168 -199.499 78.501s-75.5 124.5 -75.5 216.5v421h87v-415c0 -66 17 -119 51 -159s79.667 -60 137 -60c56 0 101.5 19.667 136.5 59s52.5 92.666 52.5 159.999v415h87v-421c0 -90.667 -24.833 -162.5 -74.5 -215.5s-116.834 -79.5 -201.501 -79.5z
" />
    <glyph glyph-name="ubreve" unicode="&#x16d;" horiz-adv-x="562" 
d="M279 552c-42 0 -75.8311 12.5 -101.498 37.5s-39.834 59.833 -42.501 104.5h65c1.33301 -22 9 -40.5 23 -55.5s32.667 -22.5 56 -22.5s42 7.5 56 22.5s21.667 33.5 23 55.5h65c-2.66699 -44.667 -16.834 -79.5 -42.501 -104.5s-59.5 -37.5 -101.5 -37.5zM248.002 -6
c-58 0 -103 16.834 -135 50.501s-48 84.5 -48 152.5v290h81v-267c0 -53.333 9.83301 -92 29.5 -116s49.5 -36 89.5 -36c40.667 0 75 16.5 103 49.5s42 77.5 42 133.5v236h81v-487h-81v84h-1c-18 -28.667 -41.167 -50.834 -69.5 -66.501s-58.833 -23.5 -91.5 -23.5z" />
    <glyph glyph-name="Uring" unicode="&#x16e;" horiz-adv-x="706" 
d="M352 760c-26 0 -48.333 9.16699 -67 27.5s-28 40.5 -28 66.5s9.16699 48.167 27.5 66.5s40.833 27.5 67.5 27.5c27.333 0 50.333 -9 69 -27s28 -40.333 28 -67c0 -25.333 -9.33301 -47.333 -28 -66s-41.667 -28 -69 -28zM352 813c12.667 0 23.167 4.16797 31.5 12.501
s12.5 18.166 12.5 29.499s-4.16699 21.166 -12.5 29.499s-18.833 12.5 -31.5 12.5c-11.333 0 -21.166 -4.16699 -29.499 -12.5s-12.5 -18.166 -12.5 -29.499c0 -12 4.16699 -22 12.5 -30s18.166 -12 29.499 -12zM353 -5.99902c-82.667 0 -149.166 26.168 -199.499 78.501
s-75.5 124.5 -75.5 216.5v421h87v-415c0 -66 17 -119 51 -159s79.667 -60 137 -60c56 0 101.5 19.667 136.5 59s52.5 92.666 52.5 159.999v415h87v-421c0 -90.667 -24.833 -162.5 -74.5 -215.5s-116.834 -79.5 -201.501 -79.5z" />
    <glyph glyph-name="uring" unicode="&#x16f;" horiz-adv-x="562" 
d="M278 545c-26 0 -48.333 9.16699 -67 27.5s-28 40.5 -28 66.5s9.16699 48.167 27.5 66.5s40.833 27.5 67.5 27.5c27.333 0 50.333 -9 69 -27s28 -40.333 28 -67c0 -25.333 -9.33301 -47.333 -28 -66s-41.667 -28 -69 -28zM278 598c12.667 0 23.167 4.16797 31.5 12.501
s12.5 18.166 12.5 29.499s-4.16699 21.166 -12.5 29.499s-18.833 12.5 -31.5 12.5c-11.333 0 -21.166 -4.16699 -29.499 -12.5s-12.5 -18.166 -12.5 -29.499c0 -12 4.16699 -22 12.5 -30s18.166 -12 29.499 -12zM248 -5.99902c-58 0 -103 16.834 -135 50.501
s-48 84.5 -48 152.5v290h81v-267c0 -53.333 9.83301 -92 29.5 -116s49.5 -36 89.5 -36c40.667 0 75 16.5 103 49.5s42 77.5 42 133.5v236h81v-487h-81v84h-1c-18 -28.667 -41.167 -50.834 -69.5 -66.501s-58.833 -23.5 -91.5 -23.5z" />
    <glyph glyph-name="Uhungarumlaut" unicode="&#x170;" horiz-adv-x="706" 
d="M347 922l85 1l-124 -142h-79zM514 922l85 1l-124 -142h-78zM353 -6c-82.667 0 -149.166 26.168 -199.499 78.501s-75.5 124.5 -75.5 216.5v421h87v-415c0 -66 17 -119 51 -159s79.667 -60 137 -60c56 0 101.5 19.667 136.5 59s52.5 92.666 52.5 159.999v415h87v-421
c0 -90.667 -24.833 -162.5 -74.5 -215.5s-116.834 -79.5 -201.501 -79.5z" />
    <glyph glyph-name="uhungarumlaut" unicode="&#x171;" horiz-adv-x="562" 
d="M273 698l85 1l-124 -142h-79zM440 698l85 1l-124 -142h-78zM248 -6c-58 0 -103 16.834 -135 50.501s-48 84.5 -48 152.5v290h81v-267c0 -53.333 9.83301 -92 29.5 -116s49.5 -36 89.5 -36c40.667 0 75 16.5 103 49.5s42 77.5 42 133.5v236h81v-487h-81v84h-1
c-18 -28.667 -41.167 -50.834 -69.5 -66.501s-58.833 -23.5 -91.5 -23.5z" />
    <glyph glyph-name="Uogonek" unicode="&#x172;" horiz-adv-x="706" 
d="M629 710l-0.00195312 -420.999c0 -76.667 -18 -140.167 -54 -190.5s-85.333 -82.5 -148 -96.5c-24 -9.33301 -43 -21.5 -57 -36.5s-21 -30.5 -21 -46.5c0 -30.667 16.333 -46 49 -46c18.667 0 34.334 3 47.001 9l5 -52c-19.333 -8.66699 -42 -13 -68 -13
c-30.667 0 -55 7.66699 -73 23s-27 36 -27 62c0 32 17 62.333 51 91v2c-77.333 4 -139.166 32 -185.499 84s-69.5 122 -69.5 210v421h87v-415c0 -66 17 -119 51 -159s79.667 -60 137 -60c56 0 101.5 19.667 136.5 59s52.5 92.666 52.5 159.999v415h87z" />
    <glyph glyph-name="uogonek" unicode="&#x173;" horiz-adv-x="562" 
d="M506 -173c-19.333 -8.66699 -42.333 -12.999 -69 -12.999c-30.667 0 -54.834 7.5 -72.501 22.5s-26.5 35.5 -26.5 61.5c0 18 6.33301 36.667 19 56s30.334 36.333 53.001 51v79h-1c-18 -28.667 -41.167 -50.834 -69.5 -66.501s-58.833 -23.5 -91.5 -23.5
c-58 0 -103 16.833 -135 50.5s-48 84.5 -48 152.5v290h81v-267c0 -53.333 9.83301 -92 29.5 -116s49.5 -36 89.5 -36c40.667 0 75 16.5 103 49.5s42 77.5 42 133.5v236h81v-487h-8c-24 -8 -43.167 -20 -57.5 -36s-21.5 -32.333 -21.5 -49c0 -30 16.333 -45 49 -45
c18 0 33.667 3 47 9z" />
    <glyph glyph-name="Wcircumflex" unicode="&#x174;" horiz-adv-x="1020" 
d="M469 906h85l113 -124h-81l-74 78h-2l-74 -78h-83zM33 710h93l175 -569h2l160 569h95l159 -568h2l176 568h92l-227 -710h-84l-164 583h-2l-167 -583h-84z" />
    <glyph glyph-name="wcircumflex" unicode="&#x175;" horiz-adv-x="764" 
d="M341 696h85l111 -140h-81l-72 89h-2l-73 -89h-83zM27 487h83l123 -366h2l112 366h70l114 -366h2l122 366h83l-168 -487h-76l-112 357h-1l-112 -357h-74z" />
    <glyph glyph-name="Ycircumflex" unicode="&#x176;" horiz-adv-x="601" 
d="M260 906h85l113 -124h-81l-74 78h-2l-74 -78h-83zM256 317l-241 393h100l184 -305h2l183 305h102l-243 -393v-317h-87v317z" />
    <glyph glyph-name="ycircumflex" unicode="&#x177;" horiz-adv-x="525" 
d="M223 696h85l111 -140h-81l-72 89h-2l-73 -89h-83zM229 19l-207 468h88l158 -370h2l147 370h85l-276 -685h-84z" />
    <glyph glyph-name="Ydieresis" unicode="&#x178;" horiz-adv-x="601" 
d="M212 793c-16.667 0 -30.5 5.66504 -41.5 16.998s-16.5 25 -16.5 41c0 15.333 5.5 28.5 16.5 39.5s24.833 16.5 41.5 16.5c16 0 29.667 -5.66699 41 -17s17 -24.666 17 -39.999s-5.66699 -28.666 -17 -39.999s-25 -17 -41 -17zM393 792.998
c-16 0 -29.667 5.66504 -41 16.998s-17 25 -17 41c0 15.333 5.66699 28.5 17 39.5s25 16.5 41 16.5s29.667 -5.66699 41 -17s17 -24.666 17 -39.999s-5.66699 -28.666 -17 -39.999s-25 -17 -41 -17zM256 316.996l-241 393h100l184 -305h2l183 305h102l-243 -393v-317h-87
v317z" />
    <glyph glyph-name="Zacute" unicode="&#x179;" horiz-adv-x="613" 
d="M326 911h93l-122 -129h-83zM57 69l378 561l-1 1h-358v79h473v-69l-381 -560l1 -2h384v-79h-496v69z" />
    <glyph glyph-name="zacute" unicode="&#x17a;" horiz-adv-x="471" 
d="M300 698l91 1l-124 -142h-85zM36 59l283 355l-1 3h-267v70h379v-58l-284 -358l1 -1h283v-70h-394v59z" />
    <glyph glyph-name="Zdotaccent" unicode="&#x17b;" horiz-adv-x="613" 
d="M304 792c-16.667 0 -30.667 5.66699 -42 17s-17 25 -17 41s5.66699 29.667 17 41s25.333 17 42 17s30.667 -5.66699 42 -17s17 -25 17 -41s-5.66699 -29.667 -17 -41s-25.333 -17 -42 -17zM57 69l378 561l-1 1h-358v79h473v-69l-381 -560l1 -2h384v-79h-496v69z" />
    <glyph glyph-name="zdotaccent" unicode="&#x17c;" horiz-adv-x="471" 
d="M236 576c-16.667 0 -30.667 5.66699 -42 17s-17 25 -17 41s5.66699 29.667 17 41s25.333 17 42 17s30.667 -5.66699 42 -17s17 -25 17 -41s-5.66699 -29.667 -17 -41s-25.333 -17 -42 -17zM36 59l283 355l-1 3h-267v70h379v-58l-284 -358l1 -1h283v-70h-394v59z" />
    <glyph glyph-name="Zcaron" unicode="&#x17d;" horiz-adv-x="613" 
d="M146 906h82l73 -78h2l75 78h82l-116 -124h-85zM57 69l378 561l-1 1h-358v79h473v-69l-381 -560l1 -2h384v-79h-496v69z" />
    <glyph glyph-name="zcaron" unicode="&#x17e;" horiz-adv-x="471" 
d="M80 694h82l72 -88h2l72 88h83l-115 -139h-85zM36 59l283 355l-1 3h-267v70h379v-58l-284 -358l1 -1h283v-70h-394v59z" />
    <glyph glyph-name="Gcaron" unicode="&#x1e6;" horiz-adv-x="759" 
d="M247 906h82l73 -78h2l75 78h82l-116 -124h-85zM412 -5c-103.333 0 -188.334 32.665 -255.001 97.998s-100 152.333 -100 261c0 106.667 32.167 193.834 96.5 261.501s149.5 101.5 255.5 101.5c108.667 0 198.667 -37 270 -111l-61 -54
c-56.667 54.667 -126.667 82 -210 82c-75.333 0 -137.5 -25.667 -186.5 -77s-73.5 -119 -73.5 -203c0 -81.333 24.333 -148.166 73 -200.499s112.334 -78.5 191.001 -78.5c74 0 137 19.667 189 59v153h-206v79h293v-281c-70.667 -60 -162.667 -90 -276 -90z" />
    <glyph glyph-name="gcaron" unicode="&#x1e7;" horiz-adv-x="600" 
d="M133 694h82l72 -88h2l72 88h83l-115 -139h-85zM291 -204c-73.333 0 -139.334 17.667 -198.001 53l20 72c59.333 -34 117.666 -51 174.999 -51c52.667 0 93 13.5 121 40.5s42 62.167 42 105.5v78h-2c-39.333 -56.667 -95.666 -85 -168.999 -85
c-67.333 0 -123.5 22.333 -168.5 67s-67.5 102.667 -67.5 174c0 70 21.833 128 65.5 174s99.5 69 167.5 69c72.667 0 129.667 -28 171 -84h2v78h81v-451c0 -74 -19.667 -132.5 -59 -175.5s-99.666 -64.5 -180.999 -64.5zM289.999 84c48.667 0 88.001 16.001 118.001 48.001
s45 72.667 45 122c0 48 -15.5 87.333 -46.5 118s-69.5 46 -115.5 46c-48.667 0 -88.334 -15.667 -119.001 -47s-46 -71 -46 -119c0 -50.667 15.5 -91.334 46.5 -122.001s70.167 -46 117.5 -46z" />
    <glyph glyph-name="AEacute" unicode="&#x1fc;" horiz-adv-x="928" 
d="M531 911h93l-122 -129h-83zM383 710h486v-79h-349v-238h290v-79h-290v-235h369v-79h-455v173h-243l-92 -173h-90zM434 249v384h-2l-203 -384h205z" />
    <glyph glyph-name="aeacute" unicode="&#x1fd;" horiz-adv-x="790" 
d="M427 557h-85l118 141l91 1zM754 252c0 -18 -0.333008 -29.333 -1 -34h-340c5.33301 -46.667 21 -83.334 47 -110.001s60 -40 102 -40c29.333 0 53 5.33301 71 16s35 27 51 49l56 -48c-23.333 -30.667 -48.5 -53.5 -75.5 -68.5s-63.167 -22.5 -108.5 -22.5
c-77.333 0 -135.333 33 -174 99h-2c-14 -29.333 -36.667 -53.166 -68 -71.499s-68.333 -27.5 -111 -27.5c-55.333 0 -97.333 14 -126 42s-43 63.333 -43 106c0 44.667 15.833 80 47.5 106s77.834 39 138.501 39h116v12c0 44.667 -7.5 76 -22.5 94s-39.833 27 -74.5 27
c-48 0 -94.333 -12.333 -139 -37l-31 66c19.333 11.333 45.166 21.5 77.499 30.5s64.833 13.5 97.5 13.5c73.333 0 122 -31.333 146 -94h2c18 30 41.667 53.167 71 69.5s60.333 24.5 93 24.5c59.333 0 107.5 -22.667 144.5 -68s55.5 -103 55.5 -173zM673 285
c-4 40 -16.334 72.333 -37.001 97s-49 37 -85 37c-35.333 0 -65.166 -12.333 -89.499 -37s-39.833 -57 -46.5 -97h258zM207.999 62c35.333 0 65.334 10.8311 90.001 32.498s37 50.834 37 87.501v39h-110c-75.333 0 -113 -26 -113 -78
c0 -23.333 8.16699 -42.666 24.5 -57.999s40.166 -23 71.499 -23z" />
    <glyph glyph-name="Oslashacute" unicode="&#x1fe;" horiz-adv-x="825" 
d="M443 782h-83l112 129h93zM688 593c53.333 -65.333 80 -144.667 80 -238c0 -106.667 -33.667 -193.5 -101 -260.5s-151.666 -100.5 -252.999 -100.5c-83.333 0 -156 22.667 -218 68l-81 -88l-51 47l81 88c-58.667 67.333 -88 149.333 -88 246
c0 105.333 33.667 192 101 260s152.666 102 255.999 102c88 0 163 -25.333 225 -76l82 88l51 -45zM148 354.999c0 -68.667 19.666 -128.667 58.999 -180l373 402c-47.333 38.667 -102.666 58 -165.999 58c-76.667 0 -140.167 -26.5 -190.5 -79.5
s-75.5 -119.833 -75.5 -200.5zM676.999 354.999c0 65.333 -17.001 122.334 -51.001 171.001l-370 -400c44.667 -33.333 97.334 -50 158.001 -50c74.667 0 137.167 26.167 187.5 78.5s75.5 119.166 75.5 200.499z" />
    <glyph glyph-name="oslashacute" unicode="&#x1ff;" horiz-adv-x="593" 
d="M337 557h-85l118 141l91 1zM496 401c34.667 -43.333 51.999 -96.001 51.999 -158.001c0 -73.333 -23.667 -133.166 -71 -179.499s-107.333 -69.5 -180 -69.5c-54.667 0 -103 13.667 -145 41l-54 -57l-45 42l52 56c-40 46 -60 101.667 -60 167
c0 71.333 23.333 130.833 70 178.5s107.334 71.5 182.001 71.5c59.333 0 111 -16.333 155 -49l59 63l45 -42zM127.999 242.999c0 -40.667 11 -76.667 33 -108l237 251c-29.333 22 -63 33 -101 33c-50 0 -90.667 -17 -122 -51s-47 -75.667 -47 -125zM464.999 242.999
c0 36.667 -8.66504 69.333 -25.998 98l-233 -248c27.333 -16.667 57.666 -25 90.999 -25c47.333 0 87.166 16.333 119.499 49s48.5 74.667 48.5 126z" />
    <glyph glyph-name="Scommaaccent" unicode="&#x218;" horiz-adv-x="580" 
d="M293 -6c-98.667 0 -182.336 36.668 -251.003 110.001l56 67c24.667 -30.667 54.5 -54.334 89.5 -71.001s70.5 -25 106.5 -25c44 0 79.333 9.66699 106 29s40 46 40 80c0 18.667 -3.16699 34.5 -9.5 47.5s-17.166 24.667 -32.499 35s-30.166 18.666 -44.499 24.999
s-34.833 14.5 -61.5 24.5c-4.66699 2 -8.33398 3.33301 -11.001 4c-26 9.33301 -47.167 17.5 -63.5 24.5s-35 16.833 -56 29.5s-37.333 25.667 -49 39s-21.834 30 -30.501 50s-13 42 -13 66c0 52.667 20.833 97.167 62.5 133.5s93.167 54.5 154.5 54.5
c80.667 0 155.334 -27.667 224.001 -83l-53 -69c-58 48 -115 72 -171 72c-35.333 0 -65.166 -9.16699 -89.499 -27.5s-36.833 -43.833 -37.5 -76.5c0 -16.667 3.16699 -31 9.5 -43s17.833 -23.167 34.5 -33.5s31.834 -18.666 45.501 -24.999s34.5 -14.833 62.5 -25.5
c72 -28.667 119 -50 141 -64c52.667 -34.667 79 -84 79 -148c0 -62 -23.167 -110.833 -69.5 -146.5s-102.5 -53.5 -168.5 -53.5zM204.998 -162.999c22 4.66699 37.333 12.167 46 22.5s13 24.166 13 41.499c0 11.333 -1.66699 26.333 -5 45h74
c2.66699 -13.333 4 -29.666 4 -48.999c0 -32 -10.167 -57.333 -30.5 -76s-47.5 -29.667 -81.5 -33z" />
    <glyph glyph-name="scommaaccent" unicode="&#x219;" horiz-adv-x="437" 
d="M223 -6c-74 0 -137.333 23.0039 -190 69.0039l41 62c40.667 -39.333 90.334 -59 149.001 -59c28.667 0 51.334 6.16699 68.001 18.5s25 28.166 25 47.499c0 22 -15 40 -45 54c-8 3.33301 -31.667 12.333 -71 27c-23.333 8 -42.333 15.667 -57 23
s-29.5 16.666 -44.5 27.999s-26.167 25.166 -33.5 41.499s-11 35.166 -11 56.499c0 37.333 15.167 68.5 45.5 93.5s68.5 37.5 114.5 37.5c62.667 0 118.667 -20 168 -60l-42 -64c-37.333 34.667 -80.333 52 -129 52c-20 0 -37.5 -5.33301 -52.5 -16s-22.5 -25 -22.5 -43
c0 -17.333 7.66699 -31.5 23 -42.5s38.333 -22.167 69 -33.5c63.333 -24.667 102.666 -41.667 117.999 -51c35.333 -23.333 52.666 -57.333 51.999 -102c0 -40 -15.167 -73.167 -45.5 -99.5s-73.5 -39.5 -129.5 -39.5zM122 -162.996c22 4.66699 37.333 12.167 46 22.5
s13 24.166 13 41.499c0 11.333 -1.66699 26.333 -5 45h74c2.66699 -13.333 4 -29.666 4 -48.999c0 -32 -10.167 -57.333 -30.5 -76s-47.5 -29.667 -81.5 -33z" />
    <glyph glyph-name="uni0237" unicode="&#x237;" horiz-adv-x="224" 
d="M32 -204c-30.667 0 -58.666 5.33203 -83.999 15.999l13 72c16 -10 34.333 -15 55 -15c38.667 0 58 26.667 58 80v538h81v-538c0 -47.333 -10.833 -84.666 -32.5 -111.999s-51.834 -41 -90.501 -41z" />
    <glyph glyph-name="uni02BB" unicode="&#x2bb;" horiz-adv-x="203" 
d="M78 663h66l8 -241h-88z" />
    <glyph glyph-name="uni02BC" unicode="&#x2bc;" horiz-adv-x="165" 
d="M57 710h80l-49 -194h-59z" />
    <glyph glyph-name="uni02BE" unicode="&#x2be;" horiz-adv-x="206" 
d="M35 514c26 0.666992 46.167 8.83203 60.5 24.499s21.5 35.5 21.5 59.5c0 23.333 -7.33301 42.833 -22 58.5s-34.667 23.834 -60 24.501l7 61c42.667 -0.666992 77.334 -14.667 104.001 -42s40 -61.333 40 -102s-13.333 -74.667 -40 -102s-61.334 -41.333 -104.001 -42z
" />
    <glyph glyph-name="uni02BF" unicode="&#x2bf;" horiz-adv-x="236" 
d="M194 454c-42.667 0.666992 -77.334 14.6689 -104.001 42.002s-40 61.333 -40 102s13.333 74.667 40 102s61.334 41.333 104.001 42l7 -61c-25.333 -0.666992 -45.333 -8.83398 -60 -24.501s-22 -35.167 -22 -58.5c0 -24 7.16699 -43.833 21.5 -59.5
s34.5 -23.834 60.5 -24.501z" />
    <glyph glyph-name="circumflex" unicode="&#x2c6;" horiz-adv-x="495" 
d="M207 680h85l111 -140h-81l-72 89h-2l-73 -89h-83z" />
    <glyph glyph-name="caron" unicode="&#x2c7;" horiz-adv-x="495" 
d="M92 678h82l72 -88h2l72 88h83l-115 -139h-85z" />
    <glyph glyph-name="uni02C8" unicode="&#x2c8;" horiz-adv-x="175" 
d="M121 680v-288h-67v288h67z" />
    <glyph glyph-name="uni02C9" unicode="&#x2c9;" horiz-adv-x="393" 
d="M53 665h288v-69h-288v69z" />
    <glyph glyph-name="uni02CA" unicode="&#x2ca;" horiz-adv-x="313" 
d="M185 698l91 1l-124 -142h-85z" />
    <glyph glyph-name="uni02CB" unicode="&#x2cb;" horiz-adv-x="312" 
d="M40 696l92 -1l111 -137h-82z" />
    <glyph glyph-name="uni02CC" unicode="&#x2cc;" horiz-adv-x="175" 
d="M121 133v-288h-67v288h67z" />
    <glyph glyph-name="breve" unicode="&#x2d8;" horiz-adv-x="466" 
d="M233 536c-42 0 -75.8311 12.5 -101.498 37.5s-39.834 59.833 -42.501 104.5h65c1.33301 -22 9 -40.5 23 -55.5s32.667 -22.5 56 -22.5s42 7.5 56 22.5s21.667 33.5 23 55.5h65c-2.66699 -44.667 -16.834 -79.5 -42.501 -104.5s-59.5 -37.5 -101.5 -37.5z" />
    <glyph glyph-name="dotaccent" unicode="&#x2d9;" horiz-adv-x="493" 
d="M247 560c-16.667 0 -30.667 5.66699 -42 17s-17 25 -17 41s5.66699 29.667 17 41s25.333 17 42 17s30.667 -5.66699 42 -17s17 -25 17 -41s-5.66699 -29.667 -17 -41s-25.333 -17 -42 -17z" />
    <glyph glyph-name="ring" unicode="&#x2da;" horiz-adv-x="458" 
d="M228 522c-26 0 -48.333 9.16699 -67 27.5s-28 40.5 -28 66.5s9.16699 48.167 27.5 66.5s40.833 27.5 67.5 27.5c27.333 0 50.333 -9 69 -27s28 -40.333 28 -67c0 -25.333 -9.33301 -47.333 -28 -66s-41.667 -28 -69 -28zM228 575c12.667 0 23.167 4.16797 31.5 12.501
s12.5 18.166 12.5 29.499s-4.16699 21.166 -12.5 29.499s-18.833 12.5 -31.5 12.5c-11.333 0 -21.166 -4.16699 -29.499 -12.5s-12.5 -18.166 -12.5 -29.499c0 -12 4.16699 -22 12.5 -30s18.166 -12 29.499 -12z" />
    <glyph glyph-name="ogonek" unicode="&#x2db;" horiz-adv-x="468" 
d="M271 -186c-30.667 0 -54.833 7.5 -72.5 22.5s-26.5 35.5 -26.5 61.5c0 20 7.66699 40.667 23 62s36.666 39.333 63.999 54l61 -13c-24.667 -8 -44.5 -20 -59.5 -36s-22.5 -32.667 -22.5 -50c0 -30 16.333 -45 49 -45c18.667 0 34.334 3 47.001 9l6 -52
c-19.333 -8.66699 -42.333 -13 -69 -13z" />
    <glyph glyph-name="tilde" unicode="&#x2dc;" horiz-adv-x="506" 
d="M332 546c-23.333 0 -52.667 11.999 -88 35.999c-24.667 16 -44 24 -58 24c-26 0 -46 -18.667 -60 -56l-52 23c20.667 65.333 55.334 98 104.001 98c25.333 0 52.333 -9.66699 81 -29l12 -8c6 -4 10.5 -6.83301 13.5 -8.5s6.83301 -3.66699 11.5 -6s9.16699 -4 13.5 -5
s8.83301 -1.5 13.5 -1.5c25.333 0 44.666 18.333 57.999 55l51 -17c-8.66699 -33.333 -22 -59.166 -40 -77.499s-38 -27.5 -60 -27.5z" />
    <glyph glyph-name="hungarumlaut" unicode="&#x2dd;" horiz-adv-x="518" 
d="M193 682l85 1l-124 -142h-79zM360 682l85 1l-124 -142h-78z" />
    <glyph glyph-name="gravecomb" unicode="&#x300;" 
d="M-608 680l92 -1l111 -137h-82z" />
    <glyph glyph-name="acutecomb" unicode="&#x301;" 
d="M-471 682l91 1l-124 -142h-85z" />
    <glyph glyph-name="uni0302" unicode="&#x302;" 
d="M-541 680h85l111 -140h-81l-72 89h-2l-73 -89h-83z" />
    <glyph glyph-name="tildecomb" unicode="&#x303;" 
d="M-422 546c-23.333 0 -52.667 11.999 -88 35.999c-24.667 16 -44 24 -58 24c-26 0 -46 -18.667 -60 -56l-52 23c20.667 65.333 55.334 98 104.001 98c25.333 0 52.333 -9.66699 81 -29l12 -8c6 -4 10.5 -6.83301 13.5 -8.5s6.83301 -3.66699 11.5 -6s9.16699 -4 13.5 -5
s8.83301 -1.5 13.5 -1.5c25.333 0 44.666 18.333 57.999 55l51 -17c-8.66699 -33.333 -22 -59.166 -40 -77.499s-38 -27.5 -60 -27.5z" />
    <glyph glyph-name="uni0304" unicode="&#x304;" 
d="M-644 649h288v-69h-288v69z" />
    <glyph glyph-name="uni0306" unicode="&#x306;" 
d="M-500 536c-42 0 -75.8311 12.5 -101.498 37.5s-39.834 59.833 -42.501 104.5h65c1.33301 -22 9 -40.5 23 -55.5s32.667 -22.5 56 -22.5s42 7.5 56 22.5s21.667 33.5 23 55.5h65c-2.66699 -44.667 -16.834 -79.5 -42.501 -104.5s-59.5 -37.5 -101.5 -37.5z" />
    <glyph glyph-name="uni0307" unicode="&#x307;" 
d="M-500 560c-16.667 0 -30.667 5.66699 -42 17s-17 25 -17 41s5.66699 29.667 17 41s25.333 17 42 17s30.667 -5.66699 42 -17s17 -25 17 -41s-5.66699 -29.667 -17 -41s-25.333 -17 -42 -17z" />
    <glyph glyph-name="uni0308" unicode="&#x308;" 
d="M-591 561c-16.667 0 -30.5 5.66504 -41.5 16.998s-16.5 25 -16.5 41c0 15.333 5.5 28.5 16.5 39.5s24.833 16.5 41.5 16.5c16 0 29.667 -5.66699 41 -17s17 -24.666 17 -39.999s-5.66699 -28.666 -17 -39.999s-25 -17 -41 -17zM-410 560.998
c-16 0 -29.667 5.66504 -41 16.998s-17 25 -17 41c0 15.333 5.66699 28.5 17 39.5s25 16.5 41 16.5s29.667 -5.66699 41 -17s17 -24.666 17 -39.999s-5.66699 -28.666 -17 -39.999s-25 -17 -41 -17z" />
    <glyph glyph-name="hookabovecomb" unicode="&#x309;" 
d="M-534 538c54.667 40 81.667 71 81 93c0 19.333 -13.333 29 -40 29c-31.333 0 -60.666 -11 -87.999 -33l-20 47c33.333 29.333 75.333 44 126 44c27.333 0 49.166 -6.33301 65.499 -19s24.5 -32 24.5 -58c0 -22 -8.66699 -42 -26 -60s-36.333 -32.333 -57 -43h-66z" />
    <glyph glyph-name="uni030A" unicode="&#x30a;" 
d="M-501 529c-26 0 -48.333 9.16699 -67 27.5s-28 40.5 -28 66.5s9.16699 48.167 27.5 66.5s40.833 27.5 67.5 27.5c27.333 0 50.333 -9 69 -27s28 -40.333 28 -67c0 -25.333 -9.33301 -47.333 -28 -66s-41.667 -28 -69 -28zM-501 582c12.667 0 23.167 4.16797 31.5 12.501
s12.5 18.166 12.5 29.499s-4.16699 21.166 -12.5 29.499s-18.833 12.5 -31.5 12.5c-11.333 0 -21.166 -4.16699 -29.499 -12.5s-12.5 -18.166 -12.5 -29.499c0 -12 4.16699 -22 12.5 -30s18.166 -12 29.499 -12z" />
    <glyph glyph-name="uni030B" unicode="&#x30b;" 
d="M-506 682l85 1l-124 -142h-79zM-339 682l85 1l-124 -142h-78z" />
    <glyph glyph-name="uni030C" unicode="&#x30c;" 
d="M-656 678h82l72 -88h2l72 88h83l-115 -139h-85z" />
    <glyph glyph-name="uni0312" unicode="&#x312;" 
d="M-530 540c-2.66699 14 -4 30.665 -4 49.998c0 32 10.167 57.333 30.5 76s47.5 29.667 81.5 33l20 -49c-22 -5.33301 -37.333 -13.166 -46 -23.499s-13 -24.166 -13 -41.499c0 -10 1.66699 -25 5 -45h-74z" />
    <glyph glyph-name="uni0313" unicode="&#x313;" 
d="M-454 692c2.66699 -14 4 -30.665 4 -49.998c0 -32 -10.167 -57.333 -30.5 -76s-47.5 -29.667 -81.5 -33l-20 49c22 5.33301 37.333 13.166 46 23.499s13 24.166 13 41.499c0 10 -1.66699 25 -5 45h74z" />
    <glyph glyph-name="uni031B" unicode="&#x31b;" 
d="M-514 514c34.667 2 57.5 12.667 68.5 32s16.5 51 16.5 95v69h83v-73c0 -59.333 -14.333 -104 -43 -134s-70 -44.333 -124 -43z" />
    <glyph glyph-name="dotbelowcomb" unicode="&#x323;" 
d="M-500 -94c16.667 0 30.667 -5.66699 42 -17s17 -25 17 -41s-5.66699 -29.667 -17 -41s-25.333 -17 -42 -17s-30.667 5.66699 -42 17s-17 25 -17 41s5.66699 29.667 17 41s25.333 17 42 17z" />
    <glyph glyph-name="uni0324" unicode="&#x324;" 
d="M-591 -95c16 0 29.667 -5.66504 41 -16.998s17 -25 17 -41c0 -15.333 -5.66699 -28.5 -17 -39.5s-25 -16.5 -41 -16.5s-29.667 5.66699 -41 17s-17 24.666 -17 39.999s5.66699 28.666 17 39.999s25 17 41 17zM-410 -94.998c16.667 0 30.5 -5.66504 41.5 -16.998
s16.5 -25 16.5 -41c0 -15.333 -5.5 -28.5 -16.5 -39.5s-24.833 -16.5 -41.5 -16.5c-16 0 -29.667 5.66699 -41 17s-17 24.666 -17 39.999s5.66699 28.666 17 39.999s25 17 41 17z" />
    <glyph glyph-name="uni0326" unicode="&#x326;" 
d="M-598 -163c22 4.66699 37.333 12.167 46 22.5s13 24.166 13 41.499c0 11.333 -1.66699 26.333 -5 45h74c2.66699 -13.333 4 -29.666 4 -48.999c0 -32 -10.167 -57.333 -30.5 -76s-47.5 -29.667 -81.5 -33z" />
    <glyph glyph-name="uni0327" unicode="&#x327;" 
d="M-530 -188c-17.333 0 -36 2 -56 6v44c14 -4.66699 30 -7 48 -7c15.333 0 28.5 3.16699 39.5 9.5s16.5 15.5 16.5 27.5s-7.16699 22 -21.5 30s-34.833 12 -61.5 12l1 30l19 42h51l-17 -37v-2c26.667 -1.33301 48 -8.83301 64 -22.5s24 -32.5 24 -56.5
c0 -22.667 -9 -41 -27 -55s-44.667 -21 -80 -21z" />
    <glyph glyph-name="uni0328" unicode="&#x328;" 
d="M-554 -186c-30.667 0 -54.833 7.5 -72.5 22.5s-26.5 35.5 -26.5 61.5c0 20 7.66699 40.667 23 62s36.666 39.333 63.999 54l61 -13c-24.667 -8 -44.5 -20 -59.5 -36s-22.5 -32.667 -22.5 -50c0 -30 16.333 -45 49 -45c18.667 0 34.334 3 47.001 9l6 -52
c-19.333 -8.66699 -42.333 -13 -69 -13z" />
    <glyph glyph-name="uni032E" unicode="&#x32e;" 
d="M-500 -220c-42 0 -75.8311 12.5 -101.498 37.5s-39.834 59.833 -42.501 104.5h65c1.33301 -22 9 -40.5 23 -55.5s32.667 -22.5 56 -22.5s42 7.5 56 22.5s21.667 33.5 23 55.5h65c-2.66699 -44.667 -16.834 -79.5 -42.501 -104.5s-59.5 -37.5 -101.5 -37.5z" />
    <glyph glyph-name="uni0331" unicode="&#x331;" 
d="M-644 -194v69h288v-69h-288z" />
    <glyph glyph-name="uni0335" unicode="&#x335;" 
d="M-633 301h270v-58h-270v58z" />
    <glyph glyph-name="uni037E" unicode="&#x37e;" horiz-adv-x="222" 
d="M114 375c-16.667 0 -30.834 5.66699 -42.501 17s-17.5 25.333 -17.5 42s5.83301 30.667 17.5 42s25.834 17 42.501 17s30.667 -5.66699 42 -17s17 -25.333 17 -42s-5.66699 -30.667 -17 -42s-25.333 -17 -42 -17zM70 110h88l-60 -241h-61z" />
    <glyph glyph-name="tonos" unicode="&#x384;" horiz-adv-x="464" 
d="M224 705h93l-73 -164h-79z" />
    <glyph glyph-name="dieresistonos" unicode="&#x385;" horiz-adv-x="555" 
d="M248 711h78l-43 -164h-64zM120 560c-16.667 0 -30.667 5.66699 -42 17s-17 25 -17 41s5.66699 29.667 17 41s25.333 17 42 17s30.667 -5.66699 42 -17s17 -25 17 -41s-5.66699 -29.667 -17 -41s-25.333 -17 -42 -17zM400 561c-16 0 -29.667 5.66699 -41 17
s-17 24.666 -17 39.999s5.66699 28.666 17 39.999s25 17 41 17s29.667 -5.66699 41 -17s17 -24.666 17 -39.999s-5.66699 -28.666 -17 -39.999s-25 -17 -41 -17z" />
    <glyph glyph-name="Alphatonos" unicode="&#x386;" horiz-adv-x="676" 
d="M294 710h87l270 -710h-91l-64 173h-317l-63 -173h-91zM42 705h93l-89 -164h-77zM469 249l-131 356h-2l-129 -356h262z" />
    <glyph glyph-name="Epsilontonos" unicode="&#x388;" horiz-adv-x="593" 
d="M88 710h435v-79h-348v-238h285v-79h-285v-235h369v-79h-456v710zM-76 705h93l-89 -164h-77z" />
    <glyph glyph-name="Etatonos" unicode="&#x389;" horiz-adv-x="721" 
d="M88 710h87v-333h371v333h87v-710h-87v298h-371v-298h-87v710zM-76 705h93l-89 -164h-77z" />
    <glyph glyph-name="Iotatonos" unicode="&#x38a;" horiz-adv-x="273" 
d="M93 710h87v-710h-87v710zM-70 705h93l-89 -164h-77z" />
    <glyph glyph-name="Omicrontonos" unicode="&#x38c;" horiz-adv-x="825" 
d="M414 -6c-104 0 -189.499 33.833 -256.499 101.5s-100.5 154.167 -100.5 259.5s33.667 192 101 260s152.666 102 255.999 102c101.333 0 185.666 -33.667 252.999 -101s101 -154.333 101 -261s-33.667 -193.5 -101 -260.5s-151.666 -100.5 -252.999 -100.5zM-23.999 705
h93l-89 -164h-77zM414.001 76c74.667 0 137.167 26.168 187.5 78.501s75.5 119.166 75.5 200.499s-25.167 148.333 -75.5 201s-112.833 79 -187.5 79c-76.667 0 -140.167 -26.5 -190.5 -79.5s-75.5 -119.833 -75.5 -200.5c0 -80 25.167 -146.5 75.5 -199.5
s113.833 -79.5 190.5 -79.5z" />
    <glyph glyph-name="Upsilontonos" unicode="&#x38e;" horiz-adv-x="601" 
d="M256 317l-241 393h100l184 -305h2l183 305h102l-243 -393v-317h-87v317zM-124 705h93l-89 -164h-77z" />
    <glyph glyph-name="Omegatonos" unicode="&#x38f;" horiz-adv-x="775" 
d="M66 79l147.999 0.00195312l1 1c-50 34.667 -89 77.667 -117 129s-42 108 -42 170c0 96.667 30.833 177 92.5 241s141.5 96 239.5 96c97.333 0 177 -32 239 -96s93 -144.333 93 -241c0 -61.333 -14 -117.833 -42 -169.5s-67 -94.834 -117 -129.501l1 -1h148v-79h-267v79
c124.667 75.333 187 175 187 299c0 74.667 -22.5 136 -67.5 184s-103.167 72 -174.5 72s-129.333 -24 -174 -72s-67 -109.333 -67 -184c0 -63.333 16.333 -120.333 49 -171s78.334 -93.334 137.001 -128.001v-79h-267v79zM-31.001 705.002h93l-89 -164h-77z" />
    <glyph glyph-name="iotadieresistonos" unicode="&#x390;" horiz-adv-x="273" 
d="M119 727h78l-43 -164h-64zM-9 576c-16.667 0 -30.667 5.66699 -42 17s-17 25 -17 41s5.66699 29.667 17 41s25.333 17 42 17s30.667 -5.66699 42 -17s17 -25 17 -41s-5.66699 -29.667 -17 -41s-25.333 -17 -42 -17zM271 577c-16 0 -29.667 5.66699 -41 17
s-17 24.666 -17 39.999s5.66699 28.666 17 39.999s25 17 41 17s29.667 -5.66699 41 -17s17 -24.666 17 -39.999s-5.66699 -28.666 -17 -39.999s-25 -17 -41 -17zM181 -6c-68 0 -102.001 39.333 -102.001 118v375h81v-351c0 -25.333 2.5 -42.833 7.5 -52.5
s16.167 -14.5 33.5 -14.5c12 0 28 2.66699 48 8l8 -68c-27.333 -10 -52.666 -15 -75.999 -15z" />
    <glyph glyph-name="Alpha" unicode="&#x391;" horiz-adv-x="676" 
d="M294 710h87l270 -710h-91l-64 173h-317l-63 -173h-91zM469 249l-131 356h-2l-129 -356h262z" />
    <glyph glyph-name="Beta" unicode="&#x392;" horiz-adv-x="635" 
d="M88 710l232 0.000976562c72 0 128.167 -14.167 168.5 -42.5s60.5 -71.833 60.5 -130.5c0 -36 -9.66699 -68.833 -29 -98.5s-47.333 -50.834 -84 -63.501v-2c44 -8.66699 79.667 -28.5 107 -59.5s41 -71.167 41 -120.5c0 -58.667 -20 -105.5 -60 -140.5
s-99 -52.5 -177 -52.5h-259v710zM321 404.001c40.667 0 74 9.33301 100 28s39 48 39 88c0 74.667 -49.667 112 -149 112l-136 -1v-227h146zM339 79.001c48 0 85.667 10.167 113 30.5s41 50.5 41 90.5c0 40.667 -14.333 72.167 -43 94.5s-70 33.5 -124 33.5h-151v-249h164z
" />
    <glyph glyph-name="Gamma" unicode="&#x393;" horiz-adv-x="563" 
d="M88 710h446v-79h-359v-631h-87v710z" />
    <glyph glyph-name="uni0394" unicode="&#x394;" horiz-adv-x="663" 
d="M35 68l251 642h89l253 -642v-68h-593v68zM528 79l-196 524h-2l-197 -524h395z" />
    <glyph glyph-name="Epsilon" unicode="&#x395;" horiz-adv-x="593" 
d="M88 710h435v-79h-348v-238h285v-79h-285v-235h369v-79h-456v710z" />
    <glyph glyph-name="Zeta" unicode="&#x396;" horiz-adv-x="613" 
d="M57 69l378 561l-1 1h-358v79h473v-69l-381 -560l1 -2h384v-79h-496v69z" />
    <glyph glyph-name="Eta" unicode="&#x397;" horiz-adv-x="721" 
d="M88 710h87v-333h371v333h87v-710h-87v298h-371v-298h-87v710z" />
    <glyph glyph-name="Theta" unicode="&#x398;" horiz-adv-x="835" 
d="M414 -6c-104 0 -189.499 33.833 -256.499 101.5s-100.5 154.167 -100.5 259.5s33.667 192 101 260s152.666 102 255.999 102c101.333 0 185.666 -33.667 252.999 -101s101 -154.333 101 -261s-33.667 -193.5 -101 -260.5s-151.666 -100.5 -252.999 -100.5zM414.001 76
c74.667 0 137.167 26.168 187.5 78.501s75.5 119.166 75.5 200.499s-25.167 148.333 -75.5 201s-112.833 79 -187.5 79c-76.667 0 -140.167 -26.5 -190.5 -79.5s-75.5 -119.833 -75.5 -200.5c0 -80 25.167 -146.5 75.5 -199.5s113.833 -79.5 190.5 -79.5zM247.001 390.001
h342v-78h-342v78z" />
    <glyph glyph-name="Iota" unicode="&#x399;" horiz-adv-x="273" 
d="M93 710h87v-710h-87v710z" />
    <glyph glyph-name="Kappa" unicode="&#x39a;" horiz-adv-x="646" 
d="M88 710h87v-389h2l322 389h112l-275 -324l282 -386h-109l-231 318l-103 -121v-197h-87v710z" />
    <glyph glyph-name="Lambda" unicode="&#x39b;" horiz-adv-x="670" 
d="M289 710h89l264 -710h-95l-212 589h-3l-211 -589h-94z" />
    <glyph glyph-name="Mu" unicode="&#x39c;" horiz-adv-x="875" 
d="M88 710h88l261 -459h2l261 459h87v-710h-87v541h-2l-231 -398h-59l-231 398h-1v-541h-88v710z" />
    <glyph glyph-name="Nu" unicode="&#x39d;" horiz-adv-x="751" 
d="M88 710h86l401 -565h1v565h87v-710h-89l-397 559h-2v-559h-87v710z" />
    <glyph glyph-name="Xi" unicode="&#x39e;" horiz-adv-x="625" 
d="M69 710h487v-81h-487v81zM115 391h393v-79h-393v79zM62 81h501v-81h-501v81z" />
    <glyph glyph-name="Omicron" unicode="&#x39f;" horiz-adv-x="825" 
d="M414 -6c-104 0 -189.499 33.833 -256.499 101.5s-100.5 154.167 -100.5 259.5s33.667 192 101 260s152.666 102 255.999 102c101.333 0 185.666 -33.667 252.999 -101s101 -154.333 101 -261s-33.667 -193.5 -101 -260.5s-151.666 -100.5 -252.999 -100.5zM414.001 76
c74.667 0 137.167 26.168 187.5 78.501s75.5 119.166 75.5 200.499s-25.167 148.333 -75.5 201s-112.833 79 -187.5 79c-76.667 0 -140.167 -26.5 -190.5 -79.5s-75.5 -119.833 -75.5 -200.5c0 -80 25.167 -146.5 75.5 -199.5s113.833 -79.5 190.5 -79.5z" />
    <glyph glyph-name="Pi" unicode="&#x3a0;" horiz-adv-x="696" 
d="M88 710h521v-710h-88v631h-346v-631h-87v710z" />
    <glyph glyph-name="Rho" unicode="&#x3a1;" horiz-adv-x="613" 
d="M88 710l248 0.000976562c79.333 0 138.333 -20 177 -60s58 -93.333 58 -160c0 -72.667 -22.5 -127.334 -67.5 -164.001s-105.833 -55 -182.5 -55h-146v-271h-87v710zM313 350.001c56.667 0 98.833 12.833 126.5 38.5s41.5 60.167 41.5 103.5c0 44.667 -13.667 79 -41 103
s-65 36 -113 36h-152v-281h138z" />
    <glyph glyph-name="Sigma" unicode="&#x3a3;" horiz-adv-x="577" 
d="M54 63l200 293l-200 289v65h480v-79h-361l-1 -2l188 -273l-188 -274l1 -3h361v-79h-480v63z" />
    <glyph glyph-name="Tau" unicode="&#x3a4;" horiz-adv-x="573" 
d="M242 631h-212v79h514v-79h-215v-631h-87v631z" />
    <glyph glyph-name="Upsilon" unicode="&#x3a5;" horiz-adv-x="601" 
d="M256 317l-241 393h100l184 -305h2l183 305h102l-243 -393v-317h-87v317z" />
    <glyph glyph-name="Phi" unicode="&#x3a6;" horiz-adv-x="850" 
d="M803 361c0 -84.667 -29.667 -153.166 -89 -205.499s-141 -79.833 -245 -82.5v-73h-88v73c-103.333 2.66699 -184.666 30.167 -243.999 82.5s-89 120.833 -89 205.5c0 88.667 29.667 160.667 89 216s140.666 84.333 243.999 87v65h88v-65
c103.333 -2.66699 184.833 -31.834 244.5 -87.501s89.5 -127.5 89.5 -215.5zM139 361.001c0 -61.333 21.5 -111 64.5 -149s102.833 -58.333 179.5 -61v434c-77.333 -2 -137.333 -23.333 -180 -64s-64 -94 -64 -160zM467 151.001c77.333 2.66699 137.5 22.832 180.5 60.499
s64.5 87.5 64.5 149.5c0 65.333 -21.333 118.333 -64 159s-103 62.334 -181 65.001v-434z" />
    <glyph glyph-name="Chi" unicode="&#x3a7;" horiz-adv-x="663" 
d="M274 355l-238 355h101l195 -287h1l194 287h101l-239 -355l242 -355h-103l-196 286h-2l-196 -286h-101z" />
    <glyph glyph-name="Psi" unicode="&#x3a8;" horiz-adv-x="788" 
d="M720 710l-0.999023 -254.999c0 -190.667 -94 -286.334 -282 -287.001v-168h-88v168c-187.333 2 -281 97.667 -281 287l1 255h87l-1 -246c0 -72 15 -125.833 45 -161.5s79.667 -54.167 149 -55.5v463h88v-463c67.333 1.33301 116.666 19.5 147.999 54.5
s47.333 89.167 48 162.5v246h87z" />
    <glyph glyph-name="uni03A9" unicode="&#x3a9;" horiz-adv-x="775" 
d="M66 79l147.999 0.00195312l1 1c-50 34.667 -89 77.667 -117 129s-42 108 -42 170c0 96.667 30.833 177 92.5 241s141.5 96 239.5 96c97.333 0 177 -32 239 -96s93 -144.333 93 -241c0 -61.333 -14 -117.833 -42 -169.5s-67 -94.834 -117 -129.501l1 -1h148v-79h-267v79
c124.667 75.333 187 175 187 299c0 74.667 -22.5 136 -67.5 184s-103.167 72 -174.5 72s-129.333 -24 -174 -72s-67 -109.333 -67 -184c0 -63.333 16.333 -120.333 49 -171s78.334 -93.334 137.001 -128.001v-79h-267v79z" />
    <glyph glyph-name="Iotadieresis" unicode="&#x3aa;" horiz-adv-x="273" 
d="M29 792c-16.667 0 -30.667 5.66699 -42 17s-17 25 -17 41s5.66699 29.667 17 41s25.333 17 42 17c16 0 29.833 -5.66699 41.5 -17s17.5 -25 17.5 -41s-5.83301 -29.667 -17.5 -41s-25.5 -17 -41.5 -17zM246 793c-16 0 -29.667 5.66699 -41 17s-17 24.666 -17 39.999
s5.66699 28.666 17 39.999s25 17 41 17s29.667 -5.66699 41 -17s17 -24.666 17 -39.999s-5.66699 -28.666 -17 -39.999s-25 -17 -41 -17zM93 710h87v-710h-87v710z" />
    <glyph glyph-name="Upsilondieresis" unicode="&#x3ab;" horiz-adv-x="601" 
d="M188 792c-16.667 0 -30.667 5.66699 -42 17s-17 25 -17 41s5.66699 29.667 17 41s25.333 17 42 17c16 0 29.833 -5.66699 41.5 -17s17.5 -25 17.5 -41s-5.83301 -29.667 -17.5 -41s-25.5 -17 -41.5 -17zM405 793c-16 0 -29.667 5.66699 -41 17s-17 24.666 -17 39.999
s5.66699 28.666 17 39.999s25 17 41 17s29.667 -5.66699 41 -17s17 -24.666 17 -39.999s-5.66699 -28.666 -17 -39.999s-25 -17 -41 -17zM256 317l-241 393h100l184 -305h2l183 305h102l-243 -393v-317h-87v317z" />
    <glyph glyph-name="alphatonos" unicode="&#x3ac;" horiz-adv-x="600" 
d="M318 721h93l-73 -164h-79zM266 -6c-66 0 -119.667 22.832 -161 68.499s-62 104.834 -62 177.501s21.333 133 64 181s97.667 72 165 72c80 0 137.333 -36 172 -108h2l5 102h78l-23 -237v-107c0 -25.333 2.66699 -44 8 -56s16 -18 32 -18c12.667 0 24 2 34 6l9 -67
c-24.667 -9.33301 -48 -14 -70 -14c-24 0 -43 8 -57 24s-22.667 36.667 -26 62l-1 12c-36.667 -65.333 -93 -98 -169 -98zM275 67.999c43.333 0 80.167 15.833 110.5 47.5s47.833 73.167 52.5 124.5c-0.666992 53.333 -15 96.5 -43 129.5s-65.333 49.5 -112 49.5
c-44.667 0 -82 -16.5 -112 -49.5s-45 -76.167 -45 -129.5c0 -50 13.667 -91.167 41 -123.5s63.333 -48.5 108 -48.5z" />
    <glyph glyph-name="epsilontonos" unicode="&#x3ad;" horiz-adv-x="487" 
d="M287 557h-79l59 164h93zM457 50c-61.333 -37.333 -134.666 -56.002 -219.999 -56.002c-58 0 -103.833 11.833 -137.5 35.5s-50.5 57.834 -50.5 102.501c0 26.667 8.16699 50.667 24.5 72s38.5 37 66.5 47c-24.667 12 -43.667 27.333 -57 46s-20 38.334 -20 59.001
c0 45.333 17.167 79.5 51.5 102.5s79.166 34.5 134.499 34.5c76 0 143.667 -17 203 -51l-34 -61c-56.667 25.333 -111 38 -163 38c-73.333 -1.33301 -110 -24.333 -110 -69c0 -18 8.5 -34 25.5 -48s42.5 -21 76.5 -21h86v-66h-96c-35.333 0 -61.333 -7.83301 -78 -23.5
s-25 -33.167 -25 -52.5c0 -47.333 41 -71 123 -71c59.333 0 113.333 14 162 42z" />
    <glyph glyph-name="etatonos" unicode="&#x3ae;" horiz-adv-x="574" 
d="M308 721h93l-73 -164h-79zM426 266c0 102 -39.667 152.999 -119 152.999c-44.667 0 -80.834 -16 -108.501 -48s-41.5 -75 -41.5 -129v-242h-81v487h81v-87l2 -1c19.333 29.333 44.333 52.333 75 69s63.667 25 99 25c54.667 0 97.334 -17.167 128.001 -51.5
s46 -85.166 46 -152.499v-487h-81v464z" />
    <glyph glyph-name="iotatonos" unicode="&#x3af;" horiz-adv-x="265" 
d="M140 721h93l-73 -164h-79zM181 -6c-68 0 -102.001 39.333 -102.001 118v375h81v-351c0 -25.333 2.5 -42.833 7.5 -52.5s16.167 -14.5 33.5 -14.5c12 0 28 2.66699 48 8l8 -68c-27.333 -10 -52.666 -15 -75.999 -15z" />
    <glyph glyph-name="upsilondieresistonos" unicode="&#x3b0;" horiz-adv-x="559" 
d="M270 728h78l-43 -164h-64zM142 577c-16.667 0 -30.667 5.66699 -42 17s-17 25 -17 41s5.66699 29.667 17 41s25.333 17 42 17s30.667 -5.66699 42 -17s17 -25 17 -41s-5.66699 -29.667 -17 -41s-25.333 -17 -42 -17zM422 578c-16 0 -29.667 5.66699 -41 17
s-17 24.666 -17 39.999s5.66699 28.666 17 39.999s25 17 41 17s29.667 -5.66699 41 -17s17 -24.666 17 -39.999s-5.66699 -28.666 -17 -39.999s-25 -17 -41 -17zM277 -6c-64.667 0 -116.335 20.5 -155.002 61.5s-58 100.167 -58 177.5v254h81v-244
c0 -58.667 12.333 -102.5 37 -131.5s56.334 -43.5 95.001 -43.5c41.333 0 73.833 14.333 97.5 43s35.5 72.667 35.5 132v244h80v-254c0 -78 -18.667 -137.333 -56 -178s-89.666 -61 -156.999 -61z" />
    <glyph glyph-name="alpha" unicode="&#x3b1;" horiz-adv-x="600" 
d="M266 -6c-66 0 -119.667 22.832 -161 68.499s-62 104.834 -62 177.501s21.333 133 64 181s97.667 72 165 72c80 0 137.333 -36 172 -108h2l5 102h78l-23 -237v-107c0 -25.333 2.66699 -44 8 -56s16 -18 32 -18c12.667 0 24 2 34 6l9 -67c-24.667 -9.33301 -48 -14 -70 -14
c-24 0 -43 8 -57 24s-22.667 36.667 -26 62l-1 12c-36.667 -65.333 -93 -98 -169 -98zM275 67.999c43.333 0 80.167 15.833 110.5 47.5s47.833 73.167 52.5 124.5c-0.666992 53.333 -15 96.5 -43 129.5s-65.333 49.5 -112 49.5c-44.667 0 -82 -16.5 -112 -49.5
s-45 -76.167 -45 -129.5c0 -50 13.667 -91.167 41 -123.5s63.333 -48.5 108 -48.5z" />
    <glyph glyph-name="beta" unicode="&#x3b2;" horiz-adv-x="585" 
d="M76 495c0 81.333 20.168 143.001 60.501 185.001s94.166 63 161.499 63c62.667 0 113 -17.167 151 -51.5s57 -77.833 57 -130.5c0 -78.667 -31 -132.334 -93 -161.001v-1c40.667 -16 72.5 -40.833 95.5 -74.5s34.5 -70.5 34.5 -110.5c0 -66.667 -20.5 -120 -61.5 -160
s-95.5 -60 -163.5 -60c-69.333 0 -122.333 26 -159 78l-2 -1v-269h-81v693zM310.001 67.001c45.333 0 81.665 13.3311 108.998 39.998s41 61.334 41 104.001c0 40 -14.5 73.833 -43.5 101.5s-69.833 41.5 -122.5 41.5h-42v69h38c28 0.666992 51.667 5.33398 71 14.001
s33.333 20 42 34s14.667 27.5 18 40.5s5 26.833 5 41.5c0 32.667 -11.167 60.167 -33.5 82.5s-53.166 33.5 -92.499 33.5c-42.667 0 -77.167 -14 -103.5 -42s-39.5 -70.333 -39.5 -127v-275c0 -42.667 14.333 -79.667 43 -111s65.334 -47 110.001 -47z" />
    <glyph glyph-name="gamma" unicode="&#x3b3;" horiz-adv-x="520" 
d="M232 -198l0.000976562 35.999c0 18 -0.166992 30.667 -0.5 38s-1 18.5 -2 33.5s-2.16699 27.333 -3.5 37s-3.5 20.834 -6.5 33.501s-6.83301 24.667 -11.5 36l-185 471h89l147 -396h3l147 396h88l-196 -494c3.33301 -12.667 5.66602 -27.334 6.99902 -44.001
s2.33301 -29.667 3 -39s1 -27.666 1 -54.999v-53h-80z" />
    <glyph glyph-name="delta" unicode="&#x3b4;" horiz-adv-x="572" 
d="M367 478c110 -44 165.001 -124.334 165.001 -241.001c0 -73.333 -23.167 -132.166 -69.5 -176.499s-103.833 -66.5 -172.5 -66.5c-72 0 -131 23 -177 69s-69 104.333 -69 175c0 52.667 14 98.5 42 137.5s66.333 69.833 115 92.5c-66.667 33.333 -100 79.333 -100 138
c0 40.667 16.333 73.5 49 98.5s78.667 37.833 138 38.5c80 0 149.667 -17.333 209 -52l-33 -64c-52 27.333 -109.333 41 -172 41c-34.667 0 -61.667 -5.83301 -81 -17.5s-29 -27.834 -29 -48.501c0 -18.667 7.16699 -35.167 21.5 -49.5s38.5 -28.166 72.5 -41.499
c41.333 -14 71.666 -25 90.999 -33zM290.001 67.999c44.667 0 82.5 15.332 113.5 45.999s46.5 71.667 46.5 123c0 93.333 -48.667 156.333 -146 189c-19.333 6.66699 -29.333 10.334 -30 11.001c-45.333 -18 -81.333 -44.5 -108 -79.5s-40 -74.833 -40 -119.5
c0 -49.333 15.167 -90 45.5 -122s69.833 -48 118.5 -48z" />
    <glyph glyph-name="epsilon" unicode="&#x3b5;" horiz-adv-x="487" 
d="M457 50c-61.333 -37.333 -134.666 -56.002 -219.999 -56.002c-58 0 -103.833 11.833 -137.5 35.5s-50.5 57.834 -50.5 102.501c0 26.667 8.16699 50.667 24.5 72s38.5 37 66.5 47c-24.667 12 -43.667 27.333 -57 46s-20 38.334 -20 59.001
c0 45.333 17.167 79.5 51.5 102.5s79.166 34.5 134.499 34.5c76 0 143.667 -17 203 -51l-34 -61c-56.667 25.333 -111 38 -163 38c-73.333 -1.33301 -110 -24.333 -110 -69c0 -18 8.5 -34 25.5 -48s42.5 -21 76.5 -21h86v-66h-96c-35.333 0 -61.333 -7.83301 -78 -23.5
s-25 -33.167 -25 -52.5c0 -47.333 41 -71 123 -71c59.333 0 113.333 14 162 42z" />
    <glyph glyph-name="zeta" unicode="&#x3b6;" horiz-adv-x="456" 
d="M305 -176c0.666992 0.666992 3.33496 3.83008 8.00195 9.49707s7.5 9.16699 8.5 10.5s3.66699 4.66602 8 9.99902s7.16602 9 8.49902 11s3.83301 5.5 7.5 10.5s6 8.83301 7 11.5s2.66699 6.33398 5 11.001s4 8.66699 5 12s1.83301 7 2.5 11s1 8 1 12
c0 18 -7.5 32.5 -22.5 43.5s-46.167 23.5 -93.5 37.5c-33.333 10 -60.5 19.833 -81.5 29.5s-42 22.834 -63 39.501s-36.5 37.5 -46.5 62.5s-15 54.833 -15 89.5c2 128.667 100.333 271.667 295 429v2h-261v70h381v-62c-98 -72.667 -177.833 -147.667 -239.5 -225
s-92.834 -148.666 -93.501 -213.999c0 -18.667 3 -35.5 9 -50.5s13.167 -27.167 21.5 -36.5s21.5 -18.666 39.5 -27.999s33.5 -16.5 46.5 -21.5s32.5 -11.833 58.5 -20.5c56 -17.333 94.667 -35.5 116 -54.5s32 -45.5 32 -79.5c0 -50 -25 -102 -75 -156z" />
    <glyph glyph-name="eta" unicode="&#x3b7;" horiz-adv-x="574" 
d="M426 266c0 102 -39.667 152.999 -119 152.999c-44.667 0 -80.834 -16 -108.501 -48s-41.5 -75 -41.5 -129v-242h-81v487h81v-87l2 -1c19.333 29.333 44.333 52.333 75 69s63.667 25 99 25c54.667 0 97.334 -17.167 128.001 -51.5s46 -85.166 46 -152.499v-487h-81v464z
" />
    <glyph glyph-name="theta" unicode="&#x3b8;" horiz-adv-x="578" 
d="M291 743c74.667 0 134.5 -31.002 179.5 -93.002s67.5 -155.667 67.5 -281c0 -73.333 -8 -137.166 -24 -191.499s-42.833 -98.5 -80.5 -132.5s-85.167 -51 -142.5 -51c-75.333 0 -135.333 30.833 -180 92.5s-67 155.834 -67 282.501c0 111.333 20.167 201.5 60.5 270.5
s102.5 103.5 186.5 103.5zM291 668.998c-50.667 0 -89.667 -23 -117 -69s-43 -109.333 -47 -190h328c-4 84.667 -20.5 149 -49.5 193s-67.167 66 -114.5 66zM291 67.998c52 0 91.668 24 119.001 72s42.666 114.667 45.999 200h-330c2.66699 -89.333 18.5 -157 47.5 -203
s68.167 -69 117.5 -69z" />
    <glyph glyph-name="iota" unicode="&#x3b9;" horiz-adv-x="265" 
d="M181 -6c-68 0 -102.001 39.333 -102.001 118v375h81v-351c0 -25.333 2.5 -42.833 7.5 -52.5s16.167 -14.5 33.5 -14.5c12 0 28 2.66699 48 8l8 -68c-27.333 -10 -52.666 -15 -75.999 -15z" />
    <glyph glyph-name="kappa" unicode="&#x3ba;" horiz-adv-x="547" 
d="M76 487h81v-263l2 -1l261 264h103l-209 -206l220 -281h-100l-174 225l-103 -100v-125h-81v487z" />
    <glyph glyph-name="lambda" unicode="&#x3bb;" horiz-adv-x="544" 
d="M432 0l-62.5 173l-79.5 218h-1l-172 -391h-89l222 496l-30 79c-12 32.667 -25.167 56.667 -39.5 72s-32.5 23 -54.5 23c-17.333 0 -34.333 -3 -51 -9l-10 68c28 9.33301 55 14 81 14c36 0 65.833 -12.667 89.5 -38s45.167 -64.333 64.5 -117l217 -588h-85z" />
    <glyph glyph-name="uni03BC" unicode="&#x3bc;" horiz-adv-x="569" 
d="M72 487h81v-258c0 -107.333 41.333 -161 124 -161c40.667 0 74.167 16 100.5 48s39.5 74.667 39.5 128v243h81v-487h-74l-5 84h-2c-38 -60 -89.667 -90 -155 -90c-50.667 0 -87.667 18 -111 54l-2 -1c2.66699 -46.667 4 -82.667 4 -108v-137h-81v685z" />
    <glyph glyph-name="nu" unicode="&#x3bd;" horiz-adv-x="520" 
d="M23 487h88l149 -384h1l149 384h87l-198 -487h-78z" />
    <glyph glyph-name="xi" unicode="&#x3be;" horiz-adv-x="478" 
d="M312 -176c41.333 46 62 82.001 62 108.001c0 17.333 -8 31.5 -24 42.5s-48.667 25.167 -98 42.5c-30 10.667 -56 21.5 -78 32.5s-43.333 24.667 -64 41s-36.5 35.833 -47.5 58.5s-16.5 48 -16.5 76c0 36.667 12.167 71.167 36.5 103.5s57.166 56.5 98.499 72.5v1
c-66 31.333 -99 83.333 -99 156c0 58 19.833 103.333 59.5 136s85.834 49 138.501 49c69.333 0 133.666 -17.333 192.999 -52l-33 -64c-52 27.333 -102.333 41 -151 41c-37.333 0.666992 -67.5 -9.83301 -90.5 -31.5s-34.5 -48.834 -34.5 -81.501
c0 -82.667 61.333 -124 184 -124h67v-70h-106c-55.333 0 -99.333 -13 -132 -39s-49 -56.667 -49 -92c0 -34.667 13.5 -63 40.5 -85s68.167 -43.333 123.5 -64c62 -22.667 105 -43.667 129 -63s36 -45 36 -77c-0.666992 -23.333 -8.66699 -49.333 -24 -78
s-32.666 -53.667 -51.999 -75z" />
    <glyph glyph-name="omicron" unicode="&#x3bf;" horiz-adv-x="577" 
d="M289 -6c-72.667 0 -131.834 23.3311 -177.501 69.998s-68.5 106.334 -68.5 179.001s22.833 132.5 68.5 179.5s104.834 70.5 177.501 70.5c71.333 0 130 -23.333 176 -70s69 -106.667 69 -180s-23 -133.166 -69 -179.499s-104.667 -69.5 -176 -69.5zM289 67.998
c46.667 0 85.667 16.333 117 49s47 74.667 47 126s-15.667 93.333 -47 126s-70.333 49 -117 49c-48 0 -87.333 -16.5 -118 -49.5s-46 -74.833 -46 -125.5c0 -50 15.333 -91.667 46 -125s70 -50 118 -50z" />
    <glyph glyph-name="pi" unicode="&#x3c0;" horiz-adv-x="604" 
d="M584 417h-93v-417h-81v417h-222v-417h-81v417h-82v70h559v-70z" />
    <glyph glyph-name="rho" unicode="&#x3c1;" horiz-adv-x="594" 
d="M66 240c0 74 22.001 134.668 66.001 182.001s101 71 171 71c72 0 131.333 -24 178 -72s70 -108.333 70 -181s-22.167 -131.834 -66.5 -177.501s-99.5 -68.5 -165.5 -68.5c-72.667 0 -129.334 27.333 -170.001 82h-2v-274h-81v438zM303.001 68.001
c48.667 0 88.5 16.333 119.5 49s46.5 73.667 46.5 123c0 52.667 -16 95.667 -48 129s-71.333 50 -118 50s-84.834 -17.167 -114.501 -51.5s-44.5 -76.833 -44.5 -127.5s15.333 -92 46 -124s68.334 -48 113.001 -48z" />
    <glyph glyph-name="uni03C2" unicode="&#x3c2;" horiz-adv-x="499" 
d="M300 -176c1.33301 1.33301 4.33008 4.49805 8.99707 9.49805s7.83398 8.5 9.50098 10.5l8 9.5c3.66699 4.33301 6.33398 7.66602 8.00098 9.99902l7.5 10c3.33301 4.33301 5.66602 7.83301 6.99902 10.5l5 10.5c2 4.33301 3.5 8.16602 4.5 11.499
s1.83301 7.16602 2.5 11.499s1 8.5 1 12.5c0 17.333 -6.83301 31.333 -20.5 42s-39.5 23.334 -77.5 38.001c-35.333 12.667 -64.666 25.167 -87.999 37.5s-46.333 28 -69 47s-39.5 42.167 -50.5 69.5s-16.5 59 -16.5 95c0 68.667 22.5 124.834 67.5 168.501
s104.167 65.5 177.5 65.5c36 0 71.333 -7.5 106 -22.5s64 -36.5 88 -64.5l-56 -49c-35.333 41.333 -80.666 62 -135.999 62c-50 0 -90 -15.167 -120 -45.5s-45 -68.5 -45 -114.5s15 -82.167 45 -108.5s77.333 -51.166 142 -74.499
c48.667 -17.333 83.334 -36.166 104.001 -56.499s31 -47.166 31 -80.499c0 -20 -4.33301 -40.167 -13 -60.5s-17.334 -36.333 -26.001 -48s-20.667 -26.167 -36 -43.5z" />
    <glyph glyph-name="sigma" unicode="&#x3c3;" horiz-adv-x="588" 
d="M286 -6c-70 0 -127.833 22.332 -173.5 66.999s-68.5 103.667 -68.5 177c0 72 23.167 131.5 69.5 178.5s105.833 70.5 178.5 70.5h278v-70h-135l-1 -2c64 -48.667 96 -111 96 -187c0 -67.333 -22.667 -123.166 -68 -167.499s-104 -66.5 -176 -66.5zM286 67.999
c48 0 86.666 16 115.999 48s44 72.667 44 122c0 76 -35.333 135.667 -106 179h-48c-48 0 -87.5 -17.167 -118.5 -51.5s-46.5 -76.833 -46.5 -127.5c0 -51.333 15.333 -92.5 46 -123.5s68.334 -46.5 113.001 -46.5z" />
    <glyph glyph-name="tau" unicode="&#x3c4;" horiz-adv-x="457" 
d="M280 -6c-42.667 0 -73.667 11.833 -93 35.5s-29 60.167 -29 109.5v278h-143v70h413v-70h-189v-257c0 -32.667 4 -56 12 -70s25 -21 51 -21c26.667 0 56 9 88 27l21 -72c-41.333 -20 -85 -30 -131 -30z" />
    <glyph glyph-name="upsilon" unicode="&#x3c5;" horiz-adv-x="555" 
d="M277 -6c-64.667 0 -116.335 20.5 -155.002 61.5s-58 100.167 -58 177.5v254h81v-244c0 -58.667 12.333 -102.5 37 -131.5s56.334 -43.5 95.001 -43.5c41.333 0 73.833 14.333 97.5 43s35.5 72.667 35.5 132v244h80v-254c0 -78 -18.667 -137.333 -56 -178
s-89.666 -61 -156.999 -61z" />
    <glyph glyph-name="phi" unicode="&#x3c6;" horiz-adv-x="698" 
d="M653 264c0 -74.667 -24.498 -137.502 -73.498 -188.502s-114.5 -77.167 -196.5 -78.5v-195h-81v195c-74 1.33301 -135 24.333 -183 69s-72 103.667 -72 177c0 94 33.667 179.333 101 256l81 -25c-66.667 -68.667 -100 -143.667 -100 -225
c0 -50.667 15.833 -92.167 47.5 -124.5s73.5 -50.166 125.5 -53.499v227c0 64.667 14.167 113.334 42.5 146.001s64.166 49 107.499 49c59.333 0 107.666 -21.833 144.999 -65.5s56 -98.167 56 -163.5zM383.002 69.998c59.333 2.66699 105.5 22 138.5 58
s49.5 80.667 49.5 134c0 41.333 -10.167 77.833 -30.5 109.5s-47.833 47.5 -82.5 47.5c-50 0 -75 -42.333 -75 -127v-222z" />
    <glyph glyph-name="chi" unicode="&#x3c7;" horiz-adv-x="514" 
d="M454 -204c-26 0 -47.5 8 -64.5 24s-33.167 40.333 -48.5 73l-85 179h-1l-148 -270h-89l200 352l-105 208c-10 20 -19.667 34.333 -29 43s-21 13 -35 13c-6 0 -13.333 -1 -22 -3l-10 65c17.333 8.66699 36.666 13 57.999 13c25.333 0 46.5 -8.16699 63.5 -24.5
s32.833 -40.5 47.5 -72.5l73 -161h2l139 252h88l-189 -332l115 -229c18.667 -38 38.667 -57 60 -57c1.33301 0 10 1.33301 26 4l9 -64c-17.333 -8.66699 -35.666 -13 -54.999 -13z" />
    <glyph glyph-name="psi" unicode="&#x3c8;" horiz-adv-x="698" 
d="M636 487l-0.000976562 -255.997c0 -76.667 -22.167 -135.167 -66.5 -175.5s-104.833 -60.833 -181.5 -61.5v-192h-81v192c-75.333 0.666992 -135 21.167 -179 61.5s-66 98.833 -66 175.5v256h80v-245c0 -56.667 15.333 -99.334 46 -128.001
s70.334 -43.334 119.001 -44.001v567h81v-567c50 0.666992 90.333 15.167 121 43.5s46 71.166 46 128.499v245h81z" />
    <glyph glyph-name="omega" unicode="&#x3c9;" horiz-adv-x="754" 
d="M228 -6c-52 0 -95.334 22.001 -130.001 66.001s-52 102 -52 174c0 103.333 33.333 191.666 100 264.999l73 -19c-27.333 -32.667 -49.166 -70 -65.499 -112s-24.5 -84.333 -24.5 -127c0 -54 10 -96.333 30 -127s46.333 -46 79 -46c31.333 0 55.666 15.667 72.999 47
s26 74.333 26 129v120h80v-120c0 -54.667 8.66699 -97.667 26 -129s42 -47 74 -47s58 15.333 78 46s30 73 30 127c0 42 -8.16699 84.167 -24.5 126.5s-38.166 79.833 -65.499 112.5l73 19c66.667 -72 100 -160.333 100 -265c0 -72 -17.333 -130 -52 -174s-78 -66 -130 -66
c-72 0 -121.333 35.667 -148 107h-2c-26.667 -71.333 -76 -107 -148 -107z" />
    <glyph glyph-name="iotadieresis" unicode="&#x3ca;" horiz-adv-x="265" 
d="M12 576c-16.667 0 -30.667 5.66699 -42 17s-17 25 -17 41s5.66699 29.667 17 41s25.333 17 42 17c16 0 29.833 -5.66699 41.5 -17s17.5 -25 17.5 -41s-5.83301 -29.667 -17.5 -41s-25.5 -17 -41.5 -17zM229 577c-16 0 -29.667 5.66699 -41 17s-17 24.666 -17 39.999
s5.66699 28.666 17 39.999s25 17 41 17s29.667 -5.66699 41 -17s17 -24.666 17 -39.999s-5.66699 -28.666 -17 -39.999s-25 -17 -41 -17zM181 -6c-68 0 -102.001 39.333 -102.001 118v375h81v-351c0 -25.333 2.5 -42.833 7.5 -52.5s16.167 -14.5 33.5 -14.5
c12 0 28 2.66699 48 8l8 -68c-27.333 -10 -52.666 -15 -75.999 -15z" />
    <glyph glyph-name="upsilondieresis" unicode="&#x3cb;" horiz-adv-x="555" 
d="M169 576c-16.667 0 -30.667 5.66699 -42 17s-17 25 -17 41s5.66699 29.667 17 41s25.333 17 42 17c16 0 29.833 -5.66699 41.5 -17s17.5 -25 17.5 -41s-5.83301 -29.667 -17.5 -41s-25.5 -17 -41.5 -17zM386 577c-16 0 -29.667 5.66699 -41 17s-17 24.666 -17 39.999
s5.66699 28.666 17 39.999s25 17 41 17s29.667 -5.66699 41 -17s17 -24.666 17 -39.999s-5.66699 -28.666 -17 -39.999s-25 -17 -41 -17zM277 -6c-64.667 0 -116.335 20.5 -155.002 61.5s-58 100.167 -58 177.5v254h81v-244c0 -58.667 12.333 -102.5 37 -131.5
s56.334 -43.5 95.001 -43.5c41.333 0 73.833 14.333 97.5 43s35.5 72.667 35.5 132v244h80v-254c0 -78 -18.667 -137.333 -56 -178s-89.666 -61 -156.999 -61z" />
    <glyph glyph-name="omicrontonos" unicode="&#x3cc;" horiz-adv-x="577" 
d="M307 721h93l-73 -164h-79zM289 -6c-72.667 0 -131.834 23.3311 -177.501 69.998s-68.5 106.334 -68.5 179.001s22.833 132.5 68.5 179.5s104.834 70.5 177.501 70.5c71.333 0 130 -23.333 176 -70s69 -106.667 69 -180s-23 -133.166 -69 -179.499
s-104.667 -69.5 -176 -69.5zM289 67.998c46.667 0 85.667 16.333 117 49s47 74.667 47 126s-15.667 93.333 -47 126s-70.333 49 -117 49c-48 0 -87.333 -16.5 -118 -49.5s-46 -74.833 -46 -125.5c0 -50 15.333 -91.667 46 -125s70 -50 118 -50z" />
    <glyph glyph-name="upsilontonos" unicode="&#x3cd;" horiz-adv-x="555" 
d="M297 721h93l-73 -164h-79zM277 -6c-64.667 0 -116.335 20.5 -155.002 61.5s-58 100.167 -58 177.5v254h81v-244c0 -58.667 12.333 -102.5 37 -131.5s56.334 -43.5 95.001 -43.5c41.333 0 73.833 14.333 97.5 43s35.5 72.667 35.5 132v244h80v-254
c0 -78 -18.667 -137.333 -56 -178s-89.666 -61 -156.999 -61z" />
    <glyph glyph-name="omegatonos" unicode="&#x3ce;" horiz-adv-x="754" 
d="M396 721h93l-73 -164h-79zM228 -6c-52 0 -95.334 22.001 -130.001 66.001s-52 102 -52 174c0 103.333 33.333 191.666 100 264.999l73 -19c-27.333 -32.667 -49.166 -70 -65.499 -112s-24.5 -84.333 -24.5 -127c0 -54 10 -96.333 30 -127s46.333 -46 79 -46
c31.333 0 55.666 15.667 72.999 47s26 74.333 26 129v120h80v-120c0 -54.667 8.66699 -97.667 26 -129s42 -47 74 -47s58 15.333 78 46s30 73 30 127c0 42 -8.16699 84.167 -24.5 126.5s-38.166 79.833 -65.499 112.5l73 19c66.667 -72 100 -160.333 100 -265
c0 -72 -17.333 -130 -52 -174s-78 -66 -130 -66c-72 0 -121.333 35.667 -148 107h-2c-26.667 -71.333 -76 -107 -148 -107z" />
    <glyph glyph-name="uni03D7" unicode="&#x3d7;" horiz-adv-x="582" 
d="M195 -216c-72 0 -135.001 16.334 -189.001 49.001l16 73c48.667 -34.667 102.667 -52 162 -52c90.667 0 179.334 47.333 266.001 142v4c-93.333 40 -157.333 112.667 -192 218l-101 -106v-112h-81v487h81v-265l2 -1l251 266h99l-193 -206c24 -64.667 54.333 -115 91 -151
s86 -60.667 148 -74v-47c-66 -80.667 -125.5 -138.334 -178.5 -173.001s-113.5 -52 -181.5 -52z" />
    <glyph glyph-name="uni0401" unicode="&#x401;" horiz-adv-x="593" 
d="M217 811c-16.667 0 -30.5 5.66504 -41.5 16.998s-16.5 25 -16.5 41c0 15.333 5.5 28.5 16.5 39.5s24.833 16.5 41.5 16.5c16 0 29.667 -5.66699 41 -17s17 -24.666 17 -39.999s-5.66699 -28.666 -17 -39.999s-25 -17 -41 -17zM398 810.998
c-16 0 -29.667 5.66504 -41 16.998s-17 25 -17 41c0 15.333 5.66699 28.5 17 39.5s25 16.5 41 16.5s29.667 -5.66699 41 -17s17 -24.666 17 -39.999s-5.66699 -28.666 -17 -39.999s-25 -17 -41 -17zM88 709.996h435v-79h-348v-238h285v-79h-285v-235h369v-79h-456v710z" />
    <glyph glyph-name="uni0402" unicode="&#x402;" horiz-adv-x="790" 
d="M500 441c74 0 133.834 -19.332 179.501 -57.999s68.5 -93.667 68.5 -165c0 -72 -21.5 -127.5 -64.5 -166.5s-99.833 -58.5 -170.5 -58.5c-30.667 0 -61 3 -91 9l7 74c25.333 -4.66699 51.333 -7 78 -7c48 0 85.167 12.5 111.5 37.5s39.5 60.5 39.5 106.5
c0 47.333 -15.333 83.666 -46 108.999s-74.334 38 -131.001 38c-63.333 0 -118.333 -12 -165 -36v-324h-88v631h-212v79h515v-79h-215v-231c58.667 27.333 120 41 184 41z" />
    <glyph glyph-name="uni0403" unicode="&#x403;" horiz-adv-x="554" 
d="M330 911h93l-122 -129h-83zM88 710h436v-79h-349v-631h-87v710z" />
    <glyph glyph-name="uni0404" unicode="&#x404;" horiz-adv-x="724" 
d="M689 122c-70 -84.667 -163.001 -127 -279.001 -127c-102 0 -186.333 30.833 -253 92.5s-100 150.167 -100 265.5c0 109.333 31.167 197.333 93.5 264s150.833 100 265.5 100c100.667 0 186 -36 256 -108l-60 -59c-54 56 -120 84 -198 84c-77.333 0 -139 -21.333 -185 -64
s-72.667 -100.667 -80 -174h373l1 -78h-375c5.33301 -74.667 31.833 -133.5 79.5 -176.5s108.167 -64.5 181.5 -64.5c88.667 0 160.334 33.333 215.001 100z" />
    <glyph glyph-name="uni0405" unicode="&#x405;" horiz-adv-x="580" 
d="M293 -6c-98.667 0 -182.336 36.668 -251.003 110.001l56 67c24.667 -30.667 54.5 -54.334 89.5 -71.001s70.5 -25 106.5 -25c44 0 79.333 9.66699 106 29s40 46 40 80c0 18.667 -3.16699 34.5 -9.5 47.5s-17.166 24.667 -32.499 35s-30.166 18.666 -44.499 24.999
s-34.833 14.5 -61.5 24.5c-4.66699 2 -8.33398 3.33301 -11.001 4c-26 9.33301 -47.167 17.5 -63.5 24.5s-35 16.833 -56 29.5s-37.333 25.667 -49 39s-21.834 30 -30.501 50s-13 42 -13 66c0 52.667 20.833 97.167 62.5 133.5s93.167 54.5 154.5 54.5
c80.667 0 155.334 -27.667 224.001 -83l-53 -69c-58 48 -115 72 -171 72c-35.333 0 -65.166 -9.16699 -89.499 -27.5s-36.833 -43.833 -37.5 -76.5c0 -16.667 3.16699 -31 9.5 -43s17.833 -23.167 34.5 -33.5s31.834 -18.666 45.501 -24.999s34.5 -14.833 62.5 -25.5
c72 -28.667 119 -50 141 -64c52.667 -34.667 79 -84 79 -148c0 -62 -23.167 -110.833 -69.5 -146.5s-102.5 -53.5 -168.5 -53.5z" />
    <glyph glyph-name="uni0406" unicode="&#x406;" horiz-adv-x="273" 
d="M93 710h87v-710h-87v710z" />
    <glyph glyph-name="uni0407" unicode="&#x407;" horiz-adv-x="273" 
d="M45 811c-16.667 0 -30.5 5.66504 -41.5 16.998s-16.5 25 -16.5 41c0 15.333 5.5 28.5 16.5 39.5s24.833 16.5 41.5 16.5c16 0 29.667 -5.66699 41 -17s17 -24.666 17 -39.999s-5.66699 -28.666 -17 -39.999s-25 -17 -41 -17zM226 810.998
c-16 0 -29.667 5.66504 -41 16.998s-17 25 -17 41c0 15.333 5.66699 28.5 17 39.5s25 16.5 41 16.5s29.667 -5.66699 41 -17s17 -24.666 17 -39.999s-5.66699 -28.666 -17 -39.999s-25 -17 -41 -17zM93 709.996h87v-710h-87v710z" />
    <glyph glyph-name="uni0408" unicode="&#x408;" horiz-adv-x="493" 
d="M217 -5c-33.333 0 -67.168 7.83301 -101.501 23.5s-63.166 38.167 -86.499 67.5l50 64c42 -48 86.667 -72 134 -72c77.333 0 116 51.667 116 155v477h88v-479c0 -157.333 -66.667 -236 -200 -236z" />
    <glyph glyph-name="uni0409" unicode="&#x409;" horiz-adv-x="1084" 
d="M794 433c164.667 0 246.999 -70.667 246.999 -212c0 -147.333 -82.667 -221 -248 -221h-246v631h-252c-6.66699 -134.667 -15 -246.667 -25 -336c-11.333 -104 -31.333 -179.667 -60 -227s-72 -71 -130 -71c-22 0 -42.333 2.66699 -61 8l7 73c8 -2 19.667 -3 35 -3
c38 0 66 19.667 84 59s32.333 103 43 191c10.667 90.667 18.334 219 23.001 385h423v-277h160zM792.999 79c105.333 0 158 46 158 138c0 91.333 -52.333 137 -157 137h-160v-275h159z" />
    <glyph glyph-name="uni040A" unicode="&#x40a;" horiz-adv-x="1076" 
d="M789 418c83.333 0 144.833 -17.833 184.5 -53.5s59.5 -85.5 59.5 -149.5c0 -143.333 -82 -215 -246 -215h-253v327h-359v-327h-87v710h87v-304h359v304h87v-292h168zM787 79c104 0 156 43.668 156 131.001c0 41.333 -12.833 73.166 -38.5 95.499
s-64.167 33.5 -115.5 33.5h-168v-260h166z" />
    <glyph glyph-name="uni040B" unicode="&#x40b;" horiz-adv-x="780" 
d="M516 446c69.333 0 119.5 -19.167 150.5 -57.5s46.5 -96.5 46.5 -174.5v-214h-87v207c0 58 -11 98.5 -33 121.5s-56.333 34.5 -103 34.5c-62.667 0 -120.667 -14 -174 -42v-321h-88v631h-212v79h515v-79h-215v-233c69.333 32 136 48 200 48z" />
    <glyph glyph-name="uni040C" unicode="&#x40c;" horiz-adv-x="646" 
d="M357 911h93l-122 -129h-83zM88 710h87v-389h2l322 389h112l-275 -324l282 -386h-109l-231 318l-103 -121v-197h-87v710z" />
    <glyph glyph-name="uni040D" unicode="&#x40d;" horiz-adv-x="734" 
d="M261 911h92l112 -129h-82zM88 710h87v-565h2l393 565h76v-710h-87v560h-2l-391 -560h-78v710z" />
    <glyph glyph-name="uni040E" unicode="&#x40e;" horiz-adv-x="643" 
d="M325 775c-41.333 0 -76.334 10.5 -105.001 31.5s-46.667 53.833 -54 98.5l72 8c2.66699 -22 11.167 -41.667 25.5 -59s34.833 -26 61.5 -26s47.334 8.66699 62.001 26s23 37 25 59l72 -8c-7.33301 -44.667 -25.333 -77.5 -54 -98.5s-63.667 -31.5 -105 -31.5z
M623.999 710l-235.998 -529c-29.333 -65.333 -51.333 -107.666 -66 -126.999c-30.667 -40.667 -72 -61 -124 -61c-18.667 0 -39.334 3.33301 -62.001 10s-40 15.667 -52 27l30 75c26 -18.667 53.667 -28 83 -28c26.667 0 48.167 9.16699 64.5 27.5
s31.166 47.166 44.499 86.499l-287 519h98l227 -419h3l184 419h93z" />
    <glyph glyph-name="uni040F" unicode="&#x40f;" horiz-adv-x="696" 
d="M609 0h-222l-2 -140h-73l-2 140h-222v710h87v-631h346v631h88v-710z" />
    <glyph glyph-name="uni0410" unicode="&#x410;" horiz-adv-x="676" 
d="M294 710h87l270 -710h-91l-64 173h-317l-63 -173h-91zM469 249l-131 356h-2l-129 -356h262z" />
    <glyph glyph-name="uni0411" unicode="&#x411;" horiz-adv-x="623" 
d="M88 710h430v-79h-343v-204h152c84 0 146.167 -18.167 186.5 -54.5s60.5 -87.5 60.5 -153.5c0 -146 -82.667 -219 -248 -219h-238v710zM326 79c105.333 0 158 45.334 158 136.001c0 43.333 -13.167 76.666 -39.5 99.999s-65.5 35 -117.5 35h-152v-271h151z" />
    <glyph glyph-name="uni0412" unicode="&#x412;" horiz-adv-x="635" 
d="M88 710l232 0.000976562c72 0 128.167 -14.167 168.5 -42.5s60.5 -71.833 60.5 -130.5c0 -36 -9.66699 -68.833 -29 -98.5s-47.333 -50.834 -84 -63.501v-2c44 -8.66699 79.667 -28.5 107 -59.5s41 -71.167 41 -120.5c0 -58.667 -20 -105.5 -60 -140.5
s-99 -52.5 -177 -52.5h-259v710zM321 404.001c40.667 0 74 9.33301 100 28s39 48 39 88c0 74.667 -49.667 112 -149 112l-136 -1v-227h146zM339 79.001c48 0 85.667 10.167 113 30.5s41 50.5 41 90.5c0 40.667 -14.333 72.167 -43 94.5s-70 33.5 -124 33.5h-151v-249h164z
" />
    <glyph glyph-name="uni0413" unicode="&#x413;" horiz-adv-x="554" 
d="M88 710h436v-79h-349v-631h-87v710z" />
    <glyph glyph-name="uni0414" unicode="&#x414;" horiz-adv-x="792" 
d="M753 -140l-73 0.000976562l-4 140h-583l-4 -140h-73v219h96c46 81.333 78 176.666 96 285.999c14 85.333 21.667 200.333 23 345h424v-631h98v-219zM291 337.001c-18.667 -106.667 -47.001 -192.667 -85.001 -258h362v552h-252
c-1.33301 -112.667 -9.66602 -210.667 -24.999 -294z" />
    <glyph glyph-name="uni0415" unicode="&#x415;" horiz-adv-x="593" 
d="M88 710h435v-79h-348v-238h285v-79h-285v-235h369v-79h-456v710z" />
    <glyph glyph-name="uni0416" unicode="&#x416;" horiz-adv-x="942" 
d="M271 388l-244 322h106l292 -390h1v390h84v-395l2 -1l286 396h105l-235 -323l248 -387h-102l-211 327l-93 -120v-207h-84v209l-92 120l-207 -329h-101z" />
    <glyph glyph-name="uni0417" unicode="&#x417;" horiz-adv-x="607" 
d="M300 -6c-111.333 0 -198.663 36.666 -261.996 109.999l56 67c48 -64 117.333 -96 208 -96c50.667 0 90.834 11.167 120.501 33.5s44.5 53.5 44.5 93.5s-14.833 71.333 -44.5 94s-72.834 34 -129.501 34h-114v76h108c43.333 0 78.666 10.333 105.999 31
s41 50.334 41 89.001c0 35.333 -12.167 62.333 -36.5 81s-59.166 28 -104.499 28c-66.667 0 -126.334 -20.667 -179.001 -62l-48 67c24 22.667 58.167 41.167 102.5 55.5s89.166 21.5 134.499 21.5c68 0 121.667 -15.833 161 -47.5s59 -74.5 59 -128.5
c0 -36.667 -9.66699 -70 -29 -100s-48 -51.333 -86 -64v-1c45.333 -9.33301 81.666 -28.5 108.999 -57.5s41 -67.833 41 -116.5c0 -62 -22.833 -112.167 -68.5 -150.5s-108.834 -57.5 -189.501 -57.5z" />
    <glyph glyph-name="uni0418" unicode="&#x418;" horiz-adv-x="734" 
d="M88 710h87v-565h2l393 565h76v-710h-87v560h-2l-391 -560h-78v710z" />
    <glyph glyph-name="uni0419" unicode="&#x419;" horiz-adv-x="734" 
d="M370 775c-41.333 0 -76.334 10.5 -105.001 31.5s-46.667 53.833 -54 98.5l72 8c2.66699 -22 11.167 -41.667 25.5 -59s34.833 -26 61.5 -26s47.334 8.66699 62.001 26s23 37 25 59l72 -8c-7.33301 -44.667 -25.333 -77.5 -54 -98.5s-63.667 -31.5 -105 -31.5zM87.999 710
h87v-565h2l393 565h76v-710h-87v560h-2l-391 -560h-78v710z" />
    <glyph glyph-name="uni041A" unicode="&#x41a;" horiz-adv-x="646" 
d="M88 710h87v-389h2l322 389h112l-275 -324l282 -386h-109l-231 318l-103 -121v-197h-87v710z" />
    <glyph glyph-name="uni041B" unicode="&#x41b;" horiz-adv-x="722" 
d="M634 710l-0.000976562 -710h-87v631h-252c-6.66699 -134.667 -15 -246.667 -25 -336c-11.333 -104 -31.333 -179.667 -60 -227s-72 -71 -130 -71c-22 0 -42.333 2.66699 -61 8l7 73c8 -2 19.667 -3 35 -3c38 0 66 19.667 84 59s32.333 103 43 191
c10.667 90.667 18.334 219 23.001 385h423z" />
    <glyph glyph-name="uni041C" unicode="&#x41c;" horiz-adv-x="875" 
d="M88 710h88l261 -459h2l261 459h87v-710h-87v541h-2l-231 -398h-59l-231 398h-1v-541h-88v710z" />
    <glyph glyph-name="uni041D" unicode="&#x41d;" horiz-adv-x="721" 
d="M88 710h87v-333h371v333h87v-710h-87v298h-371v-298h-87v710z" />
    <glyph glyph-name="uni041E" unicode="&#x41e;" horiz-adv-x="825" 
d="M414 -6c-104 0 -189.499 33.833 -256.499 101.5s-100.5 154.167 -100.5 259.5s33.667 192 101 260s152.666 102 255.999 102c101.333 0 185.666 -33.667 252.999 -101s101 -154.333 101 -261s-33.667 -193.5 -101 -260.5s-151.666 -100.5 -252.999 -100.5zM414.001 76
c74.667 0 137.167 26.168 187.5 78.501s75.5 119.166 75.5 200.499s-25.167 148.333 -75.5 201s-112.833 79 -187.5 79c-76.667 0 -140.167 -26.5 -190.5 -79.5s-75.5 -119.833 -75.5 -200.5c0 -80 25.167 -146.5 75.5 -199.5s113.833 -79.5 190.5 -79.5z" />
    <glyph glyph-name="uni041F" unicode="&#x41f;" horiz-adv-x="696" 
d="M88 710h521v-710h-88v631h-346v-631h-87v710z" />
    <glyph glyph-name="uni0420" unicode="&#x420;" horiz-adv-x="613" 
d="M88 710l248 0.000976562c79.333 0 138.333 -20 177 -60s58 -93.333 58 -160c0 -72.667 -22.5 -127.334 -67.5 -164.001s-105.833 -55 -182.5 -55h-146v-271h-87v710zM313 350.001c56.667 0 98.833 12.833 126.5 38.5s41.5 60.167 41.5 103.5c0 44.667 -13.667 79 -41 103
s-65 36 -113 36h-152v-281h138z" />
    <glyph glyph-name="uni0421" unicode="&#x421;" horiz-adv-x="724" 
d="M411 -5c-100.667 0 -184.834 31.666 -252.501 94.999s-101.5 151 -101.5 263c0 104.667 31.333 191.5 94 260.5s149 103.5 259 103.5c110.667 0 203 -45.333 277 -136l-65 -54c-57.333 71.333 -128 107 -212 107c-79.333 0 -142.833 -26.167 -190.5 -78.5
s-71.5 -119.833 -71.5 -202.5c0 -83.333 24.667 -150.166 74 -200.499s112.333 -75.5 189 -75.5c84.667 0 155.334 35.667 212.001 107l65 -55c-72 -89.333 -164.333 -134 -277 -134z" />
    <glyph glyph-name="uni0422" unicode="&#x422;" horiz-adv-x="573" 
d="M242 631h-212v79h514v-79h-215v-631h-87v631z" />
    <glyph glyph-name="uni0423" unicode="&#x423;" horiz-adv-x="643" 
d="M624 710l-235.998 -529c-29.333 -65.333 -51.333 -107.666 -66 -126.999c-30.667 -40.667 -72 -61 -124 -61c-18.667 0 -39.334 3.33301 -62.001 10s-40 15.667 -52 27l30 75c26 -18.667 53.667 -28 83 -28c26.667 0 48.167 9.16699 64.5 27.5
s31.166 47.166 44.499 86.499l-287 519h98l227 -419h3l184 419h93z" />
    <glyph glyph-name="uni0424" unicode="&#x424;" horiz-adv-x="850" 
d="M803 361c0 -84.667 -29.667 -153.166 -89 -205.499s-141 -79.833 -245 -82.5v-73h-88v73c-103.333 2.66699 -184.666 30.167 -243.999 82.5s-89 120.833 -89 205.5c0 88.667 29.667 160.667 89 216s140.666 84.333 243.999 87v65h88v-65
c103.333 -2.66699 184.833 -31.834 244.5 -87.501s89.5 -127.5 89.5 -215.5zM139 361.001c0 -61.333 21.5 -111 64.5 -149s102.833 -58.333 179.5 -61v434c-77.333 -2 -137.333 -23.333 -180 -64s-64 -94 -64 -160zM467 151.001c77.333 2.66699 137.5 22.832 180.5 60.499
s64.5 87.5 64.5 149.5c0 65.333 -21.333 118.333 -64 159s-103 62.334 -181 65.001v-434z" />
    <glyph glyph-name="uni0425" unicode="&#x425;" horiz-adv-x="663" 
d="M274 355l-238 355h101l195 -287h1l194 287h101l-239 -355l242 -355h-103l-196 286h-2l-196 -286h-101z" />
    <glyph glyph-name="uni0426" unicode="&#x426;" horiz-adv-x="735" 
d="M696 -140h-73l-4 140h-531v710h87v-631h336v631h87v-631h98v-219z" />
    <glyph glyph-name="uni0427" unicode="&#x427;" horiz-adv-x="647" 
d="M559 710l0.00195312 -710h-87v294c-25.333 -13.333 -57 -24.333 -95 -33s-73.333 -13 -106 -13c-70.667 0 -122.334 19.167 -155.001 57.5s-49 96.5 -49 174.5v230h87v-217c0 -62 11 -104.833 33 -128.5s57.667 -35.5 107 -35.5c71.333 0 130.666 14 177.999 42v339h87z
" />
    <glyph glyph-name="uni0428" unicode="&#x428;" horiz-adv-x="968" 
d="M881 710v-710h-793v710h87v-631h266v631h87v-631h265v631h88z" />
    <glyph glyph-name="uni0429" unicode="&#x429;" horiz-adv-x="1017" 
d="M979 -140h-73l-4 140h-814v710h87v-631h266v631h87v-631h265v631h88v-631h98v-219z" />
    <glyph glyph-name="uni042A" unicode="&#x42a;" horiz-adv-x="724" 
d="M434 433c165.333 0 248 -70.667 248 -212c0 -147.333 -82.667 -221 -248 -221h-247v631h-180v79h267v-277h160zM434 79c104.667 0 157 46 157 138c0 91.333 -52.333 137 -157 137h-160v-275h160z" />
    <glyph glyph-name="uni042B" unicode="&#x42b;" horiz-adv-x="848" 
d="M88 710h87v-277h140c164.667 0 247 -70.667 247 -212c0 -147.333 -82.667 -221 -248 -221h-226v710zM673 710h87v-710h-87v710zM314 79c105.333 0 158 46 158 138c0 91.333 -52.333 137 -157 137h-140v-275h139z" />
    <glyph glyph-name="uni042C" unicode="&#x42c;" horiz-adv-x="625" 
d="M88 710h87v-277h160c164.667 0 247 -70.667 247 -212c0 -147.333 -82.667 -221 -248 -221h-246v710zM334 79c105.333 0 158 46 158 138c0 91.333 -52.333 137 -157 137h-160v-275h159z" />
    <glyph glyph-name="uni042D" unicode="&#x42d;" horiz-adv-x="724" 
d="M317 717c109.333 0 195.001 -33.5 257.001 -100.5s93 -154.833 93 -263.5c0 -113.333 -32.667 -201.333 -98 -264s-148.333 -94 -249 -94c-55.333 0 -107.5 9.83301 -156.5 29.5s-89.833 47.167 -122.5 82.5l52 68c25.333 -28.667 58.5 -52.167 99.5 -70.5
s84.167 -27.5 129.5 -27.5c72 0 131.167 21.667 177.5 65s72.166 102 77.499 176h-379l1 78h378c-5.33301 72.667 -31.5 130.667 -78.5 174s-107.833 65 -182.5 65c-79.333 0 -148.333 -24.667 -207 -74l-50 67c72 59.333 158 89 258 89z" />
    <glyph glyph-name="uni042E" unicode="&#x42e;" horiz-adv-x="1043" 
d="M645 717c103.333 0 186.666 -33.5 249.999 -100.5s95 -154.167 95 -261.5s-31.667 -194.333 -95 -261s-146.666 -100 -249.999 -100c-89.333 0 -165 28.5 -227 85.5s-98.667 129.833 -110 218.5h-138v-298h-87v710h87v-333h136c6 100 40.5 181.667 103.5 245
s141.5 95 235.5 95zM645 76c76 0 137.334 26.001 184.001 78.001s70 119 70 201s-23.333 149.167 -70 201.5s-108 78.5 -184 78.5c-72 0 -132 -27.167 -180 -81.5s-72 -122.5 -72 -204.5c0 -76.667 24.167 -141.334 72.5 -194.001s108.166 -79 179.499 -79z" />
    <glyph glyph-name="uni042F" unicode="&#x42f;" horiz-adv-x="655" 
d="M228 280c-104 30 -156 98.667 -156 206c0 70.667 20.667 125.667 62 165s101.333 59 180 59h254v-710h-87v266h-163l-169 -266h-104zM481 345v285.999h-155c-52 0 -92.333 -12.167 -121 -36.5s-43 -60.166 -43 -107.499c0 -43.333 14.333 -77.833 43 -103.5
s72.667 -38.5 132 -38.5h144z" />
    <glyph glyph-name="uni0430" unicode="&#x430;" horiz-adv-x="604" 
d="M281 -6c-68 0 -124.501 22.8311 -169.501 68.498s-67.5 104.834 -67.5 177.501s22.333 133 67 181s101.334 72 170.001 72c36 0 69 -8.16699 99 -24.5s53.667 -39.166 71 -68.499l2 1v86h81v-487h-78v88h-1c-38 -62.667 -96 -94 -174 -94zM292.999 67.998
c46 0 84.667 16 116 48s47 73.333 47 124s-15.333 93.167 -46 127.5s-69.667 51.5 -117 51.5s-87 -16.667 -119 -50s-48 -76.333 -48 -129c0 -49.333 15.5 -90.333 46.5 -123s71.167 -49 120.5 -49z" />
    <glyph glyph-name="uni0431" unicode="&#x431;" horiz-adv-x="601" 
d="M318 -6c-85.333 0 -149.166 28.834 -191.499 86.501s-63.166 134.5 -62.499 230.5c0 46.667 1.5 86.667 4.5 120s9.5 66.666 19.5 99.999s23.833 61 41.5 83s41.5 41.5 71.5 58.5s66 29.167 108 36.5l188 33l23 -72l-195 -35
c-38.667 -7.33301 -70.167 -17.833 -94.5 -31.5s-42.833 -32.667 -55.5 -57s-21.334 -48.5 -26.001 -72.5s-8.66699 -57 -12 -99l2 -1c38 76.667 101.333 115 190 115c64 0 118.167 -23 162.5 -69s66.5 -104.333 66.5 -175c0 -72.667 -23.333 -132.667 -70 -180
s-103.334 -71 -170.001 -71zM315 67.001c44 0 81.834 16.834 113.501 50.501s47.5 76.167 47.5 127.5c0 49.333 -15.833 90.166 -47.5 122.499s-70.5 48.5 -116.5 48.5c-49.333 0 -89 -16.833 -119 -50.5s-45.333 -71.5 -46 -113.5c0 -48 14.667 -90.833 44 -128.5
s70.666 -56.5 123.999 -56.5z" />
    <glyph glyph-name="uni0432" unicode="&#x432;" horiz-adv-x="536" 
d="M76 487h227.001c110 0 165 -39.667 165 -119c0 -58 -26.667 -95.333 -80 -112v-1c31.333 -6 56.666 -19.333 75.999 -40s29 -47 29 -79c0 -90.667 -61 -136 -183 -136h-234v487zM296.001 281c61.333 0 92 23.667 92 71c0 44 -29.667 66 -89 66h-144v-137h141zM304.001 69
c70.667 0 106 24.667 106 74c0 48.667 -33.667 73 -101 73h-154v-147h149z" />
    <glyph glyph-name="uni0433" unicode="&#x433;" horiz-adv-x="437" 
d="M76 487h334v-72h-253v-415h-81v487z" />
    <glyph glyph-name="uni0434" unicode="&#x434;" horiz-adv-x="612" 
d="M584 -134h-68.999l-5 134h-415l-5 -134h-68v206h77c30 50.667 51 111 63 181c11.333 62 17.666 140 18.999 234h318v-415h85v-206zM418.001 72l0.000976562 343h-160c-2.66699 -76 -9.33398 -138 -20.001 -186c-12.667 -60 -31 -112.333 -55 -157h235z" />
    <glyph glyph-name="uni0435" unicode="&#x435;" horiz-adv-x="552" 
d="M509 252c0 -4.66699 -0.332031 -11 -0.999023 -19s-1 -12.667 -1 -14h-380c5.33301 -46 23 -82.667 53 -110s68 -41 114 -41c58.667 0 105.667 21.667 141 65l57 -48c-47.333 -60.667 -114.333 -91 -201 -91c-72.667 0 -131.834 23 -177.501 69s-68.5 106 -68.5 180
c0 73.333 22.5 133.333 67.5 180s102.5 70 172.5 70c66 0 119.833 -22.667 161.5 -68s62.5 -103 62.5 -173zM284.001 419c-39.333 0 -73.1689 -12 -101.502 -36s-46.166 -56.667 -53.499 -98h299c-6 40.667 -21.667 73.167 -47 97.5s-57.666 36.5 -96.999 36.5z" />
    <glyph glyph-name="uni0436" unicode="&#x436;" horiz-adv-x="775" 
d="M212 270l-187 217h98l223 -259h2v259h78v-262h1l220 262h95l-182 -216l193 -271h-94l-157 227l-76 -86v-141h-78v142l-79 85l-156 -227h-91z" />
    <glyph glyph-name="uni0437" unicode="&#x437;" horiz-adv-x="490" 
d="M239 -6c-79.333 0 -145.667 17 -199 51l25 73c48.667 -34.667 106.667 -52 174 -52c38.667 0 69.167 6.83301 91.5 20.5s33.5 33.167 33.5 58.5c0 46.667 -35.667 70 -107 70h-110v65h97c64.667 0 97 23 97 69c0 47.333 -34.667 71 -104 71
c-55.333 0 -105 -12.333 -149 -37l-31 66c50.667 29.333 110.334 44 179.001 44c57.333 0 102.666 -11 135.999 -33s50 -52.333 50 -91c0 -26 -7.16699 -49 -21.5 -69s-34.5 -34.333 -60.5 -43v-1c30.667 -7.33301 56.167 -21.166 76.5 -41.499s30.5 -46.833 30.5 -79.5
c0 -42.667 -18.167 -76.834 -54.5 -102.501s-87.5 -38.5 -153.5 -38.5z" />
    <glyph glyph-name="uni0438" unicode="&#x438;" horiz-adv-x="587" 
d="M76 487h81v-370h2l275 370h77v-487h-81v362h-2l-274 -362h-78v487z" />
    <glyph glyph-name="uni0439" unicode="&#x439;" horiz-adv-x="587" 
d="M299 554c-41.333 0 -76.333 10.667 -105 32s-46.667 55 -54 101l72 13c2 -25.333 10.333 -47.166 25 -65.499s35.334 -27.5 62.001 -27.5c27.333 0 48.166 9.16699 62.499 27.5s22.5 40.166 24.5 65.499l72 -13c-7.33301 -46 -25.333 -79.667 -54 -101
s-63.667 -32 -105 -32zM76 487h81v-370h2l275 370h77v-487h-81v362h-2l-274 -362h-78v487z" />
    <glyph glyph-name="uni043A" unicode="&#x43a;" horiz-adv-x="537" 
d="M76 487h81v-266h2l245 266h100l-195 -210l206 -277h-96l-168 228l-94 -100v-128h-81v487z" />
    <glyph glyph-name="uni043B" unicode="&#x43b;" horiz-adv-x="563" 
d="M487 487v-486.999h-81v415h-172c-5.33301 -106.667 -10.666 -181.334 -15.999 -224.001c-17.333 -130 -69 -195 -155 -195c-16.667 0 -31 2.33301 -43 7l6 70c8 -1.33301 15.667 -2 23 -2c50.667 0 81.667 48.667 93 146c5.33301 53.333 9.66602 143.333 12.999 270h332z
" />
    <glyph glyph-name="uni043C" unicode="&#x43c;" horiz-adv-x="678" 
d="M76 487h79l183 -312h2l184 312h78v-487h-78v350h-2l-156 -265h-55l-155 264h-2v-349h-78v487z" />
    <glyph glyph-name="uni043D" unicode="&#x43d;" horiz-adv-x="577" 
d="M76 487h81v-214h263v214h81v-487h-81v203h-263v-203h-81v487z" />
    <glyph glyph-name="uni043E" unicode="&#x43e;" horiz-adv-x="593" 
d="M297 -6c-74.667 0 -135.334 23.667 -182.001 71s-70 106.666 -70 177.999s23.333 130.833 70 178.5s107.334 71.5 182.001 71.5c72.667 0 132.667 -23.333 180 -70s71 -106.667 71 -180s-23.667 -133.166 -71 -179.499s-107.333 -69.5 -180 -69.5zM297 68
c47.333 0 87.166 16.333 119.499 49s48.5 74.667 48.5 126s-16.167 93.5 -48.5 126.5s-72.166 49.5 -119.499 49.5c-50 0 -90.667 -17 -122 -51s-47 -75.667 -47 -125s15.833 -90.833 47.5 -124.5s72.167 -50.5 121.5 -50.5z" />
    <glyph glyph-name="uni043F" unicode="&#x43f;" horiz-adv-x="566" 
d="M76 487h414v-487h-81v415h-252v-415h-81v487z" />
    <glyph glyph-name="uni0440" unicode="&#x440;" horiz-adv-x="614" 
d="M76 487l81 0.000976562v-86h1c39.333 61.333 97 92 173 92c68.667 0 125.334 -24 170.001 -72s67 -108.333 67 -181s-22.5 -131.834 -67.5 -177.501s-101.5 -68.5 -169.5 -68.5c-76.667 0 -134.334 30 -173.001 90h-1v-282h-81v685zM320 68.001
c48.667 0 88.5 16.333 119.5 49s46.5 73.667 46.5 123c0 52.667 -16 95.667 -48 129s-71.667 50 -119 50c-48.667 0 -88.5 -17.167 -119.5 -51.5s-46.5 -76.833 -46.5 -127.5s16 -92 48 -124s71.667 -48 119 -48z" />
    <glyph glyph-name="uni0441" unicode="&#x441;" horiz-adv-x="521" 
d="M288 -6c-71.333 0 -129.667 23 -175 69s-68 106 -68 180c0 73.333 22.833 133.333 68.5 180s104.834 70 177.501 70c37.333 0 73.5 -7.5 108.5 -22.5s64.167 -36.5 87.5 -64.5l-55 -49c-35.333 41.333 -81 62 -137 62c-50 0 -90.333 -16.333 -121 -49s-46 -75 -46 -127
s15.333 -94.167 46 -126.5s70.667 -48.5 120 -48.5c59.333 0 105.666 20.667 138.999 62l56 -51c-47.333 -56.667 -114.333 -85 -201 -85z" />
    <glyph glyph-name="uni0442" unicode="&#x442;" horiz-adv-x="458" 
d="M189 415h-163v72h407v-72h-163v-415h-81v415z" />
    <glyph glyph-name="uni0443" unicode="&#x443;" horiz-adv-x="525" 
d="M229 19l-207 468h88l158 -370h2l147 370h85l-276 -685h-84z" />
    <glyph glyph-name="uni0444" unicode="&#x444;" horiz-adv-x="699" 
d="M662 241c0 -71.333 -24.667 -129.666 -74 -174.999s-115.333 -69.333 -198 -72v-192h-81v192c-84 2 -150.167 25.5 -198.5 70.5s-72.5 103.833 -72.5 176.5c0 72 24.5 131.5 73.5 178.5s114.833 71.5 197.5 73.5v243h81v-243
c83.333 -0.666992 149.5 -24.334 198.5 -71.001s73.5 -107 73.5 -181zM389 64c62 2.66699 109.167 19.835 141.5 51.502s48.5 73.5 48.5 125.5c0 53.333 -16.833 96.166 -50.5 128.499s-80.167 50.166 -139.5 53.499v-359zM120 240.001c0 -52.667 16.333 -94.5 49 -125.5
s80 -47.833 142 -50.5v358c-60 -2.66699 -106.833 -20.5 -140.5 -53.5s-50.5 -75.833 -50.5 -128.5z" />
    <glyph glyph-name="uni0445" unicode="&#x445;" horiz-adv-x="506" 
d="M206 247l-177 240h96l126 -178h2l128 178h95l-176 -241l178 -246h-92l-132 177h-1l-133 -177h-91z" />
    <glyph glyph-name="uni0446" unicode="&#x446;" horiz-adv-x="594" 
d="M566 -134h-69l-5 134h-416v487h81v-415h239v415h81v-415h89v-206z" />
    <glyph glyph-name="uni0447" unicode="&#x447;" horiz-adv-x="532" 
d="M456 487v-487h-81v192c-46.667 -22.667 -97.667 -34 -153 -34c-60.667 0 -105.167 14.5 -133.5 43.5s-42.5 74.833 -42.5 137.5v148h81v-130c0 -50 9.33301 -83.667 28 -101s48 -26 88 -26c44.667 0 88.667 9.66699 132 29v228h81z" />
    <glyph glyph-name="uni0448" unicode="&#x448;" horiz-adv-x="815" 
d="M74 487h81v-415h212v415h81v-415h211v415h81v-487h-666v487z" />
    <glyph glyph-name="uni0449" unicode="&#x449;" horiz-adv-x="856" 
d="M829 -134h-68l-5 134h-682v487h81v-415h212v415h81v-415h211v415h81v-415h89v-206z" />
    <glyph glyph-name="uni044A" unicode="&#x44a;" horiz-adv-x="567" 
d="M346 324c124.667 0 187 -54 187 -162s-64.667 -162 -194 -162h-192v415h-139v72h220v-163h118zM340 70c73.333 0 110 30.333 110 91c0 63.333 -35.667 95 -107 95h-115v-186h112z" />
    </font>
</defs>
</svg>
